<svg width="16" height="16" viewBox="0 0 16 16" fill="none" xmlns="http://www.w3.org/2000/svg">
<g clip-path="url(#clip0_564_261)">
<path d="M15.8167 8.44241L15.8161 8.443L12.5504 11.693C12.3057 11.9365 11.91 11.9356 11.6665 11.6909C11.423 11.4462 11.4239 11.0505 11.6686 10.807L13.8612 8.625H0.625C0.279813 8.625 0 8.34519 0 8C0 7.65481 0.279813 7.375 0.625 7.375H13.8612L11.6686 5.193C11.4239 4.9495 11.423 4.55378 11.6665 4.30913C11.91 4.06441 12.3058 4.06357 12.5504 4.307L15.8162 7.557L15.8167 7.5576C16.0615 7.80191 16.0607 8.19891 15.8167 8.44241Z" fill="white" fill-opacity="0.8"/>
</g>
<defs>
<clipPath id="clip0_564_261">
<rect width="16" height="16" fill="white" transform="matrix(1 0 0 -1 0 16)"/>
</clipPath>
</defs>
</svg>
