<svg width="24" height="25" viewBox="0 0 24 25" fill="none" xmlns="http://www.w3.org/2000/svg">
<path d="M7.78912 6.2338C8.32952 6.22393 8.86916 6.27846 9.39625 6.3962C9.84003 6.49156 10.2614 6.66901 10.6379 6.91912C10.9856 7.16782 11.2608 7.50218 11.4357 7.88863C11.6367 8.36383 11.7337 8.87541 11.7203 9.38999C11.7431 9.95501 11.5965 10.5141 11.2987 10.9977C10.9854 11.4545 10.5524 11.8192 10.0455 12.0533C10.7334 12.2358 11.3325 12.6539 11.7352 13.2323C12.1217 13.8452 12.316 14.5567 12.2937 15.2777C12.3064 15.8526 12.1857 16.4227 11.9406 16.9447C11.714 17.4001 11.3823 17.7969 10.972 18.1034C10.5496 18.4066 10.0742 18.6309 9.5695 18.7652C9.04611 18.9077 8.50542 18.9793 7.96237 18.9779H2V6.2338H7.78912ZM7.44509 11.3883C7.86969 11.4055 8.28766 11.2804 8.63063 11.0335C8.79489 10.8895 8.92266 10.7098 9.00374 10.5086C9.08482 10.3074 9.11696 10.0903 9.09759 9.87475C9.10858 9.62294 9.05764 9.37224 8.94909 9.14396C8.85701 8.96221 8.71383 8.8103 8.53658 8.7063C8.35705 8.59182 8.15535 8.51524 7.94422 8.48138C7.71514 8.4377 7.48203 8.41784 7.24874 8.42211H4.70109V11.3997H7.44509V11.3883ZM7.59359 16.814C7.85037 16.8174 8.10662 16.7901 8.35673 16.7328C8.58529 16.6831 8.80205 16.5908 8.99529 16.4608C9.1846 16.3308 9.33754 16.156 9.43997 15.9525C9.55874 15.6929 9.61331 15.4094 9.5992 15.1251C9.62495 14.866 9.59008 14.6045 9.49727 14.3607C9.40446 14.117 9.25617 13.8973 9.06377 13.7187C8.65596 13.4231 8.1562 13.2766 7.65052 13.3046H4.70109V16.814H7.59359Z" fill="black"/>
<path d="M16.1407 16.7667C16.3527 16.9601 16.6025 17.109 16.8748 17.2045C17.1471 17.3 17.4362 17.34 17.7247 17.3221C18.1821 17.3334 18.6305 17.1965 19.001 16.9323C19.3024 16.7394 19.5307 16.454 19.6503 16.1203H21.8044C21.5749 17.0702 21.0144 17.9109 20.2204 18.4962C19.4587 18.9938 18.5585 19.2458 17.6447 19.2172C16.9925 19.2257 16.3453 19.105 15.7414 18.8624C15.1951 18.6382 14.7052 18.2993 14.3059 17.8693C13.908 17.4188 13.6024 16.8969 13.4058 16.3322C13.1851 15.7011 13.0771 15.0371 13.0865 14.3697C13.0825 13.7134 13.1941 13.0615 13.4165 12.4428C13.7153 11.5725 14.2865 10.8176 15.0482 10.2866C15.8099 9.75563 16.7229 9.47577 17.6563 9.4872C18.3453 9.47303 19.0268 9.63175 19.6363 9.94841C20.1873 10.2458 20.6626 10.6622 21.0264 11.1664C21.3987 11.6954 21.6655 12.2892 21.8127 12.9162C21.9741 13.5895 22.0317 14.2828 21.9835 14.973H15.5673C15.5153 15.6214 15.7209 16.2644 16.1407 16.7667ZM18.9557 11.9199C18.7761 11.7432 18.5602 11.6063 18.3224 11.5187C18.0845 11.431 17.8304 11.3945 17.5771 11.4116C17.2409 11.399 16.9073 11.4723 16.6085 11.6243C16.3716 11.7527 16.1626 11.9254 15.993 12.1327C15.8428 12.327 15.7309 12.5473 15.663 12.7822C15.6019 12.9782 15.5637 13.1803 15.5492 13.3847H19.5233C19.4886 12.8518 19.2914 12.3415 18.9573 11.9207L18.9557 11.9199Z" fill="black"/>
<path d="M20.0169 7.08447H15.0371V8.33792H20.0169V7.08447Z" fill="black"/>
</svg>
