<svg width="24" height="24" viewBox="0 0 24 24" fill="none" xmlns="http://www.w3.org/2000/svg">
<mask id="mask0_545_1941" style="mask-type:luminance" maskUnits="userSpaceOnUse" x="0" y="0" width="24" height="24">
<path d="M24 0.220947H0V23.842H24V0.220947Z" fill="white"/>
</mask>
<g mask="url(#mask0_545_1941)">
<mask id="mask1_545_1941" style="mask-type:luminance" maskUnits="userSpaceOnUse" x="3" y="3" width="18" height="18">
<path d="M21 3.17383H3V20.8896H21V3.17383Z" fill="white"/>
</mask>
<g mask="url(#mask1_545_1941)">
<path d="M12 19.9063C7.5875 19.9063 4 16.3775 4 12.0357C4 7.68777 7.5875 4.15894 12 4.15894C16.4125 4.15894 20 7.68777 20 12.0295C20 16.3713 16.4125 19.9063 12 19.9063ZM18.7437 13.1073C18.5125 13.0334 16.6313 12.4853 14.4875 12.8178C15.3813 15.232 15.7437 17.2027 15.8125 17.6092C17.35 16.593 18.4437 14.9795 18.7437 13.1073ZM14.6687 18.2312C14.5687 17.64 14.1687 15.583 13.2125 13.1319C13.2 13.1381 13.1812 13.1442 13.1687 13.1442C9.3125 14.4683 7.93125 17.098 7.80625 17.3443C8.9625 18.2312 10.4187 18.7608 12 18.7608C12.9438 18.767 13.85 18.576 14.6687 18.2312ZM6.925 16.5376C7.08125 16.2789 8.95625 13.2243 12.4812 12.0973C12.5687 12.0665 12.6625 12.0419 12.75 12.0172C12.5813 11.6354 12.3938 11.2536 12.1938 10.8779C8.78125 11.8817 5.46875 11.8386 5.16875 11.8325C5.16875 11.9002 5.1625 11.9679 5.1625 12.0357C5.16875 13.7662 5.83125 15.3428 6.925 16.5376ZM5.3125 10.6623C5.61875 10.6685 8.43125 10.6808 11.6312 9.84326C10.5 7.86021 9.275 6.19741 9.1 5.95723C7.18125 6.84405 5.75625 8.58076 5.3125 10.6623ZM10.4 5.50149C10.5875 5.74784 11.8312 7.41064 12.95 9.43679C15.3813 8.53765 16.4062 7.18277 16.5312 7.01033C15.325 5.95723 13.7375 5.31674 12 5.31674C11.45 5.31674 10.9125 5.38448 10.4 5.50149ZM17.2875 7.78631C17.1438 7.97722 16 9.42448 13.475 10.4406C13.6313 10.7609 13.7875 11.0873 13.9312 11.4137C13.9812 11.5307 14.0312 11.6477 14.0813 11.7586C16.3563 11.4753 18.6125 11.931 18.8375 11.9741C18.8187 10.3914 18.2438 8.93179 17.2875 7.78631Z" fill="black"/>
</g>
</g>
</svg>
