<svg width="24" height="24" viewBox="0 0 24 24" fill="none" xmlns="http://www.w3.org/2000/svg">
<g clip-path="url(#clip0_545_1935)">
<mask id="mask0_545_1935" style="mask-type:luminance" maskUnits="userSpaceOnUse" x="0" y="0" width="24" height="24">
<path d="M24 0.305176H0V23.9262H24V0.305176Z" fill="white"/>
</mask>
<g mask="url(#mask0_545_1935)">
<path d="M6.94141 5.22722C6.94114 5.74927 6.73017 6.24985 6.35491 6.61881C5.97965 6.98778 5.47084 7.19492 4.94041 7.19465C4.40997 7.1944 3.90137 6.98676 3.52649 6.61742C3.1516 6.24809 2.94114 5.7473 2.94141 5.22525C2.94167 4.70319 3.15264 4.20261 3.5279 3.83365C3.90316 3.46468 4.41197 3.25756 4.94241 3.25781C5.47284 3.25808 5.98144 3.46571 6.35633 3.83504C6.73121 4.20438 6.94167 4.70516 6.94141 5.22722ZM7.00141 8.65227H3.00141V20.9746H7.00141V8.65227ZM13.3214 8.65227H9.34141V20.9746H13.2814V14.5083C13.2814 10.9061 18.0514 10.5715 18.0514 14.5083V20.9746H22.0014V13.1698C22.0014 7.09721 14.9414 7.32358 13.2814 10.3057L13.3214 8.65227Z" fill="black"/>
</g>
</g>
<defs>
<clipPath id="clip0_545_1935">
<rect width="24" height="23.621" fill="white" transform="translate(0 0.305176)"/>
</clipPath>
</defs>
</svg>
