<svg width="24" height="25" viewBox="0 0 24 25" fill="none" xmlns="http://www.w3.org/2000/svg">
<g clip-path="url(#clip0_545_1952)">
<path d="M12.5005 5.53125C10.4636 5.53125 10.208 5.54002 9.40804 5.57585C8.60962 5.61183 8.06463 5.73624 7.58776 5.91879C7.09449 6.10733 6.67606 6.35953 6.25919 6.76998C5.84201 7.18028 5.58577 7.59212 5.39359 8.07746C5.20765 8.54696 5.08109 9.08352 5.04516 9.86905C5.00937 10.6564 5 10.9082 5 12.9129C5 14.9176 5.00906 15.1685 5.04531 15.9558C5.08203 16.7417 5.20843 17.2781 5.39374 17.7474C5.58546 18.2329 5.8417 18.6448 6.25873 19.0551C6.67544 19.4657 7.09386 19.7185 7.58682 19.907C8.064 20.0896 8.60915 20.214 9.40741 20.25C10.2074 20.2858 10.4629 20.2946 12.4995 20.2946C14.5365 20.2946 14.7914 20.2858 15.5914 20.25C16.3898 20.214 16.9354 20.0896 17.4126 19.907C17.9057 19.7185 18.3235 19.4657 18.7402 19.0551C19.1574 18.6448 19.4136 18.2329 19.6058 17.7476C19.7902 17.2781 19.9167 16.7415 19.9542 15.956C19.9902 15.1686 19.9995 14.9176 19.9995 12.9129C19.9995 10.9082 19.9902 10.6566 19.9542 9.8692C19.9167 9.08336 19.7902 8.54696 19.6058 8.07761C19.4136 7.59212 19.1574 7.18028 18.7402 6.76998C18.323 6.35938 17.9058 6.10717 17.4121 5.91879C16.934 5.73624 16.3887 5.61183 15.5903 5.57585C14.7903 5.54002 14.5356 5.53125 12.4981 5.53125H12.5005ZM11.8277 6.86149C12.0274 6.86118 12.2502 6.86149 12.5005 6.86149C14.5029 6.86149 14.7403 6.86856 15.531 6.90393C16.2623 6.93684 16.6591 7.0571 16.9235 7.15814C17.2735 7.29193 17.523 7.45186 17.7854 7.71022C18.0479 7.96858 18.2104 8.21463 18.3466 8.55911C18.4493 8.81901 18.5716 9.20962 18.6049 9.92933C18.6408 10.7075 18.6486 10.9412 18.6486 12.9112C18.6486 14.8812 18.6408 15.1149 18.6049 15.8931C18.5714 16.6128 18.4493 17.0034 18.3466 17.2633C18.2107 17.6078 18.0479 17.8531 17.7854 18.1113C17.5229 18.3696 17.2737 18.5296 16.9235 18.6634C16.6595 18.7649 16.2623 18.8848 15.531 18.9177C14.7404 18.9531 14.5029 18.9608 12.5005 18.9608C10.4979 18.9608 10.2605 18.9531 9.46991 18.9177C8.73868 18.8845 8.34181 18.7642 8.07728 18.6632C7.72729 18.5294 7.47729 18.3695 7.2148 18.1111C6.9523 17.8528 6.78981 17.6073 6.65356 17.2627C6.55091 17.0028 6.42857 16.6122 6.39528 15.8925C6.35935 15.1143 6.35216 14.8806 6.35216 12.9094C6.35216 10.9382 6.35935 10.7056 6.39528 9.92749C6.42872 9.20777 6.55091 8.81716 6.65356 8.55696C6.7895 8.21248 6.9523 7.96643 7.2148 7.70807C7.47729 7.44971 7.72729 7.28978 8.07728 7.15567C8.34165 7.05418 8.73868 6.93423 9.46991 6.90116C10.1618 6.87041 10.4299 6.86118 11.8277 6.85964V6.86149ZM16.5038 8.08715C16.007 8.08715 15.6039 8.48345 15.6039 8.97264C15.6039 9.46167 16.007 9.85844 16.5038 9.85844C17.0007 9.85844 17.4038 9.46167 17.4038 8.97264C17.4038 8.4836 17.0007 8.08684 16.5038 8.08684V8.08715ZM12.5005 9.12212C10.3735 9.12212 8.64899 10.8194 8.64899 12.9129C8.64899 15.0064 10.3735 16.7029 12.5005 16.7029C14.6275 16.7029 16.3513 15.0064 16.3513 12.9129C16.3513 10.8194 14.6275 9.12212 12.5005 9.12212ZM12.5005 10.4524C13.8811 10.4524 15.0004 11.5539 15.0004 12.9129C15.0004 14.2717 13.8811 15.3735 12.5005 15.3735C11.1197 15.3735 10.0005 14.2717 10.0005 12.9129C10.0005 11.5539 11.1197 10.4524 12.5005 10.4524Z" fill="black"/>
</g>
<defs>
<clipPath id="clip0_545_1952">
<rect width="15" height="14.7631" fill="white" transform="translate(5 5.53149)"/>
</clipPath>
</defs>
</svg>
