<svg width="89" height="89" viewBox="0 0 89 89" fill="none" xmlns="http://www.w3.org/2000/svg">
<path d="M76.8421 17H44.4211H12V73M76.8421 73H57.6316" stroke="#2F3339" stroke-width="1.13" stroke-linecap="round" stroke-linejoin="round"/>
<path d="M46 42L59 58.8385L56.0696 65.6128L54.6045 69" stroke="#2F3339" stroke-width="1.13" stroke-linecap="round" stroke-linejoin="round"/>
<path d="M58 73H39.505L34 59.1781L46.2034 42V55.2301" stroke="#2F3339" stroke-width="1.13" stroke-linecap="round" stroke-linejoin="round"/>
<path d="M29.5109 52H31V58H25V52H28.0044" stroke="#0055FF" stroke-width="1.13" stroke-linecap="round" stroke-linejoin="round"/>
<path d="M45.2627 32H49V39H42V32H45.5051" stroke="#0055FF" stroke-width="1.13" stroke-linecap="round" stroke-linejoin="round"/>
<path d="M42 35H28" stroke="#0055FF" stroke-width="1.13" stroke-linecap="round" stroke-linejoin="round"/>
<path d="M26.5 37C27.3284 37 28 36.3284 28 35.5C28 34.6715 27.3284 34 26.5 34C25.6716 34 25 34.6715 25 35.5C25 36.3284 25.6716 37 26.5 37Z" stroke="#0055FF" stroke-width="1.13" stroke-linecap="round" stroke-linejoin="round"/>
<path d="M64.5 37C65.3284 37 66 36.3284 66 35.5C66 34.6715 65.3284 34 64.5 34C63.6716 34 63 34.6715 63 35.5C63 36.3284 63.6716 37 64.5 37Z" stroke="#0055FF" stroke-width="1.13" stroke-linecap="round" stroke-linejoin="round"/>
<path d="M50 35H63" stroke="#0055FF" stroke-width="1.13" stroke-linecap="round" stroke-linejoin="round"/>
<path d="M40 75H52" stroke="#2F3339" stroke-width="1.13" stroke-linecap="round" stroke-linejoin="round"/>
<path d="M46 60C47.1046 60 48 59.1046 48 58.0001C48 56.8955 47.1046 56 46 56C44.8954 56 44 56.8955 44 58.0001C44 59.1046 44.8954 60 46 60Z" stroke="#2F3339" stroke-width="1.13" stroke-linecap="round" stroke-linejoin="round"/>
<path d="M27 54C27 44.8247 33.5227 37.2383 42 36" stroke="#0055FF" stroke-width="1.13" stroke-linecap="round" stroke-linejoin="round"/>
</svg>
