<svg width="14" height="10" viewBox="0 0 14 10" fill="none" xmlns="http://www.w3.org/2000/svg">
<g clip-path="url(#clip0_212_1148)">
<path d="M13.0377 0.387412C13.0376 0.542991 13.1652 0.669182 13.3227 0.669269L13.6079 0.669426C13.7654 0.669513 13.8931 0.543463 13.8932 0.387884C13.8933 0.232306 13.7657 0.106114 13.6082 0.106028L13.323 0.10587C13.1655 0.105783 13.0378 0.231834 13.0377 0.387412Z" fill="#212326"/>
<path d="M4.7627 9.11555L6.14805 9.11631L5.74496 8.7177C5.63807 8.61199 5.49302 8.55255 5.34176 8.55246L4.76301 8.55215C2.55802 8.55093 0.771501 6.78425 0.772703 4.60615C0.773904 2.42804 2.56237 0.663336 4.76737 0.66455L9.33021 0.667067C11.5352 0.668284 13.3217 2.43496 13.3205 4.61307C13.3193 6.79117 11.5308 8.55588 9.32586 8.55466L7.61899 8.55372C7.39208 8.5536 7.17452 8.46444 7.01416 8.30587L6.54194 7.83887C6.27468 7.57458 5.91206 7.42598 5.53389 7.42577L4.76364 7.42535C3.18863 7.42448 1.91255 6.16257 1.91341 4.60677C1.91427 3.05098 3.19174 1.79048 4.76674 1.79135L9.32959 1.79387C10.9046 1.79474 12.1807 3.05664 12.1798 4.61244C12.179 6.16823 10.9015 7.42873 9.32648 7.42786L8.23051 7.42726C8.0036 7.42713 7.78604 7.33797 7.62568 7.17941L7.15343 6.71241C6.88617 6.44812 6.52357 6.29952 6.14541 6.29931L4.76426 6.29855C3.81927 6.29803 3.05361 5.54087 3.05412 4.6074C3.05464 3.67394 3.82113 2.91763 4.76612 2.91815L9.32896 2.92067C10.274 2.92119 11.0396 3.67835 11.0391 4.61181C11.0386 5.53389 10.2907 6.28312 9.36159 6.30075L9.36141 6.30108L8.94407 6.30085C8.71716 6.30073 8.49961 6.21157 8.33924 6.05301L7.867 5.586C7.64771 5.36913 7.36423 5.23018 7.06062 5.18717L7.0463 5.17301L4.76488 5.17175C4.44988 5.17157 4.19466 4.91919 4.19483 4.60803C4.19501 4.29688 4.4505 4.04477 4.7655 4.04495L9.32834 4.04747C9.64334 4.04764 9.89856 4.30003 9.89839 4.61118C9.89822 4.92233 9.64272 5.17444 9.32772 5.17426L8.18701 5.17364L8.5901 5.57225C8.697 5.67796 8.84204 5.7374 8.9933 5.73748L9.32741 5.73766C9.9574 5.73801 10.4684 5.2338 10.4687 4.61149C10.4691 3.98919 9.95865 3.48441 9.32865 3.48407L4.76581 3.48155C4.13582 3.4812 3.62482 3.98541 3.62448 4.60772C3.62414 5.23003 4.13458 5.7348 4.76457 5.73515L6.85866 5.7363C7.08557 5.73643 7.30312 5.82559 7.46349 5.98415L7.93574 6.45115C8.203 6.71544 8.56559 6.86404 8.94376 6.86425L9.46938 6.86454L9.46938 6.86022C10.663 6.78817 11.6088 5.80944 11.6095 4.61212C11.6101 3.36751 10.5893 2.35796 9.32928 2.35727L4.76643 2.35475C3.50645 2.35405 2.48446 3.36247 2.48377 4.60709C2.48308 5.85173 3.50396 6.86125 4.76395 6.86195L6.1451 6.86271C6.37201 6.86283 6.58956 6.95199 6.74992 7.11056L7.22217 7.57756C7.48943 7.84185 7.85203 7.99045 8.23019 7.99066L9.32617 7.99126C11.2162 7.99231 12.7491 6.4797 12.7502 4.61275C12.7512 2.7458 11.2199 1.23151 9.3299 1.23047L4.76705 1.22795C2.87706 1.22691 1.34409 2.73951 1.34306 4.60646C1.34203 6.47341 2.87333 7.9877 4.76332 7.98875L5.53358 7.98917C5.76049 7.9893 5.97804 8.07846 6.13841 8.23702L6.61065 8.70402C6.87791 8.96831 7.24051 9.11691 7.61868 9.11712L9.32555 9.11806C11.8455 9.11945 13.8895 7.10264 13.8909 4.61338C13.8922 2.12413 11.8505 0.105058 9.33052 0.103668L4.76768 0.101151C2.24769 0.0997611 0.20372 2.11658 0.202347 4.60583C0.200974 7.09509 2.24272 9.11415 4.7627 9.11555Z" fill="#212326"/>
</g>
<defs>
<clipPath id="clip0_212_1148">
<rect width="13.6885" height="9.0144" fill="white" transform="translate(0.204834 0.0986328) rotate(0.0316117)"/>
</clipPath>
</defs>
</svg>
