<svg width="19" height="7" viewBox="0 0 19 7" fill="none" xmlns="http://www.w3.org/2000/svg">
<g clip-path="url(#clip0_212_1152)">
<path d="M4.81749 0.13533C4.1395 0.134956 3.48913 0.403928 3.00946 0.883075L1.444 2.44681C0.964322 2.92595 0.694634 3.57602 0.69426 4.25402C0.693481 5.66587 1.83737 6.81102 3.24922 6.8118C3.92721 6.81217 4.57758 6.54319 5.05725 6.06404L6.14009 4.9824C6.14009 4.98238 6.14011 4.98242 6.14009 4.9824L9.29511 1.83086C9.5242 1.60202 9.83481 1.47356 10.1586 1.47374C10.7007 1.47404 11.1601 1.82762 11.3192 2.31663L12.3149 1.32201C11.8613 0.610712 11.0655 0.138778 10.1594 0.138278C9.48136 0.137903 8.831 0.406875 8.35132 0.886023L4.11347 5.11921C3.88437 5.34805 3.57376 5.47651 3.24996 5.47633C2.57567 5.47596 2.02935 4.92905 2.02973 4.25475C2.0299 3.93095 2.15871 3.62048 2.3878 3.39164L3.95325 1.82791C4.18234 1.59908 4.49295 1.47062 4.81675 1.4708C5.35889 1.4711 5.81827 1.82469 5.97734 2.31372L6.97308 1.31909C6.51948 0.607778 5.72369 0.13583 4.81749 0.13533Z" fill="#394149"/>
<path d="M9.45541 5.12217C9.22632 5.35101 8.91571 5.47946 8.5919 5.47928C8.04986 5.47899 7.5905 5.1255 7.43138 4.63657L6.43569 5.63116C6.88931 6.34237 7.68505 6.81425 8.59117 6.81475C9.26916 6.81512 9.91953 6.54614 10.3992 6.067L14.6371 1.83381C14.8661 1.60498 15.1768 1.47652 15.5006 1.4767C16.1749 1.47707 16.7212 2.02399 16.7208 2.69828C16.7206 3.02208 16.5918 3.33255 16.3627 3.56139L14.7973 5.12511C14.5682 5.35395 14.2576 5.48241 13.9338 5.48223C13.3917 5.48193 12.9323 5.12838 12.7732 4.6394L11.7775 5.63402C12.2311 6.34529 13.0269 6.8172 13.933 6.8177C14.611 6.81807 15.2614 6.54909 15.7411 6.06994L17.3065 4.50622C17.7862 4.02707 18.0559 3.37701 18.0563 2.69901C18.057 1.28717 16.9132 0.14201 15.5013 0.141231C14.8233 0.140856 14.1729 0.409828 13.6933 0.888976L9.45541 5.12217Z" fill="#394149"/>
</g>
<defs>
<clipPath id="clip0_212_1152">
<rect width="17.3611" height="6.67733" fill="white" transform="translate(0.696533 0.133057) rotate(0.0316117)"/>
</clipPath>
</defs>
</svg>
