<svg width="17" height="11" viewBox="0 0 17 11" fill="none" xmlns="http://www.w3.org/2000/svg">
<g clip-path="url(#clip0_212_1132)">
<path d="M15.3959 1.92849C15.3959 1.93977 15.3959 1.95389 15.3929 1.96235C15.3782 2.07241 15.3781 2.18248 15.3868 2.29538C15.3927 2.32361 15.3986 2.35184 15.4221 2.37443C15.4603 2.41678 15.5191 2.40835 15.5427 2.35756C15.5545 2.33217 15.5545 2.30676 15.5486 2.28136C15.5192 2.17409 15.5134 2.0612 15.5105 1.95113C15.5106 1.94548 15.5106 1.93701 15.5106 1.92855C15.5429 1.92574 15.5723 1.92294 15.5988 1.92295C15.6194 1.92014 15.637 1.91733 15.6517 1.90887C15.6958 1.88632 15.6959 1.83834 15.6488 1.81573C15.6312 1.80725 15.6077 1.80442 15.5871 1.80441C15.5136 1.80719 15.4401 1.80715 15.3665 1.80711C15.3401 1.80709 15.3136 1.8099 15.2871 1.81271C15.2724 1.81552 15.2548 1.81551 15.243 1.82398C15.2224 1.83243 15.2107 1.84653 15.2107 1.86629C15.2136 1.88605 15.2224 1.89734 15.243 1.90582C15.2547 1.9143 15.2694 1.91713 15.2841 1.91713C15.3194 1.91998 15.3577 1.92564 15.3959 1.92849ZM16.2045 2.05876C16.2045 2.06158 16.2074 2.0644 16.2074 2.0644C16.2191 2.14061 16.2309 2.214 16.2396 2.28739C16.2426 2.31279 16.2455 2.33537 16.2631 2.35513C16.3013 2.40313 16.3601 2.39752 16.3866 2.34674C16.3984 2.32134 16.4014 2.29594 16.3955 2.26772C16.3779 2.18304 16.3691 2.09836 16.3515 2.0165C16.3398 1.9657 16.3251 1.91771 16.3104 1.87254C16.3016 1.84432 16.2811 1.82455 16.2458 1.82171C16.2105 1.81604 16.184 1.83296 16.1693 1.85835C16.1516 1.88092 16.1369 1.90349 16.1251 1.92889C16.1045 1.97403 16.0869 2.01918 16.0633 2.0615C16.0604 2.07279 16.0574 2.08126 16.0515 2.08972C16.0486 2.08407 16.0457 2.08125 16.0457 2.08125C16.0075 2.01067 15.9722 1.94009 15.934 1.87234C15.9282 1.86669 15.9252 1.86104 15.9223 1.85539C15.9047 1.82998 15.8841 1.81586 15.8517 1.81584C15.8223 1.81865 15.7988 1.83557 15.7841 1.86096C15.7782 1.87225 15.7782 1.88072 15.7752 1.892C15.7634 1.98231 15.7487 2.07262 15.7369 2.16293C15.7309 2.21373 15.728 2.26452 15.7279 2.31533C15.725 2.32661 15.7279 2.34073 15.7338 2.35202C15.7397 2.3746 15.7573 2.38872 15.7808 2.39156C15.8102 2.3944 15.8308 2.38594 15.8397 2.36337C15.8485 2.34644 15.8515 2.33233 15.8544 2.31822C15.8662 2.26742 15.875 2.21945 15.8839 2.17147C15.8898 2.14325 15.8927 2.12068 15.9016 2.08964C15.9074 2.10093 15.9133 2.1094 15.9192 2.11787C15.9456 2.15175 15.9721 2.18564 16.0044 2.21388C16.0368 2.23647 16.0632 2.23366 16.0897 2.20828C16.0956 2.20264 16.0985 2.19982 16.1044 2.19417C16.1309 2.15468 16.1633 2.11518 16.1898 2.07568C16.1957 2.07004 16.1986 2.0644 16.2045 2.05876Z" fill="#3A3B7B"/>
<path d="M9.42888 1.98063C9.4084 2.03426 9.40448 2.0729 9.4139 2.10502C9.4243 2.1487 9.45135 2.16301 9.48807 2.15193C9.83352 2.07014 10.5908 2.30324 10.8712 2.36825C10.9373 2.3819 10.9911 2.29999 10.946 2.22651C10.8802 2.15533 10.1233 1.85033 9.83448 1.83356C9.72125 1.82736 9.51885 1.79938 9.42888 1.98063Z" fill="#3A3B7B"/>
<path d="M12.3894 0.99626C12.4262 1.01667 12.4468 1.03614 12.4569 1.05788C12.4721 1.08639 12.4641 1.10611 12.4386 1.11617C12.2103 1.22299 11.9062 1.68325 11.7835 1.84198C11.7537 1.8785 11.6852 1.85723 11.6748 1.79715C11.677 1.72923 11.9466 1.22971 12.097 1.09369C12.1561 1.04059 12.2537 0.936389 12.3894 0.99626Z" fill="#3A3B7B"/>
<path d="M10.5714 0.768597C10.6156 0.736631 10.6616 0.725446 10.6851 0.746249C11.0294 1.02919 11.2118 1.47705 11.3247 1.88703C11.3289 1.89658 11.3292 1.91029 11.3258 1.92458C11.3244 1.9368 11.3151 1.9497 11.3003 1.95968C11.2845 1.9707 11.2709 1.97405 11.2645 1.96455C11.1137 1.76737 10.2518 1.00005 10.5714 0.768597Z" fill="#3A3B7B"/>
<path d="M3.27386 5.66679C3.35645 5.60784 3.44624 5.55878 3.54124 5.52072C3.64063 5.49351 3.74654 5.49808 3.84298 5.53378C3.9394 5.56948 4.02112 5.63433 4.07572 5.71855C4.12457 5.80255 4.14364 5.89951 4.13009 5.99483C4.11654 6.09013 4.0711 6.17863 4.00058 6.247C3.94592 6.30242 3.88387 6.35069 3.81608 6.39057C3.51393 6.57768 3.2091 6.75452 2.90428 6.94164C2.8419 6.98847 2.77573 7.03049 2.70641 7.06724C2.60096 7.11764 2.48048 7.13109 2.36579 7.10526C2.2511 7.07945 2.14942 7.01595 2.07833 6.9258C2.02519 6.86196 1.98035 6.79216 1.9448 6.71791C1.65644 6.1354 1.35738 5.55543 1.07972 4.96264C0.951553 4.70604 0.84747 4.41094 0.746053 4.12612C0.702154 4.04335 0.693625 3.94743 0.722284 3.85872C0.750942 3.77001 0.814527 3.69554 0.899512 3.65114C0.984498 3.60674 1.08418 3.59592 1.17736 3.62097C1.27053 3.64602 1.34986 3.70497 1.39845 3.78527C1.54785 3.97605 1.68009 4.17867 1.79372 4.39095C2.08212 4.9042 2.35716 5.41744 2.63487 5.91529C2.65105 5.94281 2.66888 5.96936 2.68829 5.99485C2.89757 5.91053 3.09443 5.80024 3.27386 5.66679Z" fill="#3A3B7B"/>
<path d="M6.25873 5.48941C5.5981 6.23045 4.49158 6.04256 3.93613 5.0879C3.54089 4.4104 3.47202 3.29181 4.33312 2.58678C4.51699 2.43918 4.73682 2.33868 4.97211 2.29467C5.26059 2.25514 5.55472 2.30414 5.81244 2.43468C6.07016 2.56522 6.2783 2.77061 6.40712 3.02149C6.87711 3.84271 6.80971 4.88938 6.25873 5.48941ZM5.99239 3.76012C5.92236 3.55834 5.78174 3.38603 5.59438 3.27245C5.48836 3.19984 5.35951 3.1645 5.22953 3.17237C5.09953 3.18024 4.97635 3.23085 4.88067 3.31567C4.49826 3.64129 4.41763 4.41346 4.69537 4.87283C4.73077 4.94773 4.78276 5.0143 4.84776 5.0679C4.91276 5.12149 4.98918 5.16082 5.07166 5.18309C5.15414 5.20538 5.24069 5.21009 5.32528 5.19691C5.40986 5.18371 5.4904 5.15295 5.56131 5.10676C5.76859 4.95268 5.92072 4.74046 5.99653 4.4996C6.07236 4.25871 6.06811 4.00114 5.98438 3.76269L5.99239 3.76012Z" fill="#3A3B7B"/>
<path d="M8.95407 4.08507C8.88648 4.09899 8.81665 4.09978 8.74871 4.0874C8.6808 4.07502 8.61612 4.04974 8.55853 4.01303C8.50813 3.98532 8.46475 3.94725 8.43151 3.90153C8.39829 3.8558 8.37603 3.8036 8.36636 3.74862C8.35666 3.69367 8.35981 3.63734 8.3755 3.58368C8.39123 3.53002 8.41916 3.48037 8.45727 3.4383C8.52367 3.35375 8.6179 3.29324 8.72466 3.26656C9.00341 3.18908 9.29035 3.14191 9.5801 3.12594C9.64377 3.11887 9.70826 3.12407 9.76978 3.14125C9.83133 3.15845 9.88865 3.18724 9.93844 3.226C9.98821 3.26473 10.0294 3.31264 10.0597 3.36687C10.0899 3.42111 10.1085 3.4806 10.1145 3.54184C10.1978 3.84269 10.2068 4.15809 10.1407 4.46287C9.89958 5.44787 9.07076 5.78604 8.14073 5.46998C7.87966 5.38547 7.65081 5.22814 7.48342 5.0181C7.26016 4.76514 7.10193 4.46542 7.02147 4.14302C6.95631 3.85593 6.96362 3.55808 7.04284 3.27428C7.12204 2.99049 7.27083 2.72899 7.47678 2.51163C7.67225 2.27536 7.92589 2.08948 8.21484 1.97072C8.39743 1.87425 8.61105 1.84691 8.81363 1.89408C8.85958 1.90632 8.90128 1.93013 8.93442 1.96304C8.96756 1.99596 8.99091 2.03679 9.00208 2.08129C9.01324 2.12579 9.01178 2.17235 8.99788 2.21613C8.98395 2.25991 8.95811 2.29932 8.92299 2.33027C8.8562 2.38823 8.78365 2.43975 8.70638 2.48408C8.46866 2.6292 8.26176 2.81625 8.09663 3.03532C7.98839 3.17708 7.91381 3.3399 7.87816 3.51229C7.84249 3.68467 7.84663 3.86248 7.89027 4.03319C7.95076 4.26595 8.08516 4.47491 8.27484 4.63114C8.86261 5.14458 9.62736 4.64985 9.4941 3.9494C9.29896 3.99548 9.12785 4.04413 8.95407 4.08507Z" fill="#3A3B7B"/>
<path d="M12.5459 5.53391C11.6769 6.04654 10.6881 5.53288 10.4722 4.45528C10.3149 3.68555 10.6149 2.60821 11.663 2.19831C11.8859 2.11298 12.1278 2.0831 12.366 2.11147C12.6522 2.16192 12.9147 2.29731 13.1165 2.49856C13.3183 2.69981 13.4492 2.95676 13.4907 3.23321C13.6666 4.14917 13.2651 5.1264 12.5459 5.53391ZM12.8489 3.80751C12.8487 3.59439 12.7703 3.38812 12.6273 3.22503C12.5509 3.12416 12.4404 3.05186 12.3147 3.02043C12.1889 2.98903 12.0557 3.00044 11.9378 3.05277C11.4672 3.24747 11.1354 3.95536 11.2554 4.47624C11.2645 4.55797 11.2922 4.63681 11.3363 4.70722C11.3805 4.77764 11.4402 4.83795 11.5112 4.88393C11.5822 4.92989 11.6628 4.96044 11.7474 4.9734C11.832 4.98634 11.9185 4.98142 12.0009 4.95895C12.2496 4.87571 12.465 4.72001 12.617 4.51358C12.769 4.30715 12.8501 4.0603 12.8489 3.80751Z" fill="#3A3B7B"/>
<path d="M14.3677 5.75044C14.3545 5.84433 14.303 5.92935 14.2246 5.9868C14.1461 6.04424 14.047 6.06942 13.9492 6.05678C13.8514 6.04414 13.7628 5.99471 13.7029 5.91938C13.6431 5.84407 13.6168 5.74899 13.63 5.6551C13.6432 5.56122 13.6947 5.4762 13.7731 5.41874C13.8516 5.36129 13.9507 5.33612 14.0485 5.34876C14.1463 5.3614 14.2349 5.41081 14.2948 5.48614C14.3546 5.56148 14.3809 5.65655 14.3677 5.75044ZM14.137 2.28947C14.1879 2.21498 14.2625 2.15827 14.3498 2.12781C14.437 2.09734 14.5321 2.09475 14.621 2.12042C14.7113 2.14217 14.7911 2.19304 14.847 2.26453C14.903 2.33602 14.9316 2.42378 14.9281 2.51311C14.9163 2.65639 14.8939 2.79869 14.8611 2.93893C14.7726 3.41351 14.6868 3.88806 14.593 4.3575C14.5501 4.54476 14.4939 4.72431 14.4323 4.91412C14.4109 4.97345 14.3751 5.02706 14.328 5.07056C14.2987 5.10328 14.2612 5.12837 14.2191 5.14351C14.177 5.15867 14.1316 5.16337 14.0871 5.15721C14.0426 5.15105 14.0005 5.13421 13.9645 5.10827C13.9286 5.08231 13.9001 5.04807 13.8816 5.00874C13.8499 4.93818 13.8327 4.86236 13.831 4.78552C13.8311 4.46739 13.8313 4.14672 13.8529 3.82603C13.8895 3.36839 13.9612 2.91396 14.0675 2.46645C14.08 2.4065 14.1035 2.34917 14.137 2.29717L14.137 2.28947Z" fill="#3A3B7B"/>
<path fill-rule="evenodd" clip-rule="evenodd" d="M2.14345 7.80523C2.11186 7.87284 2.10316 7.94822 2.11854 8.02078C2.12875 8.11642 2.15123 8.2105 2.18548 8.30087C2.22824 8.41154 2.2761 8.52097 2.3351 8.65585C2.34867 8.68688 2.36285 8.71928 2.37769 8.75338C2.45727 8.9361 2.55711 9.16963 2.69027 9.50759C2.72796 9.6036 2.76142 9.70039 2.79512 9.79785C2.80873 9.83722 2.82239 9.87673 2.83637 9.91632C2.8865 10.0571 2.97282 10.1836 3.08726 10.2839C3.13586 10.339 3.20033 10.3791 3.27263 10.3992C3.34635 10.4197 3.42476 10.4185 3.49772 10.3956C3.57068 10.3728 3.63477 10.3294 3.68167 10.2711C3.72766 10.2139 3.75502 10.145 3.76038 10.073C3.79027 9.93276 3.78017 9.78732 3.73111 9.65207C3.65324 9.42752 3.56453 9.20262 3.46221 8.98265L3.46174 8.98168C3.2934 8.63752 3.12228 8.29573 2.94305 7.95381L2.94171 7.95141C2.88924 7.86233 2.82102 7.78268 2.74014 7.71605C2.68763 7.65658 2.61519 7.61645 2.53517 7.60259C2.45344 7.58844 2.36914 7.60261 2.29731 7.64259C2.22935 7.67979 2.17547 7.73673 2.14345 7.80523Z" fill="#3A3B7B"/>
<path fill-rule="evenodd" clip-rule="evenodd" d="M4.71791 6.95951C4.4537 6.89368 4.17773 6.88396 3.90924 6.93103C3.70129 6.95057 3.49676 6.99649 3.3547 7.0876C3.28245 7.13397 3.22402 7.19352 3.1915 7.26925C3.15879 7.34539 3.15458 7.43248 3.18129 7.52954C3.23006 7.70732 3.29342 7.88018 3.35657 8.05249L3.3668 8.0804L3.36704 8.08101C3.55717 8.5816 3.74912 9.08049 3.94282 9.57766C3.9654 9.65601 3.99734 9.73159 4.03801 9.80289L4.03877 9.80421C4.0925 9.89279 4.16144 9.97202 4.24266 10.0386C4.28328 10.0752 4.33352 10.1005 4.38801 10.1119C4.44304 10.1233 4.50027 10.12 4.55348 10.1024C4.6067 10.0847 4.65384 10.0534 4.68978 10.0118C4.72513 9.97083 4.74829 9.92151 4.75681 9.86901C4.79195 9.7264 4.7808 9.57687 4.72484 9.4405C4.70738 9.39461 4.69368 9.34771 4.67925 9.29834C4.67444 9.28188 4.66956 9.26513 4.66442 9.24807C5.10852 9.08174 5.58108 8.85802 5.74749 8.33703C5.81265 8.157 5.81818 7.96202 5.76331 7.77882C5.7084 7.59543 5.59563 7.43284 5.44052 7.31344C5.22943 7.14631 4.9828 7.0255 4.71791 6.95951ZM3.98509 7.59824C3.99384 7.59582 4.00265 7.59358 4.01148 7.5915C4.30057 7.54804 4.59628 7.60632 4.84417 7.75556C4.95341 7.82857 4.99814 7.90964 5.00578 7.98763C5.01367 8.06793 4.9832 8.15492 4.92205 8.23852C4.80649 8.39645 4.59571 8.5228 4.40535 8.54626C4.26676 8.23948 4.12603 7.92029 3.98509 7.59824Z" fill="#3A3B7B"/>
<path d="M6.48001 6.399C6.79478 6.25968 7.18459 6.2358 7.48956 6.33405C7.56638 6.35557 7.63299 6.40205 7.67804 6.46556C7.72279 6.52868 7.74342 6.60471 7.73647 6.68072C7.736 6.73005 7.72335 6.77859 7.69959 6.82236C7.6754 6.86693 7.64038 6.90524 7.59751 6.93409C7.55463 6.96292 7.50515 6.98144 7.45325 6.98803C7.40133 6.99465 7.34854 6.98916 7.2993 6.97204L7.29556 6.97074L7.29204 6.96895C7.26685 6.95629 7.24009 6.94674 7.21241 6.94052L7.21066 6.94015C6.99611 6.88533 6.79366 6.97585 6.71967 7.08718C6.68438 7.14026 6.67998 7.19386 6.70932 7.24264C6.74074 7.29487 6.81784 7.35351 6.97391 7.39536C7.01683 7.4067 7.06083 7.41764 7.10545 7.42875C7.22886 7.45949 7.35712 7.49143 7.48112 7.53566C8.05322 7.74493 8.26652 8.178 8.19335 8.585C8.12097 8.9875 7.77051 9.35364 7.24373 9.43976C7.05205 9.48043 6.85259 9.47238 6.6651 9.4164C6.47715 9.36025 6.30775 9.2579 6.17376 9.11946L6.17026 9.11585C6.12797 9.0637 6.09953 9.00244 6.08695 8.93746C6.07537 8.87881 6.08152 8.81821 6.10464 8.76279C6.12763 8.70771 6.16648 8.66004 6.2166 8.62532C6.26955 8.58596 6.33336 8.56237 6.40014 8.55747C6.4667 8.5526 6.53329 8.56653 6.59171 8.5975C6.65007 8.6246 6.70435 8.65915 6.75306 8.70024L6.75398 8.70099C6.84015 8.77671 6.94444 8.79648 7.04448 8.77827C7.14597 8.7598 7.24143 8.70222 7.30285 8.62579C7.36386 8.54984 7.38839 8.45959 7.35939 8.37195C7.3302 8.28368 7.24236 8.18474 7.04929 8.10196C6.99882 8.08136 6.94648 8.06474 6.89204 8.04855C6.87736 8.04419 6.86243 8.03985 6.84733 8.03544C6.80707 8.02369 6.76565 8.01158 6.72504 7.99825C6.69707 7.98908 6.66932 7.98039 6.64185 7.97177C6.56674 7.94825 6.49352 7.92533 6.42306 7.89459C6.26969 7.84438 6.13721 7.74806 6.04535 7.61987C5.95311 7.49118 5.90675 7.33732 5.91315 7.18127C5.91386 6.80096 6.16357 6.53908 6.48001 6.399Z" fill="#3A3B7B"/>
<path d="M10.4697 6.36074C10.4087 6.3321 10.3412 6.31848 10.2734 6.32111C10.2055 6.32376 10.1394 6.34255 10.081 6.37586C10.023 6.40892 9.97445 6.45524 9.93963 6.51069C9.90771 6.55739 9.8856 6.60962 9.87456 6.66447C9.86353 6.71928 9.86376 6.77561 9.87523 6.8303C9.88656 6.90059 9.89912 6.96894 9.91152 7.03635C9.93206 7.14791 9.95204 7.25695 9.96521 7.36813L9.9657 7.37094C9.99571 7.5453 10.0114 7.72164 10.0127 7.89834L10.0128 7.90085C10.023 8.09168 9.95516 8.27875 9.82383 8.42237L9.82174 8.42492C9.77901 8.47742 9.72189 8.51748 9.65676 8.54062C9.59165 8.56375 9.52112 8.56904 9.45305 8.55589C9.38497 8.54273 9.32207 8.51167 9.27134 8.46616C9.22062 8.42065 9.18404 8.36231 9.16581 8.29803C9.12688 8.16252 9.10438 8.02315 9.09872 7.88272L9.1659 6.86474C9.1669 6.85145 9.16802 6.83781 9.16918 6.82404C9.17173 6.79312 9.17434 6.76163 9.17544 6.73226C9.17703 6.68904 9.17571 6.64459 9.16524 6.60251C9.15453 6.55951 9.13413 6.51859 9.09792 6.48374C9.06207 6.44923 9.01367 6.42377 8.95275 6.40642C8.84259 6.37575 8.74942 6.37667 8.67178 6.40824C8.59408 6.43982 8.54083 6.4985 8.50314 6.5663C8.46573 6.63353 8.44168 6.71313 8.42348 6.79286C8.40997 6.85203 8.39911 6.91414 8.38879 6.97326C8.38521 6.99363 8.38173 7.01364 8.3782 7.03306C8.32296 7.3573 8.3063 7.6871 8.32872 8.01494C8.33284 8.1921 8.37123 8.36699 8.44198 8.53068C8.52178 8.74188 8.66642 8.92491 8.85682 9.05562C9.04763 9.18658 9.27537 9.25882 9.50989 9.26276C9.74441 9.26669 9.97464 9.20215 10.1701 9.07769C10.3652 8.9534 10.5165 8.7752 10.6039 8.56666C10.7262 8.30102 10.7837 8.01209 10.772 7.72188C10.7649 7.51001 10.753 7.29652 10.7412 7.0841C10.7354 6.9799 10.7296 6.87593 10.7244 6.77259C10.7218 6.66897 10.6863 6.56858 10.6225 6.48491C10.5831 6.43201 10.5306 6.38933 10.4697 6.36074Z" fill="#3A3B7B"/>
<path d="M12.6284 7.95823C12.6222 7.96577 12.6157 7.97358 12.6089 7.9817C12.5594 7.70687 12.5136 7.43214 12.4677 7.15699C12.4512 7.05826 12.4346 6.95912 12.418 6.86027L12.4161 6.84924L12.41 6.83971C12.3985 6.82177 12.3974 6.80419 12.3974 6.76669L12.3974 6.76236L12.3967 6.75807C12.3843 6.68062 12.3478 6.60854 12.2921 6.55125C12.2366 6.49412 12.1644 6.45434 12.085 6.43704C12.0057 6.41823 11.9224 6.42232 11.8455 6.44881C11.7688 6.47524 11.702 6.52278 11.6533 6.58547C11.6128 6.63357 11.5796 6.68694 11.5548 6.74396C11.4983 6.8668 11.4414 6.98995 11.3843 7.11344L11.3833 7.11557C11.2407 7.42384 11.0972 7.73419 10.9579 8.04698L10.9575 8.04799C10.8719 8.2508 10.8013 8.46452 10.7309 8.67757C10.7168 8.7201 10.7028 8.76261 10.6886 8.805C10.6632 8.87224 10.6521 8.94366 10.6558 9.01507C10.6512 9.07899 10.6671 9.14277 10.7015 9.19778C10.7365 9.25391 10.789 9.29808 10.8515 9.3241C10.9178 9.35204 10.992 9.358 11.0622 9.34105C11.1323 9.32412 11.1945 9.28534 11.2391 9.23079C11.2961 9.1636 11.3451 9.09031 11.3851 9.01265C11.5031 8.78127 11.6159 8.54707 11.7282 8.31388C11.7717 8.22368 11.8139 8.14291 11.8619 8.05493C11.8652 8.06578 11.8686 8.07637 11.872 8.08698C11.9222 8.29946 12.0069 8.50301 12.1232 8.69016C12.1451 8.7298 12.1758 8.76446 12.213 8.79174C12.2506 8.81936 12.2941 8.83874 12.3403 8.8486C12.3866 8.85847 12.4345 8.85854 12.4808 8.84881C12.527 8.83911 12.5706 8.81975 12.6083 8.79231L12.6829 8.73877L13.262 8.27111L13.2277 8.48047C13.1805 8.76824 13.1337 9.05362 13.0841 9.33906C13.0516 9.46557 13.0515 9.59773 13.084 9.72424C13.098 9.79543 13.1338 9.86098 13.1869 9.91254C13.2404 9.96453 13.3089 9.99986 13.3836 10.014C13.4583 10.0281 13.5357 10.0203 13.6057 9.99171C13.6747 9.96351 13.7334 9.91632 13.7745 9.85616C13.87 9.74256 13.9295 9.605 13.9459 9.45984C13.9706 9.25486 13.9984 9.04708 14.0263 8.83937C14.0584 8.59995 14.0906 8.3606 14.1177 8.12585C14.1439 7.86887 14.1567 7.6101 14.1559 7.35189C14.1617 7.2703 14.1406 7.189 14.0955 7.11951C14.0503 7.04977 13.9833 6.99554 13.9041 6.96449C13.8217 6.92849 13.7294 6.91882 13.6409 6.93695C13.553 6.95494 13.4733 6.99939 13.4136 7.06381C13.3068 7.15853 13.2065 7.25989 13.1136 7.36725C13.0121 7.4885 12.9106 7.61286 12.8105 7.7357C12.7496 7.81038 12.6888 7.88487 12.6284 7.95823Z" fill="#3A3B7B"/>
</g>
<defs>
<clipPath id="clip0_212_1132">
<rect width="15.6917" height="9.68213" fill="white" transform="translate(0.70752 0.730225) rotate(0.0316117)"/>
</clipPath>
</defs>
</svg>
