<svg width="28" height="19" viewBox="0 0 28 19" fill="none" xmlns="http://www.w3.org/2000/svg">
<g clip-path="url(#clip0_212_1128)" filter="url(#filter0_d_212_1128)">
<path d="M23.236 3.93406C23.2379 3.92014 23.2379 3.90607 23.236 3.89215C23.2378 3.8808 23.2378 3.86924 23.236 3.85787L23.1005 2.87868C23.081 2.76153 23.0285 2.65201 22.9491 2.56238L22.9258 2.5357L22.8831 2.49377L20.5293 0.503768L20.5953 0.568576C20.5413 0.50515 20.4735 0.454405 20.3968 0.420078C20.3202 0.38575 20.2366 0.368712 20.1524 0.370222L19.4374 0.369827C19.3211 0.367505 19.2074 0.403684 19.1147 0.472515C19.0175 0.403994 18.9004 0.367873 18.7806 0.369465L18.0656 0.369071C17.9718 0.367527 17.8793 0.390294 17.7974 0.435072C17.7154 0.479849 17.647 0.545049 17.5991 0.624066C17.5252 0.736924 17.4974 0.872933 17.5212 1.005L17.6102 1.62223C17.551 1.58929 17.484 1.57218 17.4159 1.5726L13.9534 1.57069C13.8292 1.57139 13.7078 1.60702 13.6036 1.67336C13.5029 1.73511 13.422 1.82356 13.3703 1.92848L13.1023 1.70356C12.9968 1.60777 12.8576 1.55581 12.7138 1.55858L7.28107 1.55558C7.1564 1.55774 7.03448 1.59181 6.92739 1.65444C6.78089 1.7384 6.67348 1.87498 6.62795 2.03525L4.89941 7.69181C4.86712 7.78502 4.8639 7.88555 4.89015 7.98057C4.9164 8.07556 4.97093 8.16078 5.04679 8.22527C5.06656 8.24171 5.08731 8.257 5.10894 8.271C5.10894 8.271 5.07398 8.24812 5.05456 8.22908L7.40842 10.2229C7.50799 10.3129 7.63821 10.3632 7.77361 10.364L13.2491 10.3671C13.3741 10.3639 13.4962 10.3285 13.6028 10.2644C13.6631 10.2321 13.7171 10.1896 13.7622 10.1388L13.7816 10.1121L13.8127 10.074L13.8361 10.0321L14.0924 10.2494C14.1906 10.3358 14.318 10.3834 14.4499 10.383L19.937 10.386C20.0619 10.382 20.1837 10.3466 20.2907 10.2833C20.3497 10.2491 20.4033 10.2068 20.4501 10.1577L20.4695 10.131L20.5006 10.093C20.5172 10.0689 20.5315 10.0434 20.5434 10.0168C20.5561 9.99369 20.5666 9.96946 20.5746 9.94442L22.1513 4.77924L22.1513 4.73352C22.1532 4.71579 22.1533 4.69791 22.1513 4.68018L22.1513 4.6459C22.1532 4.63454 22.1532 4.62297 22.1514 4.6116C22.1531 4.58751 22.1531 4.56332 22.1514 4.53921L22.6566 4.53949C22.7005 4.54347 22.7448 4.54349 22.7887 4.53956L22.8237 4.53958C22.8521 4.53128 22.8795 4.51978 22.9053 4.50534L22.9442 4.50536L23.0142 4.45207L23.0453 4.42922L23.0997 4.36067L23.0997 4.33783L23.1386 4.27308C23.1365 4.26048 23.1365 4.24758 23.1386 4.23499C23.1366 4.2288 23.1366 4.22212 23.1386 4.21593C23.1469 4.1936 23.1534 4.17067 23.1581 4.14736C23.1563 4.13985 23.1563 4.13201 23.1581 4.1245C23.1563 4.11316 23.1563 4.10156 23.1582 4.09022C23.1582 4.09022 23.236 3.94168 23.236 3.93406Z" fill="black"/>
<path d="M12.8728 1.99301C12.8934 2.01131 12.9078 2.03536 12.914 2.06193C12.9203 2.08851 12.9181 2.11631 12.9077 2.14161L11.1831 7.79436C11.1613 7.85607 11.117 7.90765 11.0586 7.93907C11.0111 7.97017 10.9562 7.98852 10.8992 7.99232L5.42768 7.9893C5.38095 7.98707 5.33669 7.96807 5.30335 7.9359C5.28351 7.91788 5.2696 7.89449 5.26338 7.86872C5.25717 7.84292 5.25894 7.81591 5.26846 7.7911L6.99699 2.13834C7.0169 2.07585 7.05989 2.02289 7.11754 1.98983C7.1658 1.96097 7.22048 1.944 7.27689 1.94039L12.7485 1.94341C12.7948 1.94387 12.8393 1.96161 12.8728 1.99301ZM10.014 6.6546L11.0456 3.2797L8.16219 3.27811L7.13439 6.65301L10.014 6.6546ZM18.0956 2.05303C18.1143 2.07431 18.1376 2.09119 18.1639 2.10242C18.1901 2.11365 18.2186 2.11893 18.2472 2.11788L18.9583 2.11827C18.9854 2.11855 19.0121 2.11205 19.0359 2.0994C19.0597 2.08675 19.0798 2.06836 19.0944 2.04596C19.107 2.02847 19.1159 2.00867 19.1206 1.98773C19.1253 1.96679 19.1256 1.94514 19.1216 1.92407L18.9823 0.918211C18.969 0.871654 18.9451 0.828657 18.9124 0.792449C18.8937 0.771169 18.8704 0.75429 18.8442 0.743062C18.818 0.731835 18.7895 0.726551 18.7609 0.727599L18.0497 0.727207C18.0227 0.726934 17.996 0.73343 17.9722 0.746082C17.9484 0.758734 17.9282 0.777125 17.9137 0.79952C17.8865 0.85284 17.8748 0.887121 17.8864 0.917606L18.0297 1.92347C18.037 1.97244 18.0601 2.01784 18.0956 2.05303ZM20.3541 0.911348C20.3408 0.864788 20.3169 0.821792 20.2842 0.785586C20.2663 0.764385 20.2437 0.74751 20.2181 0.736263C20.1925 0.725019 20.1646 0.719705 20.1366 0.720738L19.4215 0.720344C19.3949 0.719586 19.3685 0.725906 19.3453 0.738636C19.322 0.751366 19.3027 0.770035 19.2894 0.792657C19.2635 0.826441 19.2523 0.86889 19.2582 0.910743L19.4014 1.9166C19.4104 1.96506 19.4333 2.01001 19.4674 2.04617C19.4864 2.06703 19.5098 2.08363 19.536 2.09482C19.5621 2.10601 19.5904 2.11154 19.6189 2.11102L20.334 2.11141C20.3606 2.11177 20.3867 2.10528 20.4099 2.09259C20.4331 2.0799 20.4525 2.06146 20.4662 2.0391C20.4797 2.02207 20.4891 2.00227 20.4939 1.98118C20.4986 1.96009 20.4984 1.93823 20.4934 1.9172L20.3541 0.911348ZM17.4698 2.43367L17.4001 1.93836L13.9532 1.93645C13.899 1.93935 13.8467 1.95642 13.8016 1.9859C13.7729 2.00118 13.748 2.02238 13.7285 2.04802C13.7091 2.07366 13.6955 2.10314 13.6888 2.13442L13.4007 3.07907C13.3892 3.10268 13.3853 3.12917 13.3894 3.15502C13.3936 3.18086 13.4056 3.20485 13.4239 3.22387C13.4567 3.25409 13.4995 3.27171 13.5444 3.27346L17.7336 3.27578L16.7019 6.65067L12.5244 6.64837C12.4705 6.64954 12.418 6.66534 12.3728 6.69398C12.3178 6.72818 12.2776 6.78107 12.26 6.84251L11.968 7.78718C11.9585 7.81141 11.956 7.83775 11.9608 7.8633C11.9656 7.88887 11.9775 7.91261 11.9951 7.93195C12.0269 7.9642 12.07 7.9833 12.1156 7.98535L17.6027 7.98838C17.6595 7.98363 17.7142 7.96536 17.7621 7.93513C17.8195 7.90356 17.8625 7.85188 17.8826 7.79044L19.4632 2.62525L17.6873 2.62427C17.6591 2.6248 17.6311 2.61966 17.6051 2.60916C17.579 2.59866 17.5554 2.58303 17.5358 2.56323C17.5037 2.52867 17.481 2.48673 17.4698 2.44129L17.4698 2.43367Z" fill="white"/>
</g>
<defs>
<filter id="filter0_d_212_1128" x="0.871094" y="0.361694" width="26.3682" height="18.0261" filterUnits="userSpaceOnUse" color-interpolation-filters="sRGB">
<feFlood flood-opacity="0" result="BackgroundImageFix"/>
<feColorMatrix in="SourceAlpha" type="matrix" values="0 0 0 0 0 0 0 0 0 0 0 0 0 0 0 0 0 0 127 0" result="hardAlpha"/>
<feOffset dy="4"/>
<feGaussianBlur stdDeviation="2"/>
<feComposite in2="hardAlpha" operator="out"/>
<feColorMatrix type="matrix" values="0 0 0 0 0 0 0 0 0 0 0 0 0 0 0 0 0 0 0.25 0"/>
<feBlend mode="normal" in2="BackgroundImageFix" result="effect1_dropShadow_212_1128"/>
<feBlend mode="normal" in="SourceGraphic" in2="effect1_dropShadow_212_1128" result="shape"/>
</filter>
<clipPath id="clip0_212_1128">
<rect width="18.3627" height="10.016" fill="white" transform="translate(4.87671 0.361694) rotate(0.0316117)"/>
</clipPath>
</defs>
</svg>
