<svg width="63" height="63" viewBox="0 0 63 63" fill="none" xmlns="http://www.w3.org/2000/svg">
<circle cx="31.5" cy="31.5" r="31.5" fill="black"/>
<path d="M54.4523 37.6508C53.9907 37.6508 53.6112 37.506 53.3137 37.2165C53.0264 36.9158 52.8828 36.5484 52.8828 36.1141C52.8828 35.6686 53.0264 35.2956 53.3137 34.9949C53.6112 34.6943 53.9907 34.5439 54.4523 34.5439C54.9037 34.5439 55.273 34.6943 55.5602 34.9949C55.8577 35.2956 56.0065 35.6686 56.0065 36.1141C56.0065 36.5484 55.8577 36.9158 55.5602 37.2165C55.273 37.506 54.9037 37.6508 54.4523 37.6508Z" fill="white"/>
<path d="M41.7266 33.1708C41.7266 32.2998 41.8981 31.5272 42.241 30.8532C42.5944 30.1791 43.0725 29.6606 43.6753 29.2977C44.2781 28.9347 44.9485 28.7532 45.6864 28.7532C46.2476 28.7532 46.7829 28.8777 47.2922 29.1265C47.8014 29.3651 48.2068 29.6865 48.5082 30.091V26H50.7219V37.5107H48.5082V36.2352C48.2379 36.6603 47.8586 37.0026 47.3701 37.2618C46.8816 37.5211 46.3152 37.6507 45.6708 37.6507C44.9433 37.6507 44.2781 37.464 43.6753 37.0907C43.0725 36.7174 42.5944 36.1937 42.241 35.5196C41.8981 34.8352 41.7266 34.0523 41.7266 33.1708ZM48.5238 33.202C48.5238 32.6731 48.4198 32.222 48.212 31.8487C48.0041 31.465 47.7235 31.1746 47.3701 30.9776C47.0167 30.7702 46.6374 30.6665 46.232 30.6665C45.8267 30.6665 45.4525 30.765 45.1096 30.962C44.7666 31.1591 44.486 31.4494 44.2677 31.8331C44.0599 32.2064 43.9559 32.6523 43.9559 33.1708C43.9559 33.6893 44.0599 34.1456 44.2677 34.5397C44.486 34.9234 44.7666 35.2189 45.1096 35.4263C45.4629 35.6337 45.8371 35.7374 46.232 35.7374C46.6374 35.7374 47.0167 35.6389 47.3701 35.4419C47.7235 35.2345 48.0041 34.9441 48.212 34.5708C48.4198 34.1871 48.5238 33.7308 48.5238 33.202Z" fill="white"/>
<path d="M36.7705 28.7686C37.7994 28.7686 38.6309 29.0952 39.2649 29.7485C39.8988 30.3915 40.2158 31.2936 40.2158 32.4551V37.5105H38.0332V32.7506C38.0332 32.0662 37.8618 31.5425 37.5188 31.1796C37.1758 30.8063 36.7081 30.6196 36.1157 30.6196C35.5129 30.6196 35.0348 30.8063 34.6814 31.1796C34.3384 31.5425 34.167 32.0662 34.167 32.7506V37.5105H31.9844V28.893H34.167V29.9663C34.458 29.593 34.8269 29.3026 35.2738 29.0952C35.7311 28.8774 36.23 28.7686 36.7705 28.7686Z" fill="white"/>
<path d="M30.3791 33.015C30.3791 33.3261 30.3583 33.6061 30.3167 33.855H24.0028C24.0548 34.4772 24.2731 34.9646 24.6576 35.3171C25.0422 35.6697 25.515 35.846 26.0763 35.846C26.887 35.846 27.4638 35.4986 27.8068 34.8038H30.1608C29.9114 35.6334 29.4333 36.3178 28.7266 36.8571C28.0198 37.3859 27.152 37.6504 26.1231 37.6504C25.2916 37.6504 24.5433 37.4689 23.8781 37.106C23.2233 36.7326 22.7089 36.2089 22.3347 35.5349C21.9709 34.8608 21.7891 34.0831 21.7891 33.2017C21.7891 32.3098 21.9709 31.5269 22.3347 30.8529C22.6985 30.1788 23.2077 29.6603 23.8625 29.2974C24.5173 28.9344 25.2708 28.7529 26.1231 28.7529C26.9441 28.7529 27.6768 28.9292 28.3212 29.2818C28.976 29.6344 29.4801 30.1373 29.8334 30.7906C30.1972 31.4336 30.3791 32.175 30.3791 33.015ZM28.1186 32.3928C28.1082 31.8328 27.9055 31.3869 27.5106 31.0551C27.1156 30.7129 26.6323 30.5418 26.0607 30.5418C25.5202 30.5418 25.0629 30.7077 24.6888 31.0395C24.325 31.361 24.1016 31.8121 24.0184 32.3928H28.1186Z" fill="white"/>
<path d="M20.1982 26V37.5107H18.0156V26H20.1982Z" fill="white"/>
<path d="M14.1736 31.942C14.7868 32.0561 15.2909 32.362 15.6858 32.8598C16.0808 33.3575 16.2782 33.9279 16.2782 34.5708C16.2782 35.1515 16.1327 35.6648 15.8417 36.1107C15.5611 36.5463 15.1506 36.8885 14.6101 37.1374C14.0697 37.3863 13.4305 37.5107 12.6926 37.5107H8V26.6533H12.4899C13.2278 26.6533 13.8618 26.7726 14.3919 27.0111C14.9323 27.2496 15.3376 27.5814 15.6079 28.0066C15.8885 28.4318 16.0288 28.914 16.0288 29.4532C16.0288 30.0858 15.8573 30.6147 15.5143 31.0398C15.1817 31.465 14.7348 31.7657 14.1736 31.942ZM10.1826 31.1332H12.1781C12.6978 31.1332 13.0979 31.0191 13.3785 30.7909C13.6591 30.5524 13.7994 30.2154 13.7994 29.7799C13.7994 29.3443 13.6591 29.0073 13.3785 28.7688C13.0979 28.5303 12.6978 28.411 12.1781 28.411H10.1826V31.1332ZM12.3808 35.7374C12.9108 35.7374 13.3213 35.613 13.6124 35.3641C13.9138 35.1152 14.0645 34.7626 14.0645 34.3064C14.0645 33.8397 13.9086 33.4768 13.5968 33.2175C13.285 32.9479 12.864 32.8131 12.334 32.8131H10.1826V35.7374H12.3808Z" fill="white"/>
</svg>
