<svg width="90" height="14" viewBox="0 0 90 14" fill="none" xmlns="http://www.w3.org/2000/svg">
<g clip-path="url(#clip0_1_384)">
<path d="M8.96734 5.37653C8.81266 5.37653 8.64847 5.25716 8.60055 5.11006L7.08657 0.450738C7.03866 0.303611 6.96134 0.303611 6.91342 0.450738L5.39971 5.11006C5.3518 5.25719 5.18761 5.37653 5.03293 5.37653H0.133748C-0.020929 5.37653 -0.045025 5.45023 0.0802123 5.54131L4.04351 8.42046C4.16875 8.51153 4.23152 8.70458 4.1836 8.8517L2.66993 13.5108C2.62202 13.6579 2.68479 13.7035 2.81003 13.6125L6.77332 10.7333C6.89856 10.6423 7.10146 10.6423 7.2267 10.7333L11.19 13.6128C11.3152 13.7038 11.378 13.6582 11.3301 13.511L9.81639 8.85198C9.76847 8.70485 9.83124 8.51181 9.95648 8.42073L13.9198 5.54159C14.045 5.45051 14.0209 5.37681 13.8662 5.37681H8.96734V5.37653Z" fill="#C2C00C"/>
</g>
<g clip-path="url(#clip1_1_384)">
<path d="M27.9673 5.37653C27.8127 5.37653 27.6485 5.25716 27.6006 5.11006L26.0866 0.450738C26.0387 0.303611 25.9613 0.303611 25.9134 0.450738L24.3997 5.11006C24.3518 5.25719 24.1876 5.37653 24.0329 5.37653H19.1337C18.9791 5.37653 18.955 5.45023 19.0802 5.54131L23.0435 8.42046C23.1687 8.51153 23.2315 8.70458 23.1836 8.8517L21.6699 13.5108C21.622 13.6579 21.6848 13.7035 21.81 13.6125L25.7733 10.7333C25.8986 10.6423 26.1015 10.6423 26.2267 10.7333L30.19 13.6128C30.3152 13.7038 30.378 13.6582 30.3301 13.511L28.8164 8.85198C28.7685 8.70485 28.8312 8.51181 28.9565 8.42073L32.9198 5.54159C33.045 5.45051 33.0209 5.37681 32.8662 5.37681H27.9673V5.37653Z" fill="#C2C00C"/>
</g>
<g clip-path="url(#clip2_1_384)">
<path d="M46.9673 5.37653C46.8127 5.37653 46.6485 5.25716 46.6006 5.11006L45.0866 0.450738C45.0387 0.303611 44.9613 0.303611 44.9134 0.450738L43.3997 5.11006C43.3518 5.25719 43.1876 5.37653 43.0329 5.37653H38.1337C37.9791 5.37653 37.955 5.45023 38.0802 5.54131L42.0435 8.42046C42.1687 8.51153 42.2315 8.70458 42.1836 8.8517L40.6699 13.5108C40.622 13.6579 40.6848 13.7035 40.81 13.6125L44.7733 10.7333C44.8986 10.6423 45.1015 10.6423 45.2267 10.7333L49.19 13.6128C49.3152 13.7038 49.378 13.6582 49.3301 13.511L47.8164 8.85198C47.7685 8.70485 47.8312 8.51181 47.9565 8.42073L51.9198 5.54159C52.045 5.45051 52.0209 5.37681 51.8662 5.37681H46.9673V5.37653Z" fill="#C2C00C"/>
</g>
<g clip-path="url(#clip3_1_384)">
<path d="M65.9673 5.37653C65.8127 5.37653 65.6485 5.25716 65.6006 5.11006L64.0866 0.450738C64.0387 0.303611 63.9613 0.303611 63.9134 0.450738L62.3997 5.11006C62.3518 5.25719 62.1876 5.37653 62.0329 5.37653H57.1337C56.9791 5.37653 56.955 5.45023 57.0802 5.54131L61.0435 8.42046C61.1687 8.51153 61.2315 8.70458 61.1836 8.8517L59.6699 13.5108C59.622 13.6579 59.6848 13.7035 59.81 13.6125L63.7733 10.7333C63.8986 10.6423 64.1015 10.6423 64.2267 10.7333L68.19 13.6128C68.3152 13.7038 68.378 13.6582 68.3301 13.511L66.8164 8.85198C66.7685 8.70485 66.8312 8.51181 66.9565 8.42073L70.9198 5.54159C71.045 5.45051 71.0209 5.37681 70.8662 5.37681H65.9673V5.37653Z" fill="#C2C00C"/>
</g>
<g clip-path="url(#clip4_1_384)">
<path d="M84.9673 5.37653C84.8127 5.37653 84.6485 5.25716 84.6006 5.11006L83.0866 0.450738C83.0387 0.303611 82.9613 0.303611 82.9134 0.450738L81.3997 5.11006C81.3518 5.25719 81.1876 5.37653 81.0329 5.37653H76.1337C75.9791 5.37653 75.955 5.45023 76.0802 5.54131L80.0435 8.42046C80.1687 8.51153 80.2315 8.70458 80.1836 8.8517L78.6699 13.5108C78.622 13.6579 78.6848 13.7035 78.81 13.6125L82.7733 10.7333C82.8986 10.6423 83.1015 10.6423 83.2267 10.7333L87.19 13.6128C87.3152 13.7038 87.378 13.6582 87.3301 13.511L85.8164 8.85198C85.7685 8.70485 85.8312 8.51181 85.9565 8.42073L89.9198 5.54159C90.045 5.45051 90.0209 5.37681 89.8662 5.37681H84.9673V5.37653Z" fill="#C2C00C"/>
</g>
<defs>
<clipPath id="clip0_1_384">
<rect width="14" height="14" fill="white"/>
</clipPath>
<clipPath id="clip1_1_384">
<rect width="14" height="14" fill="white" transform="translate(19)"/>
</clipPath>
<clipPath id="clip2_1_384">
<rect width="14" height="14" fill="white" transform="translate(38)"/>
</clipPath>
<clipPath id="clip3_1_384">
<rect width="14" height="14" fill="white" transform="translate(57)"/>
</clipPath>
<clipPath id="clip4_1_384">
<rect width="14" height="14" fill="white" transform="translate(76)"/>
</clipPath>
</defs>
</svg>
