<svg width="24" height="24" viewBox="0 0 24 24" fill="none" xmlns="http://www.w3.org/2000/svg">
<path fill-rule="evenodd" clip-rule="evenodd" d="M10.8581 13.1444C9.6881 11.9744 8.8061 10.6644 8.2201 9.33536C8.0961 9.05436 8.1691 8.72536 8.3861 8.50836L9.2051 7.69036C9.8761 7.01936 9.8761 6.07036 9.2901 5.48436L8.1161 4.31036C7.3351 3.52936 6.0691 3.52936 5.2881 4.31036L4.6361 4.96236C3.8951 5.70336 3.5861 6.77236 3.7861 7.83236C4.2801 10.4454 5.7981 13.3064 8.2471 15.7554C10.6961 18.2044 13.5571 19.7224 16.1701 20.2164C17.2301 20.4164 18.2991 20.1074 19.0401 19.3664L19.6911 18.7154C20.4721 17.9344 20.4721 16.6684 19.6911 15.8874L18.5181 14.7144C17.9321 14.1284 16.9821 14.1284 16.3971 14.7144L15.4941 15.6184C15.2771 15.8354 14.9481 15.9084 14.6671 15.7844C13.3381 15.1974 12.0281 14.3144 10.8581 13.1444Z" stroke="black" stroke-width="1.5" stroke-linecap="round" stroke-linejoin="round"/>
</svg>
