<svg width="110" height="23" viewBox="0 0 110 23" fill="none" xmlns="http://www.w3.org/2000/svg">
<g clip-path="url(#clip0_191_30)">
<path d="M109.805 17.0152V19.7374H107.522C105.085 19.6608 103.783 18.345 103.783 15.8735V9.65636H102.189V7.26839H103.783V4.59497H107.153V7.24054H109.728V9.62155H107.153V15.5393C107.153 16.3399 107.313 16.9804 108.545 16.9804L109.805 17.0152Z" fill="white"/>
<path d="M88.7589 13.5272V13.3462C88.7224 12.5455 88.8444 11.7454 89.1177 10.9919C89.391 10.2384 89.8104 9.54621 90.3517 8.95507C90.8931 8.36393 91.5458 7.88543 92.2724 7.54701C92.999 7.20859 93.7852 7.01689 94.5861 6.98291C94.7462 6.98291 94.9133 6.98291 95.0734 6.98291C98.2551 6.98291 101.047 8.83481 101.047 13.2487V14.1886H92.2051C92.2956 16.2215 93.3956 17.3703 95.2475 17.3703C96.8418 17.3703 97.5867 16.674 97.8025 15.6576H100.984C100.594 18.3101 98.4778 19.7861 95.1291 19.7861C91.4532 19.7582 88.7589 17.4329 88.7589 13.5272ZM97.7329 12.0582C97.6146 10.2063 96.6816 9.31519 95.0595 9.31519C93.4373 9.31519 92.5044 10.3177 92.2747 12.0582H97.7329Z" fill="white"/>
<path d="M75.0019 13.5272V13.3462C74.9655 12.5466 75.0869 11.7476 75.3594 10.995C75.6319 10.2423 76.05 9.55078 76.5899 8.95982C77.1297 8.36886 77.7808 7.89009 78.5058 7.55088C79.2308 7.21167 80.0156 7.01867 80.8152 6.98291C80.9754 6.98291 81.1424 6.98291 81.3026 6.98291C84.4842 6.98291 87.2829 8.83481 87.2829 13.2487V14.1886H78.4481C78.5386 16.2215 79.6386 17.3703 81.4905 17.3703C83.0848 17.3703 83.8298 16.674 84.0456 15.6576H87.2272C86.8304 18.3101 84.714 19.7861 81.3652 19.7861C77.6962 19.7582 75.0019 17.4329 75.0019 13.5272ZM83.976 12.0582C83.8576 10.2063 82.9247 9.31519 81.3026 9.31519C79.6804 9.31519 78.7753 10.3456 78.5178 12.0513L83.976 12.0582Z" fill="white"/>
<path d="M55.6962 7.24048H59.2607L61.4398 15.4974L63.8278 7.24048H66.6126L68.7708 15.4974L71.0683 7.24048H74.3335L70.4626 19.5076H67.1209L65.0322 11.8076L62.7974 19.5076H59.4139L55.6962 7.24048Z" fill="white"/>
<path d="M44.369 15.6506H47.5507C47.6969 16.7576 48.2469 17.3912 49.7089 17.3912C51.0178 17.3912 51.6235 16.8969 51.6235 16.0544C51.6235 15.212 50.9273 14.857 49.145 14.6063C45.8798 14.112 44.6197 13.1722 44.6197 10.7772C44.6197 8.22217 46.9589 6.95508 49.4931 6.95508C52.2152 6.95508 54.269 7.94369 54.5614 10.7633H51.4216C51.4015 10.5453 51.3385 10.3335 51.2361 10.14C51.1337 9.94652 50.994 9.77525 50.8251 9.63607C50.6561 9.49689 50.4612 9.39257 50.2517 9.32913C50.0422 9.2657 49.8222 9.2444 49.6045 9.26647H49.5C48.4 9.26647 47.7595 9.78166 47.7595 10.5336C47.7595 11.2855 48.3513 11.6127 50.1475 11.8703C53.1969 12.3298 54.9026 13.1025 54.9026 15.7272C54.9026 18.3519 52.9741 19.7582 49.7437 19.7582C46.5133 19.7582 44.4595 18.3032 44.369 15.6506Z" fill="white"/>
<path d="M30.8488 7.24047H34.2184V9.18288C34.5982 8.46992 35.1747 7.88099 35.8794 7.48607C36.5841 7.09114 37.3873 6.90683 38.1937 6.95503C40.5817 6.95503 42.3152 8.41009 42.3152 11.731V19.5354H38.9874V12.2183C38.9874 10.5544 38.3399 9.76072 36.8361 9.76072C36.5183 9.73305 36.1981 9.76843 35.8939 9.86482C35.5898 9.96122 35.3077 10.1167 35.0638 10.3224C34.82 10.5281 34.6191 10.78 34.4728 11.0635C34.3266 11.3471 34.2377 11.6567 34.2114 11.9746C34.194 12.1227 34.194 12.2722 34.2114 12.4202V19.5076H30.8488V7.24047Z" fill="white"/>
<path d="M24.3462 4.15632C24.334 3.82035 24.4218 3.48832 24.5984 3.20225C24.775 2.91619 25.0325 2.68896 25.3383 2.54933C25.6441 2.4097 25.9845 2.36395 26.3163 2.41787C26.6481 2.47179 26.9565 2.62297 27.2024 2.85225C27.4482 3.08153 27.6206 3.37861 27.6975 3.70588C27.7744 4.03314 27.7525 4.37588 27.6345 4.69069C27.5166 5.0055 27.3079 5.27822 27.0348 5.47434C26.7617 5.67046 26.4366 5.78115 26.1006 5.79239H26.038C25.8294 5.80559 25.6204 5.77749 25.4227 5.70969C25.225 5.6419 25.0427 5.53574 24.8862 5.39732C24.7297 5.2589 24.602 5.09094 24.5105 4.90306C24.4191 4.71519 24.3656 4.51111 24.3532 4.30252C24.3474 4.25401 24.3451 4.20515 24.3462 4.15632ZM24.3462 7.24049H27.7506V19.5076H24.3601L24.3462 7.24049Z" fill="white"/>
<path d="M11.5151 2.74304H22.2784V5.71583H15.3164V10.1506H20.8303V13.012H15.3094V19.5076H11.5151V2.74304Z" fill="white"/>
<path d="M5.01962 8.22911C5.01962 9.28038 5.01962 10.5614 3.57152 11.0835C5.05443 11.5918 5.01962 12.6709 5.01962 13.7987V17.976C5.01962 18.7696 5.33987 19.25 5.91076 19.3684C6.0362 19.4107 6.16836 19.4296 6.30063 19.4241H7.69304V22.2089H5.39557C2.94494 22.2089 1.5943 20.8165 1.5943 18.2335V13.2905C1.57692 13.0367 1.46503 12.7987 1.28071 12.6234C1.0964 12.4481 0.853055 12.3483 0.598734 12.3437H0V9.9H0.598734C0.85813 9.89658 1.10625 9.79342 1.29162 9.61194C1.47699 9.43046 1.58538 9.18458 1.5943 8.92532V3.91266C1.5943 1.37152 2.91709 0 5.39557 0H7.71393V2.74304H6.32152C6.18909 2.74342 6.05753 2.76456 5.93165 2.8057C5.36076 2.9519 5.04051 3.42532 5.04051 4.1981L5.01962 8.22911Z" fill="white"/>
</g>
<defs>
<clipPath id="clip0_191_30">
<rect width="110" height="22.2785" fill="white"/>
</clipPath>
</defs>
</svg>
