<svg width="148" height="145" viewBox="0 0 148 145" fill="none" xmlns="http://www.w3.org/2000/svg">
<path d="M73.7835 127.201C105.354 127.201 130.947 125.707 130.947 123.864C130.947 122.021 105.354 120.527 73.7835 120.527C42.2127 120.527 16.6196 122.021 16.6196 123.864C16.6196 125.707 42.2127 127.201 73.7835 127.201Z" fill="#F5F5F5"/>
<path d="M103.045 49.329L100.12 48.1497C100.12 48.1497 96.2611 55.1872 95.1555 55.544C93.6519 56.0275 90.5386 57.3719 88.693 57.6077C88.4424 57.9026 88.0325 58.8195 88.0709 59.1526C90.5504 59.9811 95.9987 58.8814 97.1663 58.0146C99.8226 56.0481 103.045 49.329 103.045 49.329Z" fill="#E58A7B"/>
<path d="M103.944 47.7281C104.49 49.7417 101.535 53.7926 101.535 53.7926L97.6643 51.6227C97.6643 51.6227 98.3896 49.957 99.2741 48.2617C100.692 45.5228 103.322 45.4314 103.944 47.7281Z" fill="#4CAF4F"/>
<path opacity="0.2" d="M103.944 47.7281C104.49 49.7417 101.535 53.7926 101.535 53.7926L97.6643 51.6227C97.6643 51.6227 98.3896 49.957 99.2741 48.2617C100.692 45.5228 103.322 45.4314 103.944 47.7281Z" fill="black"/>
<path opacity="0.2" d="M99.2004 52.4895L100.725 53.3445L100.993 48.6656C100.106 49.3467 99.4805 51.3987 99.2004 52.4895Z" fill="black"/>
<path d="M101.397 46.2127C101.397 46.2127 98.3837 52.917 100.141 65.4H112.013C112.202 63.578 111.577 54.686 113.838 46.1007C112.536 45.8461 111.218 45.6777 109.894 45.5965C108.214 45.4992 106.529 45.4992 104.849 45.5965C103.685 45.7148 102.53 45.9208 101.397 46.2127Z" fill="#4CAF4F"/>
<path opacity="0.2" d="M101.397 46.2127C101.397 46.2127 98.3837 52.917 100.141 65.4H112.013C112.202 63.578 111.577 54.686 113.838 46.1007C112.536 45.8461 111.218 45.6777 109.894 45.5965C108.214 45.4992 106.529 45.4992 104.849 45.5965C103.685 45.7148 102.53 45.9208 101.397 46.2127Z" fill="black"/>
<g style="mix-blend-mode:multiply">
<path d="M98.6431 124.129C98.6254 124.448 103.127 124.704 108.697 124.704C114.266 124.704 118.8 124.448 118.818 124.129C118.836 123.811 114.337 123.557 108.764 123.557C103.192 123.557 98.6638 123.814 98.6431 124.129Z" fill="#E8ECF1"/>
</g>
<path d="M106.568 115.763L104.463 116.578L106.277 121.264L108.382 120.449L106.568 115.763Z" fill="#E58A7B"/>
<path d="M115.958 121.862H113.738L112.925 116.723H115.145L115.958 121.862Z" fill="#E58A7B"/>
<path d="M113.585 121.606H116.079C116.122 121.606 116.164 121.621 116.197 121.649C116.23 121.677 116.252 121.716 116.259 121.759L116.58 123.731C116.587 123.781 116.583 123.831 116.569 123.879C116.554 123.927 116.53 123.971 116.497 124.008C116.464 124.046 116.423 124.076 116.378 124.096C116.332 124.117 116.282 124.127 116.233 124.126C115.363 124.112 114.944 124.059 113.847 124.059C113.172 124.059 111.784 124.129 110.846 124.129C109.908 124.129 109.847 123.209 110.233 123.124C111.966 122.75 112.639 122.239 113.216 121.744C113.318 121.655 113.449 121.605 113.585 121.606Z" fill="#263238"/>
<path d="M106.214 120.845L108.573 120.155C108.615 120.143 108.66 120.146 108.7 120.163C108.74 120.18 108.774 120.211 108.794 120.249L109.679 122.018C109.699 122.063 109.71 122.112 109.709 122.161C109.709 122.211 109.698 122.26 109.677 122.304C109.656 122.349 109.625 122.388 109.587 122.42C109.55 122.452 109.505 122.474 109.458 122.487C108.6 122.723 108.025 122.867 106.951 123.18C106.211 123.395 105.457 123.746 104.726 123.979C104.218 124.141 103.027 124.147 102.411 124.147C101.5 124.147 101.297 123.186 101.689 123.142C102.677 123.033 102.809 123.083 103.355 122.809C104.247 122.418 105.056 121.86 105.737 121.163C105.865 121.017 106.03 120.907 106.214 120.845Z" fill="#263238"/>
<path d="M89.0644 57.5959L86.6233 56.5729L85.6179 59.2794C86.6185 59.4318 87.6364 59.4318 88.6369 59.2794L89.0644 57.5959Z" fill="#E58A7B"/>
<path d="M84.807 56.5021L84.7422 58.3006L85.6178 59.2735L86.6232 56.567L84.807 56.5021Z" fill="#E58A7B"/>
<path d="M106.857 116.161L104.745 116.976L105.68 119.4L107.793 118.584L106.857 116.161Z" fill="#CF6F64"/>
<path d="M115.145 116.723H112.925L113.346 119.374H115.566L115.145 116.723Z" fill="#CF6F64"/>
<path opacity="0.2" d="M99.7637 62.0242C99.8079 62.5578 99.858 63.1033 99.9229 63.6634L108.75 60.7977C110.128 60.3892 111.326 59.5229 112.146 58.3418C112.182 57.5546 112.226 56.7262 112.294 55.8623C112.323 55.4437 112.359 55.0132 112.397 54.5769C112.435 54.1406 112.488 53.657 112.544 53.1912L99.7637 62.0242Z" fill="black"/>
<path d="M102.647 52.3539L102.352 52.3185C102.526 50.8444 103.626 49.6828 104.784 49.7123V50.0071C103.77 49.9865 102.803 51.0331 102.647 52.3539Z" fill="white"/>
<path d="M104.218 55.0752H104.168V54.7804C105.182 54.8187 106.135 53.7603 106.291 52.4424L106.586 52.4778C106.43 53.9195 105.365 55.0752 104.218 55.0752Z" fill="white"/>
<path d="M109.729 39.9152C109.313 41.5397 108.824 44.5144 109.894 45.5965C109.894 45.5965 109.145 47.2445 106.129 47.2445C103.372 47.2445 104.849 45.5965 104.849 45.5965C106.683 45.166 106.716 43.8275 106.474 42.5598L109.729 39.9152Z" fill="#E58A7B"/>
<path d="M108.402 40.9943L106.477 42.5598C106.536 42.8511 106.571 43.147 106.58 43.4443C107.143 44.0044 108.272 42.5863 108.387 41.8611C108.446 41.5755 108.451 41.2816 108.402 40.9943Z" fill="#CF6F64"/>
<path d="M103.166 39.8945C103.3 40.1267 103.48 40.3288 103.696 40.4881C103.911 40.6474 104.157 40.7604 104.419 40.8203C105.126 40.9765 105.48 40.325 105.286 39.6705C105.112 39.0808 104.531 38.2877 103.811 38.4233C103.657 38.4551 103.513 38.5233 103.391 38.6222C103.268 38.7212 103.172 38.848 103.108 38.9921C103.045 39.1361 103.017 39.2933 103.027 39.4503C103.037 39.6073 103.085 39.7596 103.166 39.8945Z" fill="#CF6F64"/>
<path d="M104.336 34.6968C103.234 35.2009 102.845 39.5821 104.23 40.2307C105.616 40.8793 106.424 33.7386 104.336 34.6968Z" fill="#263238"/>
<path d="M110.065 37.4711C109.799 39.6705 109.77 40.9647 108.591 42.091C108.225 42.4647 107.764 42.7302 107.257 42.8581C106.75 42.986 106.218 42.9714 105.719 42.8158C105.22 42.6603 104.773 42.3698 104.429 41.9766C104.085 41.5833 103.856 41.1026 103.767 40.5874C103.411 38.612 103.903 35.3483 106.108 34.4727C106.572 34.2683 107.081 34.1916 107.584 34.2505C108.087 34.3093 108.565 34.5017 108.969 34.8076C109.372 35.1134 109.687 35.5217 109.88 35.99C110.072 36.4584 110.136 36.9697 110.065 37.4711Z" fill="#E58A7B"/>
<path d="M106.441 35.8348C108.075 35.4191 109.275 35.1361 108.844 36.4952C108.275 38.3113 107.591 40.0685 108.508 40.1481C109.068 40.1982 111.545 39.1486 111.229 38.0843C110.955 37.1586 112.114 36.905 112.32 36.4362C113.084 34.738 110.899 34.9621 111.288 33.9302C111.678 32.8983 109.519 31.2355 108.34 32.064C106.421 33.4025 103.128 33.3818 104.858 31.1795C106.099 29.6081 103.885 29.9294 103.885 29.9294C103.885 29.9294 105.224 30.7225 102.971 31.949C100.589 33.258 102.774 36.7753 106.441 35.8348Z" fill="#263238"/>
<path d="M110.932 39.8945C110.609 40.3611 110.125 40.6911 109.572 40.8203C108.844 40.9765 108.564 40.325 108.838 39.6705C109.083 39.0808 109.755 38.2877 110.451 38.4233C111.147 38.559 111.306 39.3167 110.932 39.8945Z" fill="#E58A7B"/>
<path d="M100.141 65.4C100.141 65.4 98.148 83.2369 97.9917 90.0061C97.8325 97.0466 104.746 119.014 104.746 119.014L108.284 117.54C108.284 117.54 104.157 97.4682 104.746 90.5545C105.371 83.0158 107.954 65.4118 107.954 65.4118L100.141 65.4Z" fill="#4CAF4F"/>
<path opacity="0.2" d="M105.094 70.297C103.505 73.5931 104.575 80.1117 105.436 83.974C105.763 81.2468 106.152 78.2868 106.521 75.5478C106.486 71.3377 106.158 68.0858 105.094 70.297Z" fill="black"/>
<path d="M108.128 116.372C108.145 116.372 108.546 117.499 108.546 117.499L104.466 119.215L103.823 118.018L108.128 116.372Z" fill="#4CAF4F"/>
<path d="M104.354 65.4C104.354 65.4 105.878 82.3643 106.887 88.7178C107.995 95.6786 112.341 118.861 112.341 118.861H116.406C116.406 118.861 113.971 96.2417 113.511 89.3487C113.01 81.8719 112.014 65.4 112.014 65.4H104.354Z" fill="#4CAF4F"/>
<path d="M116.469 117.802C116.486 117.802 116.604 118.937 116.604 118.937H112.135L111.816 117.634L116.469 117.802Z" fill="#4CAF4F"/>
<path opacity="0.2" d="M114.912 116.458C114.903 116.458 114.894 116.455 114.887 116.449C114.879 116.443 114.875 116.435 114.873 116.426C114.85 116.219 112.653 95.7877 112.241 89.5963C111.792 82.8802 110.89 67.9826 110.881 67.8323C110.881 67.8274 110.882 67.8225 110.883 67.8178C110.885 67.8132 110.887 67.8089 110.891 67.8053C110.894 67.8017 110.898 67.7989 110.903 67.7969C110.907 67.7949 110.912 67.7939 110.917 67.7939C110.927 67.7939 110.936 67.7976 110.943 67.8041C110.95 67.8107 110.954 67.8197 110.955 67.8293C110.955 67.9797 111.866 82.8655 112.314 89.5934C112.727 95.7847 114.924 116.201 114.944 116.423C114.945 116.427 114.945 116.432 114.944 116.437C114.942 116.442 114.94 116.447 114.937 116.45C114.934 116.454 114.93 116.458 114.926 116.46C114.921 116.462 114.917 116.464 114.912 116.464V116.458Z" fill="black"/>
<path d="M106.692 38.0843C106.692 38.2642 106.58 38.4086 106.462 38.4086C106.344 38.4086 106.259 38.2642 106.27 38.0843C106.282 37.9045 106.382 37.76 106.5 37.76C106.618 37.76 106.704 37.9074 106.692 38.0843Z" fill="#263238"/>
<path d="M104.67 38.0843C104.67 38.2642 104.555 38.4086 104.44 38.4086C104.325 38.4086 104.236 38.2642 104.245 38.0843C104.254 37.9045 104.36 37.76 104.478 37.76C104.596 37.76 104.681 37.9074 104.67 38.0843Z" fill="#263238"/>
<path d="M105.306 38.1757C105.06 38.7249 104.743 39.2393 104.363 39.7059C104.658 40.0007 105.209 39.8651 105.209 39.8651L105.306 38.1757Z" fill="#DF5753"/>
<path d="M105.359 40.6169C105.352 40.6169 105.346 40.6155 105.339 40.6128C105.333 40.6101 105.327 40.6061 105.323 40.6012C105.318 40.5962 105.314 40.5903 105.312 40.5839C105.31 40.5775 105.309 40.5706 105.309 40.5638C105.31 40.5495 105.316 40.536 105.327 40.5261C105.337 40.5162 105.351 40.5107 105.365 40.5107C105.591 40.5123 105.814 40.4633 106.018 40.3674C106.222 40.2715 106.402 40.1311 106.544 39.9565C106.555 39.9475 106.568 39.9426 106.581 39.9426C106.595 39.9426 106.608 39.9475 106.618 39.9565C106.628 39.9663 106.633 39.9796 106.633 39.9933C106.633 40.0071 106.628 40.0203 106.618 40.0302C106.465 40.2157 106.273 40.3647 106.055 40.4663C105.837 40.5678 105.6 40.6193 105.359 40.6169Z" fill="#263238"/>
<path d="M107.052 37.5418C107.038 37.5491 107.022 37.5529 107.006 37.5529C106.99 37.5529 106.974 37.5491 106.96 37.5418C106.85 37.4705 106.724 37.4262 106.594 37.4123C106.463 37.3985 106.331 37.4156 106.208 37.4622C106.197 37.4682 106.183 37.4717 106.17 37.4726C106.157 37.4735 106.143 37.4716 106.131 37.4672C106.118 37.4628 106.106 37.456 106.097 37.447C106.087 37.438 106.079 37.4272 106.073 37.4151C106.062 37.3888 106.062 37.3593 106.072 37.3329C106.083 37.3065 106.103 37.2852 106.129 37.2735C106.283 37.2106 106.45 37.1858 106.616 37.2012C106.782 37.2165 106.941 37.2717 107.081 37.362C107.092 37.3697 107.102 37.3795 107.11 37.391C107.117 37.4024 107.122 37.4152 107.125 37.4287C107.127 37.4421 107.127 37.4559 107.124 37.4693C107.121 37.4826 107.116 37.4953 107.108 37.5065C107.093 37.5234 107.073 37.5356 107.052 37.5418Z" fill="#263238"/>
<path d="M103.888 36.9522C103.872 36.9484 103.858 36.9402 103.847 36.9286C103.837 36.919 103.829 36.9075 103.824 36.8948C103.819 36.8822 103.816 36.8686 103.816 36.8549C103.816 36.8411 103.819 36.8275 103.824 36.8149C103.829 36.8022 103.837 36.7908 103.847 36.7812C103.96 36.6544 104.101 36.5555 104.258 36.4921C104.416 36.4287 104.586 36.4025 104.755 36.4156C104.769 36.4177 104.782 36.4225 104.793 36.4298C104.805 36.4372 104.815 36.4468 104.822 36.4581C104.83 36.4694 104.836 36.4822 104.838 36.4957C104.841 36.5092 104.84 36.5231 104.837 36.5365C104.831 36.5638 104.815 36.5878 104.792 36.6041C104.77 36.6204 104.742 36.6278 104.714 36.6249C104.58 36.6165 104.446 36.6386 104.321 36.6897C104.197 36.7408 104.086 36.8194 103.997 36.9197C103.984 36.9346 103.967 36.9456 103.947 36.9513C103.928 36.957 103.908 36.9573 103.888 36.9522Z" fill="#263238"/>
<path d="M114.979 49.0017L111.913 48.1851C111.913 48.1851 108.906 55.5881 107.842 56.0687C106.397 56.7291 102.738 59.017 101.182 60.099C101.096 60.4675 101.164 61.4434 101.359 61.7117C104.012 61.2282 109.092 59.2735 110.153 58.2799C112.574 56.0127 114.979 49.0017 114.979 49.0017Z" fill="#E58A7B"/>
<path d="M112.839 121.995C112.69 122.007 112.54 121.966 112.418 121.88C112.38 121.846 112.351 121.802 112.335 121.753C112.319 121.705 112.316 121.653 112.326 121.603C112.328 121.571 112.338 121.541 112.356 121.515C112.374 121.489 112.398 121.468 112.426 121.455C112.674 121.328 113.367 121.768 113.446 121.818C113.455 121.823 113.462 121.831 113.466 121.841C113.469 121.851 113.47 121.861 113.467 121.871C113.465 121.881 113.459 121.891 113.452 121.898C113.445 121.906 113.436 121.912 113.426 121.915C113.234 121.962 113.037 121.989 112.839 121.995ZM112.544 121.535C112.522 121.53 112.499 121.53 112.476 121.535C112.465 121.541 112.456 121.55 112.45 121.561C112.443 121.572 112.44 121.584 112.441 121.597C112.433 121.631 112.435 121.667 112.445 121.7C112.455 121.734 112.474 121.764 112.5 121.788C112.615 121.892 112.904 121.903 113.284 121.83C113.058 121.681 112.803 121.58 112.535 121.535H112.544Z" fill="#4CAF4F"/>
<path d="M113.411 121.915C113.403 121.918 113.395 121.918 113.388 121.915C113.166 121.791 112.751 121.305 112.813 121.057C112.822 121.018 112.844 120.983 112.876 120.958C112.907 120.933 112.946 120.919 112.987 120.919C113.026 120.913 113.066 120.917 113.105 120.928C113.143 120.94 113.178 120.96 113.208 120.987C113.452 121.196 113.467 121.839 113.467 121.871C113.469 121.881 113.467 121.891 113.462 121.899C113.457 121.908 113.45 121.914 113.441 121.918C113.431 121.92 113.42 121.919 113.411 121.915ZM113.016 121.016H112.995C112.928 121.016 112.919 121.054 112.916 121.069C112.88 121.214 113.143 121.582 113.361 121.756C113.36 121.507 113.283 121.264 113.14 121.06C113.106 121.03 113.061 121.015 113.016 121.016Z" fill="#4CAF4F"/>
<path d="M105.011 121.626C104.831 121.689 104.635 121.689 104.454 121.626C104.413 121.604 104.379 121.572 104.353 121.533C104.328 121.494 104.313 121.449 104.31 121.402C104.306 121.373 104.31 121.343 104.321 121.316C104.331 121.289 104.349 121.265 104.372 121.246C104.608 121.034 105.572 121.246 105.681 121.287C105.691 121.29 105.7 121.296 105.707 121.305C105.713 121.313 105.716 121.324 105.716 121.334C105.717 121.345 105.714 121.356 105.708 121.366C105.702 121.375 105.694 121.383 105.684 121.387C105.467 121.485 105.242 121.565 105.011 121.626ZM104.531 121.275C104.497 121.282 104.466 121.297 104.439 121.32C104.43 121.327 104.423 121.336 104.419 121.347C104.415 121.358 104.414 121.37 104.416 121.382C104.418 121.413 104.427 121.442 104.444 121.469C104.46 121.495 104.483 121.517 104.51 121.532C104.666 121.614 105.029 121.55 105.498 121.352C105.182 121.272 104.855 121.247 104.531 121.275Z" fill="#4CAF4F"/>
<path d="M105.675 121.387H105.651C105.356 121.334 104.767 120.995 104.749 120.742C104.749 120.683 104.776 120.6 104.917 120.553C104.965 120.536 105.016 120.529 105.066 120.532C105.117 120.535 105.166 120.548 105.212 120.571C105.53 120.727 105.698 121.293 105.707 121.32C105.709 121.329 105.709 121.338 105.706 121.347C105.704 121.355 105.699 121.363 105.692 121.37C105.688 121.377 105.682 121.383 105.675 121.387ZM104.976 120.642H104.947C104.855 120.674 104.855 120.712 104.855 120.724C104.855 120.877 105.283 121.158 105.58 121.252C105.512 121.015 105.367 120.808 105.168 120.662C105.108 120.632 105.04 120.625 104.976 120.642Z" fill="#4CAF4F"/>
<path d="M101.432 59.925L98.3572 61.3402L98.0005 62.2247L99.1356 62.9883C99.1356 62.9883 101.258 62.7583 101.863 61.3933L101.432 59.925Z" fill="#E58A7B"/>
<path d="M101.562 61.7618C101.493 61.1709 101.298 60.6018 100.99 60.0931L101.476 59.7275C101.842 60.3137 102.076 60.9727 102.16 61.6586L101.562 61.7618Z" fill="#263238"/>
<path d="M102.087 60.3437C102.152 60.4459 102.184 60.5657 102.178 60.6868C102.173 60.8078 102.13 60.9242 102.056 61.0202C101.982 61.1161 101.88 61.1869 101.765 61.223C101.649 61.2591 101.525 61.2586 101.41 61.2217C101.294 61.1848 101.193 61.1133 101.12 61.0168C101.046 60.9203 101.005 60.8036 101 60.6825C100.995 60.5615 101.028 60.4419 101.094 60.3401C101.16 60.2384 101.255 60.1593 101.367 60.1137C101.493 60.0495 101.64 60.0377 101.774 60.0807C101.909 60.1238 102.021 60.2183 102.087 60.3437Z" fill="#263238"/>
<path d="M96.2788 62.4841L96.6886 62.8969L99.4482 61.7176L98.3573 61.3402L96.2788 62.4841Z" fill="#E58A7B"/>
<path opacity="0.2" d="M108.128 116.372C108.145 116.372 108.546 117.499 108.546 117.499L104.466 119.215L103.823 118.018L108.128 116.372Z" fill="black"/>
<path opacity="0.2" d="M116.469 117.802C116.486 117.802 116.604 118.937 116.604 118.937H112.135L111.816 117.634L116.469 117.802Z" fill="black"/>
<path d="M115.779 48.1526C116.589 50.7677 113.42 54.344 113.42 54.344L109.042 52.5573C109.561 51.0458 110.159 49.5627 110.834 48.1143C112.179 45.2162 114.959 45.5139 115.779 48.1526Z" fill="#4CAF4F"/>
<path opacity="0.2" d="M115.779 48.1526C116.589 50.7677 113.42 54.344 113.42 54.344L109.042 52.5573C109.561 51.0458 110.159 49.5627 110.834 48.1143C112.179 45.2162 114.959 45.5139 115.779 48.1526Z" fill="black"/>
<path d="M72.2738 21.9514H70.3899V22.2551H72.2738V21.9514Z" fill="#4CAF4F"/>
<path d="M96.6614 33.9705L96.4333 39.0305L96.7367 39.0441L96.9647 33.9842L96.6614 33.9705Z" fill="#4CAF4F"/>
<path d="M96.0752 23.3135H61.2858L58.0486 95.7582H92.8381L96.0752 23.3135Z" fill="#4CAF4F"/>
<path opacity="0.56" d="M95.0374 24.31H60.2479L57.0107 96.7547H91.8002L95.0374 24.31Z" fill="#FAFAFA"/>
<path opacity="0.07" d="M93.9996 25.3036H59.2101L55.97 97.7483H90.7594L93.9996 25.3036Z" fill="#4CAF4F"/>
<path d="M90.0402 56.9001H60.3453L60.0977 62.4429H89.7925L90.0402 56.9001Z" fill="white"/>
<path d="M76.6757 52.8551H60.5251L60.416 55.3346H76.5666L76.6757 52.8551Z" fill="#4CAF4F"/>
<path d="M89.3708 71.8596H59.6759L59.4282 77.4023H89.1231L89.3708 71.8596Z" fill="white"/>
<path opacity="0.47" d="M83.9253 84.8879H63.9567L63.6589 91.5304H83.6275L83.9253 84.8879Z" fill="#4CAF4F"/>
<path d="M82.5898 92.5623H62.6213C62.6126 92.5645 62.6034 92.5645 62.5947 92.5623C62.5918 92.5537 62.5918 92.5443 62.5947 92.5357L62.8895 85.8904C62.8895 85.8858 62.8905 85.8814 62.8923 85.8772C62.8941 85.8731 62.8967 85.8694 62.9001 85.8663C62.9034 85.8633 62.9073 85.8609 62.9116 85.8595C62.9159 85.8581 62.9204 85.8575 62.9249 85.8579H82.8935C82.8972 85.8561 82.9012 85.8552 82.9053 85.8552C82.9094 85.8552 82.9134 85.8561 82.9171 85.8579C82.9192 85.8615 82.9202 85.8656 82.9202 85.8697C82.9202 85.8739 82.9192 85.8779 82.9171 85.8815L82.6282 92.5416C82.6246 92.5486 82.619 92.5542 82.6122 92.5579C82.6054 92.5616 82.5976 92.5631 82.5898 92.5623ZM62.6566 92.4915H82.5544L82.8493 85.9169H62.9515L62.6566 92.4915Z" fill="white"/>
<path d="M73.1879 67.8146H59.8559L59.7468 70.297H73.0759L73.1879 67.8146Z" fill="#4CAF4F"/>
<path d="M83.545 38.9953C83.4688 40.6084 82.8952 42.1584 81.9029 43.4324C81.1683 44.3948 80.223 45.176 79.1395 45.7162C78.056 46.2564 76.8632 46.5412 75.6525 46.5487C74.6742 46.5562 73.7047 46.3633 72.8038 45.9819C71.9028 45.6005 71.0895 45.0386 70.4139 44.331C69.7383 43.6234 69.2147 42.7849 68.8754 41.8672C68.5362 40.9496 68.3883 39.9722 68.4411 38.9953C68.5448 36.9681 69.419 35.057 70.885 33.653C72.3509 32.249 74.2979 31.458 76.3277 31.4418C77.3068 31.4327 78.2773 31.6244 79.1793 32.0052C80.0814 32.3859 80.8958 32.9476 81.5722 33.6555C82.2486 34.3634 82.7726 35.2025 83.112 36.121C83.4513 37.0394 83.5987 38.0176 83.545 38.9953Z" fill="white"/>
<path d="M84.2557 33.0221C84.2364 33.451 84.0839 33.8633 83.8193 34.2014C83.6236 34.457 83.372 34.6645 83.0838 34.8081C82.7956 34.9517 82.4785 35.0275 82.1565 35.0299C81.8446 35.0318 81.5369 34.9573 81.2604 34.8128C80.984 34.6684 80.747 34.4585 80.5704 34.2014C80.3364 33.854 80.2206 33.4405 80.2402 33.0221C80.2687 32.4839 80.5014 31.9768 80.8909 31.6043C81.2804 31.2317 81.7974 31.0218 82.3364 31.0173C82.5964 31.0149 82.8541 31.0658 83.0937 31.1668C83.3333 31.2679 83.5497 31.4169 83.7295 31.6047C83.9093 31.7925 84.0488 32.0152 84.1393 32.259C84.2298 32.5027 84.2694 32.7624 84.2557 33.0221Z" fill="#4CAF4F"/>
<path d="M63.5441 59.6715C63.5299 59.9091 63.4262 60.1324 63.2539 60.2966C63.0816 60.4607 62.8534 60.5534 62.6154 60.556C62.5005 60.5573 62.3865 60.5351 62.2805 60.4907C62.1746 60.4463 62.0788 60.3806 61.9992 60.2977C61.9197 60.2148 61.8579 60.1164 61.8179 60.0087C61.7778 59.901 61.7602 59.7863 61.7663 59.6715C61.7791 59.4334 61.8824 59.2092 62.055 59.0448C62.2276 58.8804 62.4566 58.7882 62.695 58.787C62.8098 58.7861 62.9236 58.8086 63.0293 58.8532C63.1351 58.8977 63.2307 58.9634 63.3102 59.0462C63.3897 59.1291 63.4514 59.2272 63.4917 59.3347C63.5319 59.4422 63.5497 59.5568 63.5441 59.6715Z" fill="#263238"/>
<path d="M67.5185 59.6715C67.505 59.9093 67.4015 60.1331 67.229 60.2973C67.0565 60.4616 66.8279 60.5541 66.5898 60.5559C66.4751 60.5569 66.3614 60.5344 66.2558 60.4898C66.1502 60.4452 66.0548 60.3794 65.9755 60.2966C65.8963 60.2137 65.8348 60.1155 65.7949 60.008C65.755 59.9005 65.7376 59.786 65.7436 59.6715C65.7563 59.4339 65.8592 59.2101 66.0312 59.0458C66.2032 58.8815 66.4315 58.7889 66.6694 58.787C66.7843 58.7856 66.8982 58.8078 67.0042 58.8523C67.1102 58.8967 67.2059 58.9624 67.2855 59.0453C67.3651 59.1282 67.4268 59.2265 67.4669 59.3342C67.507 59.4419 67.5245 59.5567 67.5185 59.6715Z" fill="#263238"/>
<path d="M71.4956 59.6715C71.4821 59.9093 71.3786 60.1331 71.2061 60.2973C71.0337 60.4616 70.8051 60.5541 70.5669 60.5559C70.4521 60.5569 70.3383 60.5344 70.2326 60.4898C70.1268 60.4452 70.0312 60.3795 69.9517 60.2967C69.8722 60.2139 69.8105 60.1157 69.7703 60.0082C69.73 59.9007 69.7122 59.7861 69.7178 59.6715C69.7313 59.4336 69.8348 59.2099 70.0073 59.0456C70.1798 58.8813 70.4083 58.7889 70.6465 58.787C70.7614 58.7856 70.8754 58.8078 70.9814 58.8523C71.0873 58.8967 71.1831 58.9624 71.2627 59.0453C71.3423 59.1282 71.404 59.2265 71.4441 59.3342C71.4841 59.4419 71.5017 59.5567 71.4956 59.6715Z" fill="#263238"/>
<path d="M62.8748 74.631C62.8606 74.8685 62.7569 75.0919 62.5846 75.2561C62.4122 75.4202 62.184 75.5129 61.9461 75.5154C61.8313 75.5164 61.7175 75.4939 61.6117 75.4493C61.5059 75.4047 61.4104 75.339 61.3309 75.2562C61.2514 75.1734 61.1896 75.0752 61.1494 74.9677C61.1092 74.8602 61.0913 74.7456 61.097 74.631C61.1104 74.3931 61.2139 74.1694 61.3864 74.0051C61.5589 73.8408 61.7875 73.7484 62.0257 73.7465C62.1404 73.7455 62.2542 73.7681 62.36 73.8126C62.4658 73.8572 62.5614 73.9229 62.6408 74.0057C62.7203 74.0885 62.7821 74.1867 62.8223 74.2942C62.8625 74.4017 62.8804 74.5163 62.8748 74.631Z" fill="#263238"/>
<path d="M66.849 74.631C66.8356 74.8683 66.7325 75.0916 66.5606 75.2558C66.3888 75.42 66.1609 75.5128 65.9233 75.5154C65.8084 75.5168 65.6944 75.4946 65.5884 75.4502C65.4824 75.4057 65.3867 75.3401 65.3071 75.2572C65.2275 75.1743 65.1658 75.0759 65.1257 74.9682C65.0857 74.8605 65.0681 74.7457 65.0742 74.631C65.0876 74.3931 65.1911 74.1694 65.3636 74.0051C65.5361 73.8408 65.7647 73.7484 66.0029 73.7465C66.1175 73.7455 66.2312 73.768 66.3368 73.8126C66.4424 73.8573 66.5378 73.923 66.6171 74.0059C66.6964 74.0887 66.7578 74.1869 66.7977 74.2944C66.8376 74.4019 66.8551 74.5165 66.849 74.631Z" fill="#263238"/>
<path d="M70.8351 74.6309C70.8216 74.8688 70.7181 75.0925 70.5456 75.2568C70.3731 75.4211 70.1446 75.5135 69.9064 75.5154C69.7917 75.5159 69.6781 75.4931 69.5725 75.4484C69.4669 75.4037 69.3716 75.338 69.2921 75.2553C69.2127 75.1725 69.151 75.0745 69.1106 74.9672C69.0702 74.8599 69.0521 74.7455 69.0573 74.6309C69.0714 74.3934 69.1751 74.17 69.3475 74.0059C69.5198 73.8417 69.748 73.749 69.986 73.7465C70.1009 73.7451 70.2148 73.7673 70.3208 73.8117C70.4268 73.8562 70.5225 73.9219 70.6021 74.0048C70.6817 74.0876 70.7434 74.186 70.7835 74.2937C70.8236 74.4014 70.8411 74.5162 70.8351 74.6309Z" fill="#263238"/>
<path d="M74.8036 74.631C74.7894 74.8685 74.6857 75.0919 74.5134 75.2561C74.341 75.4202 74.1129 75.5129 73.8749 75.5154C73.7602 75.516 73.6466 75.4932 73.541 75.4484C73.4355 75.4037 73.3401 75.338 73.2607 75.2553C73.1812 75.1726 73.1195 75.0746 73.0791 74.9672C73.0387 74.8599 73.0206 74.7455 73.0258 74.631C73.0399 74.3934 73.1436 74.17 73.316 74.0059C73.4883 73.8417 73.7165 73.7491 73.9545 73.7465C74.0693 73.7455 74.183 73.7681 74.2888 73.8126C74.3946 73.8572 74.4902 73.9229 74.5697 74.0057C74.6492 74.0885 74.7109 74.1867 74.7511 74.2942C74.7914 74.4017 74.8092 74.5163 74.8036 74.631Z" fill="#263238"/>
<path d="M78.7953 74.631C78.7812 74.8685 78.6775 75.0919 78.5051 75.2561C78.3328 75.4202 78.1046 75.5129 77.8666 75.5154C77.7517 75.5168 77.6378 75.4946 77.5318 75.4502C77.4258 75.4057 77.33 75.3401 77.2505 75.2572C77.1709 75.1743 77.1091 75.0759 77.0691 74.9682C77.029 74.8605 77.0115 74.7457 77.0175 74.631C77.031 74.3931 77.1345 74.1694 77.307 74.0051C77.4795 73.8408 77.708 73.7484 77.9462 73.7465C78.061 73.7455 78.1748 73.7681 78.2806 73.8126C78.3864 73.8572 78.4819 73.9229 78.5614 74.0057C78.6409 74.0885 78.7027 74.1867 78.7429 74.2942C78.7831 74.4017 78.8009 74.5163 78.7953 74.631Z" fill="#263238"/>
<path d="M78.1921 38.6019C79.4261 37.3952 79.4916 35.4609 78.3383 34.2817C77.1851 33.1024 75.2499 33.1246 74.0159 34.3314C72.7819 35.5381 72.7164 37.4724 73.8696 38.6517C75.0228 39.8309 76.9581 39.8087 78.1921 38.6019Z" fill="#4CAF4F"/>
<path d="M81.9029 43.4325C81.1683 44.3948 80.223 45.1761 79.1395 45.7163C78.0561 46.2565 76.8632 46.5413 75.6526 46.5488C74.4786 46.5587 73.3202 46.2797 72.2796 45.7362C71.2389 45.1927 70.348 44.4016 69.6853 43.4325C71.1182 42.0055 73.3854 41.0739 75.8973 41.0739C78.4092 41.0739 80.5968 42.0055 81.9029 43.4325Z" fill="#4CAF4F"/>
<path opacity="0.1" d="M78.1921 38.6019C79.4261 37.3952 79.4916 35.4609 78.3383 34.2817C77.1851 33.1024 75.2499 33.1246 74.0159 34.3314C72.7819 35.5381 72.7164 37.4724 73.8696 38.6517C75.0228 39.8309 76.9581 39.8087 78.1921 38.6019Z" fill="white"/>
<path opacity="0.1" d="M81.9029 43.4325C81.1683 44.3948 80.223 45.1761 79.1395 45.7163C78.0561 46.2565 76.8632 46.5413 75.6526 46.5488C74.4786 46.5587 73.3202 46.2797 72.2796 45.7362C71.2389 45.1927 70.348 44.4016 69.6853 43.4325C71.1182 42.0055 73.3854 41.0739 75.8973 41.0739C78.4092 41.0739 80.5968 42.0055 81.9029 43.4325Z" fill="white"/>
<path d="M38.5251 63.7784C38.245 64.3916 37.9502 65.0668 37.6937 65.7213C37.4372 66.3758 37.1748 67.051 36.9478 67.7232C36.4843 69.0479 36.1312 70.4088 35.8923 71.7918L35.8275 72.2252C35.8213 72.2995 35.8283 72.3744 35.8481 72.4463C35.9177 72.6906 36.0273 72.9218 36.1724 73.1303C36.551 73.67 36.9902 74.1646 37.4814 74.6044C37.9993 75.0861 38.5426 75.5398 39.1089 75.9636C39.6749 76.3999 40.2705 76.8244 40.8572 77.2254L40.3059 78.2603C38.9049 77.6498 37.5752 76.8876 36.3405 75.9871C35.6817 75.5067 35.0872 74.944 34.5715 74.3125C34.2658 73.9367 34.0274 73.5107 33.8669 73.0536C33.7735 72.7681 33.7258 72.4696 33.7253 72.1691C33.7253 72.0984 33.7253 71.9952 33.7253 71.9451V71.8006L33.7548 71.5058C33.9238 69.9697 34.2468 68.4546 34.7189 66.9832C34.9489 66.2579 35.1936 65.5356 35.4737 64.8309C35.7537 64.1263 36.0427 63.4364 36.3994 62.72L38.5251 63.7784Z" fill="#E58A7B"/>
<path d="M40.4414 77.0426L42.5259 75.9871L41.9863 78.275C41.9863 78.275 40.5564 78.6759 39.8931 77.9801L40.4414 77.0426Z" fill="#E58A7B"/>
<path d="M44.4334 76.3615L43.8791 78.2543L41.9863 78.275L42.5259 75.9871L44.4334 76.3615Z" fill="#E58A7B"/>
<path d="M47.3758 52.7401C47.4873 53.1487 47.6424 53.5441 47.8386 53.9194C47.7813 53.9844 47.7075 54.0327 47.625 54.0592C47.5425 54.0857 47.4543 54.0893 47.3699 54.0698L47.3758 52.7401Z" fill="#DF5753"/>
<path d="M47.3139 52.7578C47.436 52.7578 47.535 52.606 47.535 52.4188C47.535 52.2315 47.436 52.0797 47.3139 52.0797C47.1918 52.0797 47.0928 52.2315 47.0928 52.4188C47.0928 52.606 47.1918 52.7578 47.3139 52.7578Z" fill="#263238"/>
<path d="M47.249 52.0915L47.6972 51.9647C47.6972 51.9647 47.479 52.3126 47.249 52.0915Z" fill="#263238"/>
<path d="M41.6179 54.9041C41.8862 56.2751 42.1545 58.7899 41.1934 59.7068C41.1934 59.7068 41.5707 61.0984 44.121 61.0984C46.9248 61.0984 45.4595 59.7068 45.4595 59.7068C43.9293 59.3412 43.9677 58.2062 44.236 57.1389L41.6179 54.9041Z" fill="#E58A7B"/>
<path d="M40.8719 51.7789C41.0134 54.0697 41.0252 55.0427 42.1809 56.219C43.9234 57.988 46.7065 57.3158 47.252 55.0397C47.7443 52.9759 47.4318 49.5795 45.1882 48.6685C44.6957 48.4656 44.1596 48.3918 43.6306 48.4538C43.1016 48.5159 42.5971 48.7119 42.165 49.0233C41.7329 49.3348 41.3873 49.7512 41.1611 50.2334C40.9348 50.7156 40.8353 51.2476 40.8719 51.7789Z" fill="#E58A7B"/>
<path d="M41.099 49.2022C39.9492 49.6208 38.4161 49.3083 39.0175 52.8551C39.6544 56.6112 38.6755 57.8465 38.6755 57.8465C38.6755 57.8465 43.036 58.7752 47.4879 57.7905C47.4879 57.7905 46.1287 55.4142 46.5091 53.6629C46.9955 51.4517 46.6123 50.635 46.6123 50.635C46.6123 50.635 42.7147 48.6125 41.099 49.2022Z" fill="#263238"/>
<path d="M45.9636 52.973C45.9648 53.4086 46.0895 53.8349 46.3233 54.2024C46.6358 54.68 47.0044 54.4972 47.0958 53.9901C47.1783 53.545 47.1164 52.7578 46.7184 52.4511C46.3204 52.1445 45.9695 52.4452 45.9636 52.973Z" fill="#E58A7B"/>
<path d="M40.0994 49.5884C39.7692 48.6597 41.3436 47.2298 44.6751 47.8194C48.0067 48.4091 48.1511 51.1834 48.1511 51.1834L47.4789 50.3815L47.5084 51.2247L44.0855 51.8821L40.0994 49.5884Z" fill="#263238"/>
<path d="M40.3824 59.8631C40.3628 59.7285 40.3965 59.5915 40.4763 59.4814C40.5562 59.3712 40.6759 59.2966 40.8099 59.2735C41.8477 59.1025 44.2063 58.7546 45.3915 58.9197C46.276 59.0435 46.506 59.5565 46.5443 59.9781C46.5503 60.0519 46.5404 60.1262 46.5153 60.1959C46.4903 60.2656 46.4506 60.3291 46.3989 60.3821C46.3472 60.4352 46.2848 60.4766 46.2158 60.5035C46.1468 60.5304 46.0728 60.5423 45.9989 60.5383L40.8748 60.3083C40.754 60.3022 40.639 60.2546 40.5493 60.1734C40.4596 60.0923 40.4006 59.9827 40.3824 59.8631Z" fill="#4CAF4F"/>
<path opacity="0.6" d="M40.3824 59.8631C40.3628 59.7285 40.3965 59.5915 40.4763 59.4814C40.5562 59.3712 40.6759 59.2966 40.8099 59.2735C41.8477 59.1025 44.2063 58.7546 45.3915 58.9197C46.276 59.0435 46.506 59.5565 46.5443 59.9781C46.5503 60.0519 46.5404 60.1262 46.5153 60.1959C46.4903 60.2656 46.4506 60.3291 46.3989 60.3821C46.3472 60.4352 46.2848 60.4766 46.2158 60.5035C46.1468 60.5304 46.0728 60.5423 45.9989 60.5383L40.8748 60.3083C40.754 60.3022 40.639 60.2546 40.5493 60.1734C40.4596 60.0923 40.4006 59.9827 40.3824 59.8631Z" fill="black"/>
<path d="M43.3455 111.369L45.2471 112.69L48.4283 108.377L46.5266 107.059L43.3455 111.369Z" fill="#E58A7B"/>
<path d="M38.9114 111.284L40.9191 112.428L43.7347 107.867L41.727 106.723L38.9114 111.284Z" fill="#E58A7B"/>
<path d="M48.4254 108.377L46.7861 110.6L44.8845 109.282L46.5238 107.059L48.4254 108.377Z" fill="#CF6F64"/>
<path d="M41.724 106.723L43.7347 107.87L42.2842 110.219L40.2734 109.073L41.724 106.723Z" fill="#CF6F64"/>
<path d="M44.9494 74.2624C44.9494 74.2624 52.3731 83.6172 50.9786 92.5652C49.8553 99.7914 43.3397 109.577 43.3397 109.577L40.2764 108.055C42.4356 103.729 44.2781 99.2515 45.7897 94.6585C46.2558 93.2325 46.3918 91.7192 46.1875 90.233C45.9832 88.7468 45.4439 87.3263 44.6104 86.079C40.8484 80.5864 34.8221 83.856 38.876 74.2624H44.9494Z" fill="#4CAF4F"/>
<path opacity="0.6" d="M44.9494 74.2624C44.9494 74.2624 52.3731 83.6172 50.9786 92.5652C49.8553 99.7914 43.3397 109.577 43.3397 109.577L40.2764 108.055C42.4356 103.729 44.2781 99.2515 45.7897 94.6585C46.2558 93.2325 46.3918 91.7192 46.1875 90.233C45.9832 88.7468 45.4439 87.3263 44.6104 86.079C40.8484 80.5864 34.8221 83.856 38.876 74.2624H44.9494Z" fill="black"/>
<path opacity="0.4" d="M48.5905 80.271L47.5115 79.1978C47.5115 79.2833 49.6018 92.1879 50.1885 95.8142C50.5347 94.7549 50.7998 93.6707 50.9816 92.5711C51.6715 88.1812 50.2298 83.6969 48.5905 80.271Z" fill="black"/>
<path d="M48.2632 74.2624C48.2632 74.2624 57.2023 86.0201 57.4559 93.0694C57.6652 98.9659 47.7266 110.39 47.7266 110.39L44.8373 108.521C44.8373 108.521 50.6542 100.408 52.1195 93.7799C51.5534 87.2112 39.5835 74.2624 39.5835 74.2624H48.2632Z" fill="#4CAF4F"/>
<path opacity="0.6" d="M48.2632 74.2624C48.2632 74.2624 57.2023 86.0201 57.4559 93.0694C57.6652 98.9659 47.7266 110.39 47.7266 110.39L44.8373 108.521C44.8373 108.521 50.6542 100.408 52.1195 93.7799C51.5534 87.2112 39.5835 74.2624 39.5835 74.2624H48.2632Z" fill="black"/>
<path d="M37.2042 60.2316C36.2489 60.4586 35.332 63.9317 35.332 63.9317L39.0675 66.4259C39.0675 66.4259 40.3116 63.6781 39.8753 62.4752C39.4242 61.2222 38.4041 59.9456 37.2042 60.2316Z" fill="#4CAF4F"/>
<path opacity="0.2" d="M37.9355 62.4694L37.676 65.4972L39.0647 66.4289C39.4481 65.5657 39.732 64.6616 39.9108 63.7342L37.9355 62.4694Z" fill="black"/>
<path d="M49.3689 60.2995C49.3689 60.2995 50.4715 60.6857 48.2633 74.2595H38.8701C39.0293 70.4267 39.0323 68.0681 37.2043 60.2317C38.5196 59.9606 39.8527 59.7852 41.1933 59.7069C42.6136 59.605 44.0393 59.605 45.4595 59.7069C47.2933 59.8749 49.3689 60.2995 49.3689 60.2995Z" fill="#4CAF4F"/>
<path d="M50.3239 62.4694C50.5362 63.059 50.7602 63.6929 50.9961 64.3032C51.232 64.9135 51.456 65.5415 51.6948 66.1606L52.4172 68.0121L52.5999 68.475L52.6943 68.7049L52.7385 68.8199C52.7385 68.8406 52.7385 68.8406 52.7385 68.8376C52.6846 68.7617 52.614 68.6991 52.5321 68.6548C52.4155 68.5862 52.284 68.5467 52.1489 68.5398C52.0366 68.5363 51.9249 68.5575 51.8216 68.6018C51.686 68.6637 51.686 68.6902 51.6889 68.6873C51.7134 68.6676 51.7353 68.6448 51.7538 68.6195C51.917 68.4052 52.0582 68.175 52.1754 67.9325C52.314 67.6613 52.4466 67.3723 52.5793 67.0805C52.8388 66.4908 53.0776 65.8805 53.3164 65.2643C53.5552 64.6481 53.7822 64.0261 54.0033 63.3981L54.6755 61.5171L55.8106 61.8119C55.5865 63.1563 55.2976 64.4653 54.9497 65.798C54.7817 66.4613 54.5841 67.1188 54.3601 67.7821C54.248 68.1153 54.1242 68.4455 53.9827 68.7846C53.8352 69.1525 53.6536 69.5059 53.4402 69.84C53.3618 69.9525 53.2751 70.0589 53.1808 70.1584C53.0302 70.3211 52.8475 70.4506 52.6442 70.5388C52.4638 70.6162 52.2684 70.6525 52.0722 70.6449C51.8525 70.6367 51.6384 70.5728 51.4501 70.4592C51.228 70.3206 51.0437 70.1291 50.9135 69.9019C50.8693 69.8253 50.831 69.7486 50.8045 69.6926L50.7484 69.5806L50.6364 69.3506L50.4123 68.8936C50.1175 68.2804 49.8227 67.6613 49.5662 67.0392C49.3097 66.4171 49.0385 65.7862 48.7849 65.1523C48.5314 64.5184 48.3043 63.8845 48.0891 63.2005L50.3239 62.4694Z" fill="#E58A7B"/>
<path d="M49.3688 60.2995C50.498 60.5678 51.7687 63.9052 51.7687 63.9052L48.4106 66.762C48.4106 66.762 46.2378 63.1239 46.6771 61.924C47.134 60.6739 47.8947 59.9486 49.3688 60.2995Z" fill="#4CAF4F"/>
<path d="M55.2092 60.4616L56.3885 59.4769L57.2081 60.7535L56.6037 61.8178C56.6037 61.8178 55.6426 62.7023 54.7935 62.2512C54.6587 61.9483 54.6264 61.6097 54.7014 61.2867C54.7764 60.9638 54.9547 60.6741 55.2092 60.4616Z" fill="#E58A7B"/>
<path d="M58.5171 59.4798L58.4287 59.8012L56.5624 60.1137L56.3796 59.4769L58.5171 59.4798Z" fill="#E58A7B"/>
<path d="M47.9565 110.541L44.5896 108.365L45.194 107.315L48.9766 109.642L47.9565 110.541Z" fill="#4CAF4F"/>
<path d="M42.2369 112.274C41.9415 112.238 41.6577 112.138 41.4055 111.98C41.3951 111.976 41.3861 111.969 41.3797 111.96C41.3733 111.951 41.3699 111.94 41.3699 111.929C41.3699 111.918 41.3733 111.908 41.3797 111.899C41.3861 111.89 41.3951 111.883 41.4055 111.879C41.4969 111.85 42.29 111.605 42.5199 111.794C42.5458 111.815 42.5654 111.843 42.5768 111.875C42.5882 111.907 42.591 111.941 42.5848 111.974C42.5807 112.027 42.5631 112.078 42.5337 112.122C42.5043 112.167 42.464 112.203 42.4168 112.227C42.3615 112.257 42.2998 112.274 42.2369 112.274ZM41.5736 111.95C41.9421 112.139 42.2369 112.207 42.3784 112.136C42.4092 112.119 42.4352 112.094 42.4538 112.064C42.4723 112.034 42.4829 112 42.4846 111.965C42.4846 111.918 42.4846 111.897 42.458 111.885C42.3342 111.785 41.892 111.862 41.5677 111.95H41.5736Z" fill="#263238"/>
<path d="M41.4261 112C41.4106 112 41.3957 111.994 41.3849 111.982C41.3805 111.974 41.3782 111.965 41.3782 111.956C41.3782 111.947 41.3805 111.938 41.3849 111.929C41.3849 111.903 41.5765 111.263 41.8772 111.119C41.9156 111.101 41.9574 111.092 41.9996 111.092C42.0418 111.092 42.0835 111.101 42.1219 111.119C42.1633 111.132 42.1992 111.158 42.2237 111.194C42.2483 111.23 42.2602 111.273 42.2575 111.316C42.2369 111.582 41.6974 111.947 41.4497 112.009L41.4261 112ZM41.9981 111.195C41.9694 111.196 41.9413 111.203 41.9155 111.216C41.7328 111.304 41.5824 111.649 41.5087 111.859C41.7681 111.75 42.1249 111.461 42.1367 111.298C42.1367 111.272 42.1367 111.24 42.0689 111.21C42.0468 111.198 42.0229 111.19 41.9981 111.186V111.195Z" fill="#263238"/>
<path d="M46.4441 113.548C46.1109 113.548 45.648 113.12 45.3945 112.858C45.388 112.849 45.3845 112.838 45.3845 112.827C45.3845 112.816 45.388 112.805 45.3945 112.796C45.4003 112.787 45.4086 112.779 45.4184 112.774C45.4283 112.769 45.4394 112.766 45.4505 112.767C45.5684 112.767 46.5915 112.92 46.7359 113.209C46.7512 113.235 46.7593 113.264 46.7593 113.294C46.7593 113.325 46.7512 113.354 46.7359 113.38C46.7143 113.425 46.6815 113.464 46.6408 113.493C46.6001 113.521 46.5527 113.539 46.503 113.545L46.4441 113.548ZM45.5891 112.899C45.9605 113.259 46.2878 113.46 46.4735 113.436C46.5061 113.432 46.5371 113.42 46.5638 113.4C46.5905 113.381 46.6122 113.356 46.6269 113.327C46.6335 113.317 46.637 113.305 46.637 113.293C46.637 113.281 46.6335 113.269 46.6269 113.259C46.5502 113.1 46.0048 112.964 45.5891 112.899Z" fill="#263238"/>
<path d="M45.6215 112.885C45.5553 112.887 45.4891 112.882 45.424 112.87C45.4148 112.869 45.4063 112.865 45.399 112.859C45.3918 112.853 45.3862 112.846 45.3827 112.837C45.3783 112.829 45.376 112.819 45.376 112.809C45.376 112.8 45.3783 112.79 45.3827 112.781C45.4004 112.761 45.7984 112.28 46.1758 112.248C46.2826 112.24 46.3884 112.273 46.4706 112.342C46.5856 112.442 46.5797 112.531 46.5502 112.587C46.4765 112.787 45.9664 112.885 45.6215 112.885ZM45.5448 112.776C45.875 112.793 46.4028 112.684 46.4706 112.54C46.4706 112.54 46.4942 112.493 46.4175 112.428C46.387 112.401 46.3514 112.381 46.3128 112.369C46.2743 112.357 46.2337 112.353 46.1934 112.357C45.9392 112.428 45.7129 112.575 45.5448 112.779V112.776Z" fill="#263238"/>
<path d="M41.5058 111.682L39.0056 110.974C38.9625 110.961 38.9162 110.964 38.8753 110.983C38.8345 111.003 38.8022 111.036 38.7845 111.077L37.9413 112.973C37.9215 113.022 37.9122 113.074 37.914 113.126C37.9159 113.179 37.9287 113.23 37.9519 113.277C37.975 113.324 38.0078 113.366 38.0482 113.399C38.0885 113.433 38.1355 113.457 38.186 113.471C39.0705 113.701 39.4951 113.766 40.5948 114.082C41.2729 114.27 42.2399 114.621 43.1745 114.887C44.1091 115.152 44.4216 114.241 44.059 114.046C42.4197 113.179 42.29 112.572 41.8419 111.923C41.7616 111.806 41.6427 111.72 41.5058 111.682Z" fill="#4CAF4F"/>
<path d="M45.4623 112.513L43.3277 111.039C43.2915 111.013 43.2469 111 43.2024 111.005C43.1578 111.009 43.1164 111.03 43.086 111.063L41.6708 112.584C41.6363 112.623 41.6106 112.669 41.5954 112.719C41.5801 112.769 41.5757 112.822 41.5824 112.874C41.5891 112.926 41.6067 112.976 41.6342 113.02C41.6616 113.065 41.6982 113.103 41.7416 113.132C42.4934 113.636 42.8825 113.84 43.823 114.491C44.4127 114.892 45.5537 115.783 46.3497 116.337C47.1457 116.891 47.7383 116.131 47.4553 115.83C46.1875 114.477 45.9104 113.628 45.7011 112.858C45.6647 112.718 45.5801 112.596 45.4623 112.513Z" fill="#4CAF4F"/>
<path d="M43.7318 109.771L39.8843 107.858L40.2823 106.814L44.3922 108.831L43.7318 109.771Z" fill="#4CAF4F"/>
<path d="M38.7285 73.7081L38.4042 74.5572C38.3718 74.6221 38.4485 74.6899 38.5575 74.6899H48.3104C48.3959 74.6899 48.4666 74.6486 48.4725 74.5956L48.5551 73.7524C48.5551 73.6964 48.4873 73.6462 48.3959 73.6462H38.8819C38.8532 73.6435 38.8243 73.6478 38.7977 73.6585C38.771 73.6693 38.7473 73.6863 38.7285 73.7081Z" fill="#4CAF4F"/>
<path opacity="0.4" d="M38.7285 73.7081L38.4042 74.5572C38.3718 74.6221 38.4485 74.6899 38.5575 74.6899H48.3104C48.3959 74.6899 48.4666 74.6486 48.4725 74.5956L48.5551 73.7524C48.5551 73.6964 48.4873 73.6462 48.3959 73.6462H38.8819C38.8532 73.6435 38.8243 73.6478 38.7977 73.6585C38.771 73.6693 38.7473 73.6863 38.7285 73.7081Z" fill="white"/>
<path d="M40.2645 74.7724H40.008C39.9579 74.7724 39.9196 74.7459 39.9225 74.7135L40.0434 73.6197C40.0434 73.5902 40.0906 73.5637 40.1407 73.5637H40.3972C40.4473 73.5637 40.4856 73.5902 40.4827 73.6197L40.3618 74.7135C40.3589 74.7459 40.3146 74.7724 40.2645 74.7724Z" fill="#4CAF4F"/>
<path d="M46.2789 74.7724H46.0254C45.9752 74.7724 45.9369 74.7459 45.9399 74.7135L46.0578 73.6197C46.0578 73.5902 46.1079 73.5637 46.158 73.5637H46.4116C46.4617 73.5637 46.503 73.5902 46.4971 73.6197L46.3791 74.7135C46.3644 74.7459 46.332 74.7724 46.2789 74.7724Z" fill="#4CAF4F"/>
<g style="mix-blend-mode:multiply">
<path d="M40.0405 124.701C44.4026 124.701 47.9389 124.445 47.9389 124.129C47.9389 123.813 44.4026 123.557 40.0405 123.557C35.6783 123.557 32.1421 123.813 32.1421 124.129C32.1421 124.445 35.6783 124.701 40.0405 124.701Z" fill="#F5F5F5"/>
</g>
<path d="M44.8519 123.321C43.4545 122.915 41.9037 122.393 40.9661 121.847C40.9396 121.83 40.9101 121.821 40.8836 121.806V115.479H43.711C43.9256 115.466 44.1273 115.372 44.2747 115.216C44.4222 115.059 44.5043 114.852 44.5043 114.637C44.5043 114.422 44.4222 114.215 44.2747 114.059C44.1273 113.903 43.9256 113.808 43.711 113.796H40.8983V84.9557H39.2001V113.796H36.3904C36.2757 113.789 36.1608 113.806 36.0528 113.845C35.9448 113.884 35.8459 113.945 35.7623 114.024C35.6786 114.103 35.612 114.198 35.5664 114.303C35.5209 114.409 35.4974 114.522 35.4974 114.637C35.4974 114.752 35.5209 114.866 35.5664 114.972C35.612 115.077 35.6786 115.172 35.7623 115.251C35.8459 115.33 35.9448 115.391 36.0528 115.43C36.1608 115.469 36.2757 115.486 36.3904 115.479H39.2001V121.797C39.1736 121.797 39.1471 121.821 39.1205 121.838C38.1682 122.393 36.6292 122.915 35.2318 123.313C35.1374 123.341 35.0563 123.403 35.0033 123.486C34.9502 123.569 34.9287 123.668 34.9426 123.766C34.9565 123.864 35.0049 123.953 35.079 124.018C35.1532 124.083 35.2481 124.119 35.3468 124.12H44.737C44.8312 124.114 44.9204 124.075 44.9896 124.011C45.0589 123.947 45.104 123.861 45.1174 123.767C45.1309 123.674 45.1119 123.579 45.0636 123.498C45.0152 123.416 44.9406 123.354 44.8519 123.321Z" fill="#E0E0E0"/>
<path d="M45.2854 82.0193H34.8014C33.9579 82.0193 33.2742 82.703 33.2742 83.5465V86.6628C33.2742 87.5062 33.9579 88.19 34.8014 88.19H45.2854C46.1288 88.19 46.8126 87.5062 46.8126 86.6628V83.5465C46.8126 82.703 46.1288 82.0193 45.2854 82.0193Z" fill="#4CAF4F"/>
<path d="M34.7041 88.1929V88.7295C34.7041 89.1718 35.1847 89.5314 35.7743 89.5314H44.3243C44.9139 89.5314 45.3945 89.1718 45.3945 88.7295V88.1929H34.7041Z" fill="#4CAF4F"/>
<path opacity="0.3" d="M34.7041 88.1929V88.7295C34.7041 89.1718 35.1847 89.5314 35.7743 89.5314H44.3243C44.9139 89.5314 45.3945 89.1718 45.3945 88.7295V88.1929H34.7041Z" fill="white"/>
</svg>
