<svg width="131" height="27" viewBox="0 0 131 27" fill="none" xmlns="http://www.w3.org/2000/svg">
<path d="M36.6387 13.4154C36.6387 6.60358 40.9439 1.99219 47.2774 1.99219C52.2524 1.99219 56.0792 4.95802 56.902 9.47375H53.6874C52.8647 6.60358 50.3772 4.86235 47.1817 4.86235C42.7234 4.86235 39.7767 8.23001 39.7767 13.3963C39.7767 18.5626 42.7043 21.9303 47.1817 21.9303C50.4155 21.9303 52.9986 20.189 53.8214 17.4719H56.9977C56.041 21.8729 52.0993 24.8004 47.1243 24.8004C40.8291 24.7813 36.6387 20.2656 36.6387 13.4154Z" fill="black"/>
<path d="M58.166 24.4368V1.95386H61.0362V24.4559H58.166V24.4368Z" fill="black"/>
<path d="M62.3379 16.9934C62.3379 12.3246 65.3037 9.07178 69.6472 9.07178C73.8951 9.07178 76.6696 11.9993 76.6696 16.4385V17.5101L65.1124 17.5483C65.3229 20.7055 66.9684 22.4467 69.8194 22.4467C72.0582 22.4467 73.5124 21.5283 74.0099 19.8253H76.7078C75.9807 23.0399 73.4741 24.8385 69.762 24.8385C65.3803 24.8194 62.3379 21.624 62.3379 16.9934ZM65.1889 15.6158H73.7994C73.7994 13.1474 72.173 11.4827 69.6472 11.4827C67.1406 11.4827 65.5525 12.9752 65.1889 15.6158Z" fill="black"/>
<path d="M77.0703 20.2845C77.0703 17.5292 79.1177 15.8262 82.6384 15.5392L87.3455 15.1757V14.7547C87.3455 12.2481 85.853 11.3679 83.8248 11.3679C81.4138 11.3679 80.0361 12.4394 80.0361 14.2381H77.5295C77.5295 11.1192 80.0936 9.07178 83.9396 9.07178C87.6325 9.07178 90.1391 11.0235 90.1391 15.0609V24.4367H87.6899L87.3838 22.0258C86.6184 23.7287 84.571 24.8003 82.1601 24.8003C78.9646 24.8194 77.0703 23.0016 77.0703 20.2845ZM87.3838 17.9884V17.1848L83.5569 17.4909C81.012 17.7397 79.9787 18.7155 79.9787 20.1889C79.9787 21.777 81.1459 22.5807 83.002 22.5807C85.7191 22.5807 87.3838 20.8012 87.3838 17.9884Z" fill="black"/>
<path d="M92.2051 24.4367V9.49273H94.8074L95.1135 11.7889C96.0702 10.0859 97.9645 9.07178 100.069 9.07178C104.011 9.07178 105.81 11.4827 105.81 15.3096V24.4559H102.939V15.941C102.939 12.9178 101.543 11.6932 99.3422 11.6932C96.6443 11.6932 95.0944 13.6258 95.0944 16.5151V24.4367H92.2051Z" fill="black"/>
<path d="M109.197 24.4368V11.9228H106.27V9.49277H109.197V4.82397H112.067V9.49277H114.995V11.9228H112.067V24.4559H109.197V24.4368Z" fill="black"/>
<path d="M122.323 9.11011C126.781 9.11011 130.092 12.3438 130.092 16.9744C130.092 21.5857 126.781 24.8386 122.323 24.8386C117.826 24.8386 114.535 21.6049 114.535 16.9744C114.516 12.3438 117.826 9.11011 122.323 9.11011ZM122.323 22.2363C125.193 22.2363 127.221 20.0741 127.221 16.9552C127.221 13.8363 125.212 11.6741 122.323 11.6741C119.415 11.6741 117.425 13.8363 117.425 16.9552C117.425 20.0741 119.415 22.2363 122.323 22.2363Z" fill="black"/>
<path d="M0.299917 18.4349C1.61816 14.0847 4.07888 12.5907 5.77795 11.7704C7.30125 11.0234 10.4211 10.5108 12.6621 11.4336C12.706 11.4482 12.7207 11.4921 12.7207 11.5361C12.706 11.58 12.6768 11.6093 12.6328 11.6093C10.9923 11.7119 9.52762 12.4149 8.44373 13.4988C7.72602 14.2165 7.16943 15.1246 6.84719 16.1206C6.49566 17.2338 5.55824 17.9808 4.38647 18.0834C3.17076 18.1859 1.95504 18.4495 0.79792 18.8743C0.666096 18.9329 0.519625 18.9036 0.417095 18.8011C0.299917 18.6985 0.255976 18.5667 0.299917 18.4349Z" fill="black"/>
<path d="M10.8765 26.6667C7.75666 23.3711 7.71272 20.4856 7.84454 18.5815C7.94707 16.8971 9.0749 13.953 10.9937 12.459C11.023 12.4297 11.0816 12.4297 11.1109 12.459C11.1401 12.4883 11.1548 12.5322 11.1401 12.5762C10.4078 14.0409 10.276 15.6667 10.6861 17.1461C10.9497 18.1421 11.4477 19.0648 12.1654 19.8411C12.9564 20.7053 13.1322 21.9064 12.6342 22.961C12.1069 24.0742 11.726 25.2606 11.521 26.4763C11.4917 26.6228 11.3891 26.7399 11.2573 26.7839C11.1109 26.8132 10.9644 26.7692 10.8765 26.6667Z" fill="black"/>
<path d="M23.281 21.6428C18.8576 22.6827 16.3383 21.2913 14.7711 20.2367C13.3649 19.2846 11.3729 16.8385 11.0507 14.4364C11.036 14.3925 11.0653 14.3632 11.1093 14.3339C11.1532 14.3192 11.1972 14.3339 11.2265 14.3632C12.1346 15.7253 13.4821 16.6481 14.9615 17.0436C15.9575 17.3072 17.0121 17.3365 18.0374 17.1168C19.1798 16.8678 20.3077 17.3072 20.9814 18.274C21.6845 19.2846 22.5048 20.1927 23.4568 20.9837C23.574 21.0862 23.6179 21.218 23.5886 21.3645C23.5447 21.511 23.4275 21.6135 23.281 21.6428Z" fill="black"/>
<path d="M25.1415 8.37235C23.8232 12.7226 21.3772 14.2166 19.6634 15.0514C18.1401 15.7985 15.035 16.2965 12.7793 15.3737C12.7354 15.359 12.7207 15.3151 12.7207 15.2712C12.7207 15.2272 12.75 15.1979 12.7939 15.1979C14.4344 15.0954 15.8991 14.3923 16.983 13.3084C17.7007 12.5907 18.2573 11.6973 18.5796 10.6866C18.9311 9.57342 19.8685 8.82641 21.0403 8.72388C22.256 8.62135 23.4717 8.3577 24.6288 7.93294C24.7607 7.87435 24.9218 7.90364 25.0097 8.00617C25.1415 8.09406 25.1854 8.24053 25.1415 8.37235Z" fill="black"/>
<path d="M14.5807 0.126086C17.6859 3.43634 17.7445 6.30718 17.6127 8.21131C17.4808 9.91038 16.3823 12.8545 14.4489 14.3338C14.4196 14.3631 14.3756 14.3631 14.3317 14.3338C14.3024 14.3045 14.2878 14.2606 14.3024 14.2166C15.0348 12.7519 15.1666 11.1261 14.7565 9.64673C14.4928 8.65072 13.9948 7.72795 13.2771 6.95166C12.4862 6.08747 12.3104 4.88641 12.8084 3.83181C13.321 2.71863 13.7019 1.53221 13.9069 0.316499C13.9362 0.170028 14.0388 0.0528506 14.1706 0.00890913C14.3317 -0.0203852 14.4782 0.0235563 14.5807 0.126086Z" fill="black"/>
<path d="M2.16013 5.14981C6.58357 4.10987 9.08823 5.50135 10.6701 6.57059C12.0762 7.52265 14.0829 9.96873 14.3905 12.3709C14.4051 12.4148 14.3758 12.4441 14.3319 12.4734C14.288 12.488 14.244 12.4734 14.2147 12.4441C13.3213 11.0673 11.9884 10.1445 10.4944 9.74902C9.49835 9.48537 8.44375 9.45607 7.41845 9.67578C6.27598 9.93943 5.14815 9.48537 4.47438 8.51866C3.78596 7.508 2.96572 6.59988 2.01366 5.80894C1.89648 5.70641 1.85254 5.57458 1.88184 5.42811C1.91113 5.29629 2.01366 5.19376 2.16013 5.14981Z" fill="black"/>
</svg>
