<svg width="140" height="25" viewBox="0 0 140 25" fill="none" xmlns="http://www.w3.org/2000/svg">
<path d="M8.45762 11.925C11.1999 12.6934 13.9421 13.4882 16.6976 14.2168C18.8835 14.7997 21.0958 15.2766 23.2552 15.8993C23.6923 16.0318 24.3017 16.6147 24.315 17.0121C24.421 19.3172 24.368 21.6222 24.368 24.1923C21.745 24.1923 19.2279 24.2453 16.7241 24.1393C16.3267 24.126 15.863 23.5431 15.5716 23.1192C13.2268 19.6616 10.9084 16.1775 8.25891 12.7596C8.25891 16.5087 8.25891 20.2577 8.25891 24.0995C5.47691 24.0995 2.92013 24.0995 0.164629 24.0995C0.164629 21.6222 0.111639 19.2112 0.217619 16.8134C0.230867 16.3894 0.827009 15.8463 1.29067 15.5946C3.46328 14.4288 5.68887 13.3557 8.15293 12.1105C5.68887 10.8784 3.50302 9.72591 1.26418 8.67935C0.456076 8.30841 0.111639 7.858 0.138134 6.93066C0.204372 4.69182 0.164629 2.43973 0.164629 0.108154C2.90688 0.108154 5.46367 0.108154 8.20592 0.108154C8.20592 3.47304 8.19267 6.77169 8.21916 10.0571C8.21916 10.693 8.39138 11.3289 8.48412 11.9647L8.45762 11.925Z" fill="black"/>
<path d="M8.48353 11.9647C10.9741 8.14939 13.4514 4.33408 15.9684 0.532023C16.1406 0.267071 16.5778 0.0286148 16.8825 0.0286148C19.3068 -0.011128 21.7179 0.00211961 24.3541 0.00211961C24.3541 2.5854 24.3806 5.04945 24.3276 7.50026C24.3276 7.76521 23.9435 8.18913 23.6653 8.25537C18.6047 9.51389 13.5309 10.7194 8.45703 11.925L8.48353 11.9647Z" fill="black"/>
<path d="M46.3517 22.9849C44.5054 22.9849 42.9016 22.6492 41.5588 22.0151C40.1974 21.3624 39.0784 20.5045 38.2019 19.4601C37.3067 18.4157 36.6539 17.2781 36.225 16.0472C35.7774 14.835 35.5723 13.6414 35.5723 12.5038V11.8884C35.5723 10.6388 35.7961 9.38932 36.2437 8.15844C36.6912 6.92757 37.3626 5.78994 38.2765 4.78286C39.1716 3.77578 40.3093 2.97385 41.652 2.35841C42.9948 1.76162 44.5614 1.44458 46.389 1.44458C48.1794 1.44458 49.746 1.74297 51.0887 2.35841C52.4315 2.97385 53.5505 3.77578 54.4643 4.78286C55.3595 5.78994 56.0495 6.90892 56.4971 8.15844C56.9447 9.40797 57.1685 10.6388 57.1685 11.8884V12.4852C57.1685 13.6228 56.9447 14.7977 56.5158 16.0286C56.0682 17.2595 55.4155 18.3971 54.5389 19.4415C53.6437 20.5045 52.5248 21.3437 51.182 21.9965C49.7646 22.6492 48.1794 22.9849 46.3517 22.9849ZM46.3517 19.2923C47.3961 19.2923 48.3286 19.1058 49.1678 18.7328C49.9884 18.3598 50.6971 17.8376 51.2939 17.1849C51.8907 16.5321 52.3196 15.7675 52.6367 14.9283C52.9537 14.089 53.1029 13.1752 53.1029 12.2241C53.1029 11.1983 52.9537 10.2659 52.6367 9.40797C52.3196 8.55008 51.8907 7.8041 51.2939 7.17001C50.7158 6.53593 49.9884 6.05104 49.1492 5.67804C48.31 5.3237 47.3775 5.15585 46.3517 5.15585C45.3074 5.15585 44.3562 5.34235 43.517 5.67804C42.6778 6.03239 41.9691 6.53593 41.3723 7.17001C40.7755 7.8041 40.3466 8.55008 40.0295 9.40797C39.7125 10.2659 39.5633 11.217 39.5633 12.2241C39.5633 13.1752 39.7125 14.0704 40.0295 14.9283C40.3466 15.7861 40.7755 16.5321 41.3723 17.1849C41.9504 17.8562 42.6778 18.3598 43.517 18.7328C44.3562 19.1058 45.3074 19.2923 46.3517 19.2923Z" fill="black"/>
<path d="M65.822 22.9288C64.0689 22.9288 62.7075 22.3507 61.7563 21.1944C60.7866 20.0381 60.3203 18.3224 60.3203 16.0471V7.22583H64.2181V16.3641C64.2181 17.2966 64.4792 18.0426 65.0014 18.5834C65.5236 19.1429 66.2322 19.404 67.1274 19.404C68.0226 19.404 68.7499 19.1243 69.3281 18.5461C69.8876 17.968 70.186 17.1847 70.186 16.1963V7.22583H74.0837V22.4439H71.0065V15.9725H71.3049C71.3049 17.5018 71.1184 18.7886 70.7268 19.8143C70.3352 20.8401 69.757 21.6233 68.9551 22.1269C68.1718 22.6491 67.1834 22.9102 66.0084 22.9102H65.822V22.9288Z" fill="black"/>
<path d="M76.5645 10.1166V7.2632H87.3066V10.1166H76.5645ZM85.1246 22.6491C83.7259 22.6491 82.5696 22.4626 81.6744 22.1083C80.7606 21.7353 80.0892 21.1385 79.6416 20.262C79.194 19.4041 78.9703 18.2292 78.9703 16.7559L79.0076 2.99243H82.6442L82.6069 17.0169C82.6069 17.7629 82.8121 18.3411 83.2037 18.7327C83.5954 19.143 84.1735 19.3295 84.9195 19.3295H87.3066V22.6491H85.1246Z" fill="black"/>
<path d="M90.5703 22.4439V7.26316H93.6475V13.6973H93.5729C93.5729 11.5153 94.0391 9.8741 94.9716 8.75513C95.9041 7.63615 97.2655 7.07666 99.0745 7.07666H99.634V10.4709H98.571C97.2655 10.4709 96.2584 10.8252 95.5311 11.5153C94.8038 12.224 94.4494 13.231 94.4494 14.5552V22.4812H90.5703V22.4439Z" fill="black"/>
<path d="M100.846 10.1725V7.26318H106.851V10.1725H100.846ZM104.389 5.43552C103.624 5.43552 103.065 5.23037 102.692 4.83873C102.319 4.44709 102.151 3.9249 102.151 3.30946C102.151 2.69402 102.338 2.19048 102.692 1.79884C103.065 1.4072 103.624 1.2207 104.389 1.2207C105.154 1.2207 105.713 1.4072 106.068 1.79884C106.422 2.19048 106.59 2.69402 106.59 3.30946C106.59 3.9249 106.403 4.42844 106.068 4.83873C105.713 5.24902 105.154 5.43552 104.389 5.43552ZM102.972 22.444V7.26318H106.851V22.4626H102.972V22.444Z" fill="black"/>
<path d="M114.387 22.4441L109.631 7.26328H113.641L118.191 22.4627H114.387V22.4441ZM115.524 22.4441V19.255H119.646V22.4441H115.524ZM117.072 22.4441L120.988 7.24463H124.737L120.634 22.4441H117.072Z" fill="black"/>
<path d="M131.785 22.8356C130.685 22.8356 129.715 22.6491 128.894 22.2575C128.055 21.8658 127.421 21.3064 126.973 20.579C126.507 19.8517 126.283 18.9752 126.283 17.9494C126.283 16.8305 126.563 15.9166 127.104 15.2079C127.645 14.4992 128.428 13.9771 129.435 13.6041C130.423 13.2497 131.598 13.0819 132.941 13.0819H136.466V15.4131H132.885C131.99 15.4131 131.3 15.6369 130.834 16.0658C130.349 16.5134 130.125 17.0729 130.125 17.7629C130.125 18.453 130.367 19.0125 130.834 19.4414C131.3 19.8703 131.99 20.0941 132.885 20.0941C133.426 20.0941 133.93 20.0009 134.377 19.7957C134.825 19.6092 135.216 19.2736 135.515 18.7887C135.832 18.3038 136 17.6697 136.037 16.8491L136.988 17.9494C136.895 19.0125 136.634 19.9076 136.223 20.635C135.813 21.3623 135.216 21.9218 134.489 22.2948C133.743 22.6491 132.848 22.8356 131.785 22.8356ZM136.671 22.444V17.9308H136.018V12.9327C136.018 12.0561 135.795 11.4034 135.366 10.9745C134.937 10.5455 134.284 10.3217 133.389 10.3217C132.922 10.3217 132.363 10.3404 131.71 10.359C131.058 10.3777 130.405 10.3963 129.733 10.4336C129.062 10.4523 128.484 10.4896 127.962 10.5269V7.2259C128.391 7.1886 128.875 7.1513 129.416 7.114C129.957 7.0767 130.517 7.05805 131.076 7.0394C131.636 7.0394 132.176 7.02075 132.68 7.02075C134.247 7.02075 135.552 7.2259 136.578 7.63619C137.604 8.04648 138.405 8.69922 138.928 9.5571C139.468 10.4336 139.73 11.5899 139.73 13.0073V22.4253H136.671V22.444Z" fill="black"/>
</svg>
