<svg width="158" height="26" viewBox="0 0 158 26" fill="none" xmlns="http://www.w3.org/2000/svg">
<path d="M8.54471 19.0128C8.54471 16.6311 8.54471 14.5231 8.54471 12.4151C8.36677 12.4151 8.28464 12.3878 8.22989 12.4151C5.65652 14.2083 3.06946 16.0014 0.496097 17.8083C0.33184 17.9315 0.0991414 18.1368 0.0991414 18.301C0.0717652 20.4638 0.0854533 22.6128 0.0854533 24.9535C0.0854533 24.9808 0.0854533 25.0082 0.0854533 25.0356C0.126518 25.0082 0.153894 24.9808 0.194958 24.9535H8.53103H24.9568V7.59692C19.8785 11.1558 14.8002 14.7011 9.72189 18.26C9.39338 18.479 9.06486 18.6706 8.54471 19.0128Z" fill="black"/>
<path d="M8.62695 0C8.62695 4.02431 8.62695 8.06231 8.62695 12.1277C9.05129 11.8539 9.35242 11.6623 9.65356 11.457C14.6497 7.9528 19.6459 4.46233 24.6421 0.958169C24.7516 0.87604 24.8611 0.807599 24.9569 0.725471V0H8.62695Z" fill="black"/>
<path d="M36.4375 23.8071V2.41479H39.6521L47.2102 20.7456L54.73 2.41479H57.9637V23.8071H55.3997V6.87312L48.4348 23.8071H45.9664L39.0206 6.93052V23.8071H36.4375Z" fill="black"/>
<path d="M61.8477 19.1958C61.8477 15.4646 65.4641 14.7566 68.6978 14.4314C71.1661 14.1826 73.3092 14.2209 73.3474 12.9006C73.3092 10.8532 71.6445 9.41814 69.1953 9.41814C66.8417 9.41814 65.0048 10.7384 64.737 12.6519H62.2303C62.5365 9.47554 65.4067 7.23682 69.2527 7.23682C73.2518 7.23682 75.8158 9.62862 75.8158 13.0537V20.9371C75.8158 21.4537 76.0837 21.7407 76.6386 21.7407H77.557V23.8264H76.1219C74.3807 23.8264 73.4623 23.0227 73.4623 21.5302V21.0327C72.5055 22.8888 70.6878 24.056 67.875 24.056C64.2012 24.056 61.8477 22.1617 61.8477 19.1958ZM73.3283 17.2824V15.1776C72.6203 16.1343 70.8217 16.3065 68.8317 16.517C66.593 16.7658 64.3734 17.0719 64.3734 19.1384C64.3734 20.8223 65.9042 21.8938 68.2194 21.8938C71.2618 21.8938 73.3283 19.9612 73.3283 17.2824Z" fill="black"/>
<path d="M80.3906 23.8071V7.61935H82.3997L82.7059 10.7C83.7391 8.61434 85.6335 7.52368 88.3314 7.52368H88.8863V10.0303H88.3314C84.9255 10.0303 82.9355 11.982 82.9355 15.3114V23.8071H80.3906Z" fill="black"/>
<path d="M94.1852 20.7264L93.9173 23.8071H91.9082V0.884033H94.4148V10.1451C95.6011 8.36559 97.6485 7.23666 100.098 7.23666C104.384 7.23666 107.369 10.6617 107.369 15.6175C107.369 20.669 104.365 24.1515 100.098 24.1515C97.4572 24.1515 95.2759 22.8312 94.1852 20.7264ZM104.747 15.6175C104.747 11.982 102.7 9.43712 99.6768 9.43712C96.6153 9.43712 94.4148 11.9055 94.4148 15.4836C94.4148 19.2722 96.6153 21.9319 99.6959 21.9319C102.7 21.951 104.747 19.3487 104.747 15.6175Z" fill="black"/>
<path d="M109.895 15.7708C109.895 10.2409 113.473 7.23682 117.567 7.23682C122.026 7.23682 124.896 10.2409 124.992 15.4263V16.1343H112.42C112.573 19.5977 114.582 21.9512 117.854 21.9512C120.112 21.9512 121.758 20.8223 122.447 18.7175H124.915C124.188 22.0469 121.547 24.1516 117.854 24.1516C113.071 24.1516 109.895 20.6309 109.895 15.7708ZM122.332 14.0295C121.873 11.1785 120.17 9.43727 117.567 9.43727C115.003 9.43727 113.109 11.1211 112.592 14.0295H122.332Z" fill="black"/>
<path d="M128.418 23.8071V0.884033H130.963V23.8071H128.418Z" fill="black"/>
<path d="M135.287 23.8071V0.884033H137.832V23.8071H135.287Z" fill="black"/>
<path d="M141.256 15.5603C141.256 10.1452 144.796 7.23682 149.197 7.23682C154.363 7.23682 157.137 10.968 157.137 15.5603C157.137 21.1475 153.751 24.1516 149.197 24.1516C143.992 24.1516 141.256 20.4587 141.256 15.5603ZM154.554 15.5603C154.554 11.9247 152.449 9.45641 149.197 9.45641C145.944 9.45641 143.839 11.9247 143.839 15.5603C143.839 19.7125 146.25 21.9512 149.197 21.9512C152.641 21.9512 154.554 19.081 154.554 15.5603Z" fill="black"/>
</svg>
