<svg width="139" height="29" viewBox="0 0 139 29" fill="none" xmlns="http://www.w3.org/2000/svg">
<path d="M24.8305 9.19195C24.5489 9.20759 24.3456 9.23887 24.1422 9.23887C21.3424 9.23887 18.5425 9.27016 15.7426 9.23887C10.5495 9.17631 6.40444 5.12508 6.43572 0.0727822C6.62342 0.0571404 6.81113 0.0102151 6.99883 0.0102151C9.95513 0.0102151 12.9114 -0.0210685 15.8521 0.0258568C20.6072 0.104066 24.6115 3.95195 24.8305 8.58192C24.8461 8.75398 24.8305 8.92604 24.8305 9.19195Z" fill="black"/>
<path d="M2.71402 4.67139C7.01551 8.97288 11.3326 13.29 15.6967 17.6541C13.2566 19.9065 10.4411 20.7981 7.25014 20.0786C3.54303 19.2495 1.18112 16.9033 0.242614 13.2118C-0.523834 10.0678 0.586734 6.32942 2.71402 4.67139Z" fill="black"/>
<path d="M15.7129 28.6189C15.7129 22.4717 15.7129 16.3714 15.7129 10.2711C19.2323 9.95826 24.5505 13.0553 24.8633 18.9679C25.1293 24.1297 20.9216 28.6346 15.7129 28.6189Z" fill="black"/>
<path d="M40.5842 24.1255C39.1682 23.3219 38.1158 22.0781 37.4079 20.4517C36.6999 18.8253 36.3555 16.7587 36.3555 14.2904C36.3555 11.8412 36.6999 9.79382 37.4079 8.16739C38.0967 6.54097 39.1491 5.29723 40.5459 4.47445C41.9427 3.65167 43.6648 3.23071 45.7122 3.23071C47.5108 3.23071 49.099 3.51773 50.4575 4.1109C51.8161 4.70406 52.9067 5.54598 53.6721 6.63664C54.4375 7.74644 54.8776 9.04758 54.9733 10.5592H52.1414C52.0266 8.99017 51.4143 7.7847 50.2853 6.92366C49.1755 6.08174 47.6448 5.64165 45.7122 5.64165C44.1432 5.64165 42.8803 5.9478 41.9427 6.54097C40.986 7.13413 40.2972 8.05259 39.8571 9.29632C39.417 10.5401 39.1874 12.2048 39.1874 14.2904C39.1874 16.3952 39.417 18.079 39.8571 19.3036C40.2972 20.5474 41.0243 21.4658 42.0001 22.0398C42.976 22.633 44.2771 22.92 45.9035 22.92C47.5108 22.92 48.812 22.6521 49.8452 22.0781C50.8594 21.5232 51.6056 20.6813 52.084 19.5332C52.5623 18.4043 52.7537 16.9692 52.6963 15.2471L53.8443 16.2421H46.2671V13.9651H55.2411V25.0631H53.1555V20.4708L53.4425 20.9301C52.9259 22.4034 52.0457 23.5132 50.7828 24.2403C49.5199 24.9865 47.8935 25.3501 45.8844 25.3501C43.7414 25.3501 41.981 24.9483 40.5842 24.1255Z" fill="black"/>
<path d="M60.8474 24.4508C59.8142 23.8385 59.0297 22.9583 58.513 21.7719C57.9773 20.5856 57.7285 19.0931 57.7285 17.3328C57.7285 15.5724 57.9773 14.0799 58.4939 12.8936C59.0105 11.7072 59.795 10.8079 60.8283 10.2147C61.8615 9.62158 63.1627 9.31543 64.7317 9.31543C67.0278 9.31543 68.7691 9.92773 69.9554 11.1332C71.1417 12.3387 71.7349 14.1182 71.7349 16.4717V17.8876H59.2784V15.8594H69.2666C69.19 14.3669 68.7882 13.2763 68.042 12.5683C67.2957 11.8603 66.2051 11.5159 64.7508 11.5159C63.6793 11.5159 62.8183 11.7072 62.1677 12.1091C61.5171 12.5109 61.0388 13.1232 60.7518 13.9842C60.4456 14.8453 60.3117 15.9551 60.3117 17.3328C60.3117 18.7104 60.4647 19.8202 60.7326 20.6813C61.0196 21.5423 61.4789 22.1546 62.1294 22.5564C62.78 22.9583 63.6411 23.1496 64.7126 23.1496C65.8798 23.1496 66.8174 22.9391 67.5253 22.4799C68.2333 22.0398 68.7117 21.3701 68.9604 20.4517H71.5053C71.3905 21.4658 71.0461 22.346 70.472 23.0922C69.898 23.8385 69.1135 24.4125 68.1376 24.7952C67.1426 25.1779 66.0137 25.3883 64.7126 25.3883C63.1818 25.3501 61.8807 25.0439 60.8474 24.4508Z" fill="black"/>
<path d="M74.1641 9.56427H76.6133V12.5301H76.7663V25.0632H74.1832V9.56427H74.1641ZM84.3244 14.8836C84.3244 13.8886 84.0566 13.085 83.5399 12.4536C83.0042 11.8413 82.1431 11.516 80.9376 11.516C79.9809 11.516 79.1773 11.7265 78.5458 12.1283C77.9144 12.5492 77.4552 13.1041 77.1682 13.8312C76.8811 14.5584 76.7472 15.362 76.7472 16.2804L76.3645 12.4153C76.8812 11.3246 77.57 10.5401 78.4693 10.0426C79.3495 9.54513 80.3827 9.29639 81.5882 9.29639C82.698 9.29639 83.6547 9.50687 84.4584 9.90869C85.262 10.3296 85.8743 10.9228 86.2761 11.7265C86.678 12.5301 86.8884 13.5442 86.8884 14.7497V25.0823H84.3053V14.8836H84.3244Z" fill="black"/>
<path d="M89.875 3.53687H92.4581V6.73231H89.875V3.53687ZM89.875 9.56421H92.4581V25.0631H89.875V9.56421Z" fill="black"/>
<path d="M99.9962 17.0074L94.8299 9.58325H97.8149L101.546 15.1514L105.296 9.58325H108.262L102.981 17.0074L108.568 25.0821H105.583L101.412 18.8826L97.2983 25.0821H94.3516L99.9962 17.0074Z" fill="black"/>
<path d="M112.837 19.7629C112.837 20.7578 113.105 21.5615 113.641 22.1929C114.176 22.8244 115.057 23.1305 116.262 23.1305C117.219 23.1305 118.003 22.92 118.635 22.5182C119.247 22.1164 119.706 21.5424 120.012 20.8152C120.299 20.0881 120.453 19.2845 120.453 18.366L120.797 22.2312C120.299 23.3219 119.611 24.1255 118.711 24.6039C117.812 25.1014 116.779 25.3501 115.573 25.3501C114.483 25.3501 113.526 25.1396 112.722 24.7378C111.919 24.336 111.306 23.7237 110.885 22.92C110.464 22.1164 110.254 21.1023 110.254 19.8968V9.56421H112.837V19.7629ZM120.433 9.56421H123.017V25.0631H120.433V9.56421Z" fill="black"/>
<path d="M128.161 24.7951C127.204 24.4124 126.477 23.8575 126.018 23.0922C125.539 22.3268 125.291 21.3509 125.271 20.1646H127.855C127.893 20.8534 128.046 21.4275 128.314 21.8675C128.582 22.3076 129.003 22.6329 129.558 22.8243C130.112 23.0347 130.84 23.1304 131.701 23.1304C132.562 23.1304 133.27 23.0539 133.844 22.8817C134.399 22.7286 134.82 22.4607 135.107 22.0972C135.374 21.7527 135.528 21.3126 135.528 20.8152C135.528 20.4325 135.451 20.1072 135.279 19.8393C135.107 19.5714 134.858 19.3609 134.494 19.1696C134.131 18.9974 133.633 18.8443 133.002 18.6912L129.711 17.945C128.41 17.658 127.434 17.1605 126.802 16.4525C126.152 15.7445 125.846 14.8452 125.846 13.7354C125.846 12.7978 126.075 11.9942 126.534 11.3245C126.994 10.6548 127.663 10.1381 128.543 9.79373C129.424 9.44931 130.476 9.2771 131.739 9.2771C132.964 9.2771 134.016 9.46844 134.915 9.832C135.815 10.2147 136.484 10.7505 136.963 11.4584C137.422 12.1855 137.671 13.0466 137.671 14.0798H135.126C135.049 13.4675 134.877 12.97 134.628 12.6065C134.36 12.2429 134.016 11.9559 133.557 11.7837C133.097 11.6115 132.504 11.5158 131.796 11.5158C131.107 11.5158 130.514 11.5924 130.055 11.7454C129.577 11.8985 129.213 12.1473 128.945 12.4725C128.697 12.7978 128.563 13.1805 128.563 13.6206C128.563 13.9842 128.639 14.2903 128.811 14.5582C128.964 14.8069 129.213 15.0366 129.558 15.2088C129.883 15.381 130.342 15.5341 130.916 15.668L134.513 16.5099C135.374 16.7013 136.082 16.9883 136.637 17.3518C137.192 17.7345 137.594 18.1937 137.881 18.7486C138.149 19.3035 138.283 19.9732 138.283 20.7386C138.283 21.7527 138.034 22.6138 137.556 23.3026C137.077 24.0106 136.35 24.5272 135.394 24.8717C134.418 25.2161 133.251 25.3883 131.854 25.3883C130.304 25.35 129.117 25.1587 128.161 24.7951Z" fill="black"/>
</svg>
