<svg width="118" height="31" viewBox="0 0 118 31" fill="none" xmlns="http://www.w3.org/2000/svg">
<path d="M22.3655 3C22.5153 3.10894 22.6787 3.19064 22.7876 3.29957C23.768 4.27999 24.7348 5.27402 25.7016 6.26806C26.0557 6.63572 26.0557 6.79912 25.688 7.18039C23.5774 9.33187 21.4668 11.497 19.3289 13.6484C18.9749 14.0025 18.866 14.3837 18.8115 14.8739C18.6345 16.2629 19.1383 17.2569 20.1596 18.1965C22.0659 19.9667 23.8225 21.8867 25.6472 23.7386C26.0693 24.1743 26.0693 24.3105 25.6472 24.7462C24.694 25.713 23.7408 26.6934 22.7876 27.6602C22.4336 28.0143 22.2566 28.0143 21.9161 27.6602C19.5468 25.25 17.1638 22.8398 14.8217 20.416C14.6175 20.1982 14.4677 19.8305 14.4677 19.5309C14.4405 16.8484 14.4405 14.1523 14.4677 11.4697C14.4677 11.1565 14.6311 10.7753 14.849 10.5574C17.2047 8.11996 19.574 5.72338 21.9434 3.31319C22.0523 3.17702 22.1885 3.10894 22.3655 3Z" fill="black"/>
<path d="M12.6032 15.5139C12.6032 16.8348 12.6032 18.142 12.6032 19.4628C12.6032 19.8577 12.4807 20.1845 12.2083 20.4705C9.8526 22.8535 7.51049 25.25 5.15476 27.6466C4.80072 28.0143 4.61009 28.0143 4.25605 27.6466C3.30286 26.6798 2.34968 25.713 1.39649 24.7326C1.0016 24.3241 1.0016 24.1607 1.39649 23.7522C3.53435 21.5735 5.65859 19.3948 7.81006 17.2297C8.10963 16.9301 8.19134 16.6033 8.2458 16.1948C8.45006 14.7514 7.919 13.7029 6.84326 12.7089C4.96413 10.9795 3.23478 9.08675 1.43734 7.26208C0.974369 6.78549 0.974369 6.64932 1.45096 6.15911C2.37691 5.23316 3.28925 4.30721 4.20158 3.38126C4.6237 2.94552 4.78711 2.94552 5.19561 3.36765C7.53772 5.75061 9.87983 8.11995 12.2083 10.5301C12.4262 10.7616 12.576 11.1565 12.5896 11.4833C12.6305 12.8178 12.6032 14.1659 12.6032 15.5139Z" fill="black"/>
<path d="M1.59507 15.914C9.46522 13.855 14.6205 7.90662 13.6443 2.24805C9.16017 2.24805 4.66077 2.24805 0.130859 2.24805C0.130859 11.3689 0.130859 20.3982 0.130859 29.519C4.73703 29.519 9.23643 29.519 13.7968 29.519C13.7358 25.9805 12.5614 23.0063 10.2888 20.4439C8.03151 17.9121 5.14884 16.5089 1.59507 15.914Z" fill="black"/>
<path d="M13.7207 2.24805C13.7817 5.78656 14.9561 8.76074 17.2287 11.3231C19.486 13.855 22.3687 15.2582 25.9225 15.853C18.0523 17.9273 12.8971 23.8757 13.8732 29.519C18.3574 29.519 22.8568 29.519 27.3867 29.519C27.3867 20.3982 27.3867 11.3689 27.3867 2.24805C22.7653 2.24805 18.2811 2.24805 13.7207 2.24805Z" fill="black"/>
<path d="M47.4726 25.0875C45.8163 25.0875 44.4116 24.9198 43.2375 24.5633C42.0844 24.2279 40.9732 23.8086 39.9668 23.3054V19.4896H40.1765C41.1828 20.4331 42.315 21.1669 43.5939 21.6701C44.8728 22.1942 46.0888 22.4458 47.2629 22.4458C48.9402 22.4458 50.2191 22.0894 51.0787 21.3975C51.9383 20.7056 52.3786 19.7622 52.3786 18.63C52.3786 17.7285 52.148 16.9737 51.7077 16.4076C51.2674 15.8415 50.5336 15.4012 49.5482 15.1287C48.8354 14.919 48.2064 14.7513 47.6194 14.6255C47.0323 14.4997 46.2985 14.311 45.4179 14.0804C44.6212 13.8707 43.9294 13.6191 43.3004 13.3046C42.6714 12.9902 42.1263 12.5708 41.6441 12.0677C41.1828 11.5645 40.8054 10.9774 40.5538 10.2856C40.3022 9.61464 40.1555 8.81794 40.1555 7.93737C40.1555 6.09236 40.8683 4.54089 42.315 3.28293C43.7616 2.02497 45.6066 1.396 47.85 1.396C49.1289 1.396 50.3449 1.52179 51.4771 1.77338C52.6093 2.02497 53.6785 2.40236 54.6429 2.86361V6.51168H54.4123C53.6785 5.84077 52.756 5.27469 51.6239 4.77151C50.4917 4.26833 49.2966 4.01674 48.0387 4.01674C46.634 4.01674 45.4808 4.35219 44.6212 5.00214C43.7407 5.67305 43.3213 6.53265 43.3213 7.60191C43.3213 8.56635 43.5729 9.34208 44.0971 9.92913C44.6003 10.4952 45.355 10.9145 46.3195 11.1871C46.9694 11.3548 47.7452 11.5645 48.6886 11.7741C49.6111 11.9838 50.3869 12.1935 51.0158 12.3821C52.5883 12.8644 53.7414 13.5982 54.4752 14.5626C55.209 15.527 55.5654 16.7431 55.5654 18.1478C55.5654 19.0283 55.3768 19.9089 55.0203 20.7895C54.6639 21.6701 54.1398 22.4039 53.4898 22.9909C52.756 23.6618 51.9174 24.165 50.9949 24.5214C50.0304 24.9198 48.8773 25.0875 47.4726 25.0875Z" fill="black"/>
<path d="M63.5955 25.0246C62.023 25.0246 60.786 24.5843 59.9055 23.6828C59.0249 22.7813 58.5846 21.3765 58.5846 19.4267V9.92914H56.6348V7.51806H58.5846V2.59106H61.4779V7.51806H66.7823V9.90817H61.4779V18.0849C61.4779 18.9655 61.4989 19.6154 61.5198 20.0976C61.5408 20.5589 61.6666 20.9992 61.8762 21.4185C62.044 21.7749 62.3375 22.0474 62.7149 22.2152C63.1132 22.4039 63.6374 22.4877 64.2873 22.4877C64.7486 22.4877 65.2098 22.4248 65.6501 22.2781C66.0904 22.1313 66.4049 22.0265 66.5936 21.9426H66.7613V24.5424C66.2162 24.6892 65.6711 24.815 65.105 24.8988C64.5809 24.9617 64.0567 25.0246 63.5955 25.0246Z" fill="black"/>
<path d="M78.502 22.8443C78.2714 23.012 77.9569 23.2636 77.5585 23.5781C77.1602 23.8926 76.7828 24.1442 76.4054 24.3329C75.9022 24.6055 75.3991 24.7942 74.9168 24.9409C74.4346 25.0877 73.7637 25.1506 72.9041 25.1506C72.1913 25.1506 71.5204 25.0248 70.8914 24.7522C70.2624 24.4797 69.6963 24.1023 69.2141 23.641C68.7529 23.1798 68.3755 22.5927 68.1029 21.9009C67.8304 21.209 67.6836 20.4752 67.6836 19.7204C67.6836 18.5253 67.9352 17.519 68.4384 16.6803C68.9416 15.8417 69.7383 15.1918 70.8285 14.6886C71.7929 14.2483 72.9251 13.9338 74.2459 13.7661C75.5458 13.5983 76.9715 13.4725 78.481 13.3887V12.8436C78.481 12.1727 78.3762 11.6275 78.1666 11.2082C77.9569 10.7889 77.6843 10.4744 77.307 10.2438C76.9296 10.0132 76.4893 9.84544 75.9651 9.78255C75.441 9.69868 74.8749 9.67772 74.3298 9.67772C73.6589 9.67772 72.8831 9.78255 71.9816 9.97124C71.0801 10.1809 70.1785 10.4535 69.277 10.8308H69.1093V7.89561C69.6334 7.74885 70.4092 7.58112 71.3946 7.39243C72.38 7.20374 73.3654 7.11987 74.3508 7.11987C75.5249 7.11987 76.5312 7.20374 77.3279 7.39243C78.1456 7.58112 78.8584 7.91658 79.5084 8.39879C80.1374 8.86004 80.5986 9.48902 80.9131 10.2228C81.2276 10.9776 81.3744 11.8791 81.3744 12.9484V24.6893H78.502V22.8443ZM78.502 20.4542V15.6949C77.8101 15.7578 76.9505 15.8417 75.9022 15.9465C74.8539 16.0514 74.0153 16.1981 73.3654 16.4078C72.5896 16.6384 71.9606 16.9948 71.4575 17.498C70.9543 17.9802 70.7027 18.6721 70.7027 19.5317C70.7027 20.5171 70.9753 21.2509 71.5413 21.7541C72.0864 22.2573 72.9041 22.5089 73.9734 22.5089C74.8749 22.5089 75.7135 22.3202 76.4474 21.9218C77.1602 21.5025 77.8521 21.0203 78.502 20.4542Z" fill="black"/>
<path d="M94.5211 10.621H94.3743C94.1647 10.5581 93.934 10.5162 93.6825 10.5162C93.4518 10.4952 93.1583 10.4952 92.8229 10.4952C92.0471 10.4952 91.2714 10.663 90.4956 10.9984C89.7199 11.3339 89.0071 11.837 88.3152 12.508V24.6892H85.4219V7.51807H88.3152V10.0759C89.3635 9.15341 90.286 8.4825 91.0617 8.10511C91.8374 7.72773 92.6132 7.53903 93.347 7.53903C93.6405 7.53903 93.8711 7.53903 94.0179 7.56C94.1647 7.58096 94.3324 7.60193 94.5211 7.6229V10.621Z" fill="black"/>
<path d="M99.698 24.6682H96.8047V0.76709H99.698V24.6682Z" fill="black"/>
<path d="M117.436 7.51807L108.211 30.9999H105.129L108.19 23.8505L101.963 7.51807H105.087L109.762 20.2234L114.438 7.51807H117.436Z" fill="black"/>
</svg>
