<svg width="190" height="40" viewBox="0 0 190 40" fill="none" xmlns="http://www.w3.org/2000/svg">
<mask id="mask0_1_419" style="mask-type:alpha" maskUnits="userSpaceOnUse" x="0" y="0" width="190" height="40">
<rect width="190" height="40" fill="#D9D9D9"/>
</mask>
<g mask="url(#mask0_1_419)">
<path fill-rule="evenodd" clip-rule="evenodd" d="M97.5491 2.40402C93.8747 2.40402 92.8272 4.26887 92.4883 5.74045C92.1494 7.21203 86.0166 30.8715 85.8163 31.7169C85.6161 32.5651 85.1385 33.2429 85.1385 34.545C85.1385 36.4932 86.4407 37.171 89.4065 37.171C97.7195 37.171 107.273 29.9907 107.273 13.5125C107.273 7.55093 104.477 2.40402 97.5491 2.40402ZM112.079 17.0192C112.079 26.5727 105.153 38.6444 89.4065 38.6444H75.1619C75.1619 38.6444 75.4165 37.7664 75.4165 37.0886C80.0233 37.0886 80.3622 34.0059 80.8715 32.1419C81.3807 30.278 86.1869 12.0418 86.611 10.1778C87.0342 8.31391 87.712 6.16362 87.712 4.86149C87.712 2.11949 83.7829 2.23458 83.7829 2.23458L84.2913 0.848167H94.7228C109.336 0.848167 112.079 8.9917 112.079 17.0192ZM129.098 15.5477C121.634 15.5477 117.957 31.1243 117.957 34.0059C117.957 36.4642 119.683 37.0886 120.7 37.0886C125.422 37.0886 131.81 22.8113 131.81 18.7137C131.81 17.0727 130.369 15.5477 129.098 15.5477ZM128.473 13.1745C130.454 13.1745 132.094 14.0534 133.112 16.6803C133.45 15.4634 133.79 13.8532 133.79 13.8532H138.142C138.142 13.8532 132.573 29.4307 132.064 31.04C131.555 32.6503 130.961 34.2931 131.047 34.9709C131.132 35.6487 131.27 36.0719 132.064 36.0719C133.62 36.0719 136.786 30.2472 136.786 30.2472L138.057 31.04C138.057 31.04 134.976 35.3941 134.042 36.6645C133.112 37.9349 132.009 39.4926 130.028 39.4926C127.542 39.4926 126.862 37.6821 126.862 36.5793C126.862 35.4784 127.794 32.7354 127.794 32.7354C127.794 32.7354 124.883 39.8306 119.259 39.8306C115.838 39.8306 113.689 36.5793 113.689 32.8206C113.69 21.6261 123.019 13.1745 128.473 13.1745ZM170.483 15.5477C163.018 15.5477 159.344 31.1243 159.344 34.0059C159.344 36.4642 161.069 37.0886 162.085 37.0886C166.809 37.0886 173.194 22.8113 173.194 18.7137C173.195 17.0727 171.756 15.5477 170.483 15.5477ZM169.86 13.1745C171.839 13.1745 173.481 14.0534 174.497 16.6803C174.837 15.4634 175.175 13.8532 175.175 13.8532H179.529C179.529 13.8532 173.96 29.4307 173.45 31.04C172.941 32.6503 172.349 34.2931 172.434 34.9709C172.517 35.6487 172.657 36.0719 173.45 36.0719C175.007 36.0719 178.173 30.2472 178.173 30.2472L179.444 31.04C179.444 31.04 176.363 35.3941 175.43 36.6645C174.496 37.9349 173.396 39.4926 171.415 39.4926C168.927 39.4926 168.249 37.6821 168.249 36.5793C168.249 35.4784 169.182 32.7354 169.182 32.7354C169.182 32.7354 166.268 39.8306 160.646 39.8306C157.225 39.8306 155.075 36.5793 155.075 32.8206C155.076 21.6261 164.405 13.1745 169.86 13.1745ZM149.676 5.28557L147.048 13.8532H143.174L141.986 16.6803H146.425C146.425 16.6803 143.174 29.5993 142.749 31.1243C142.325 32.6503 141.648 35.308 141.648 36.5793C141.648 37.8515 141.733 40 144.39 40C148.658 40 152.163 32.4817 152.163 32.4817L150.893 31.6336C150.893 31.6336 148.912 34.7145 148.32 35.308C147.725 35.9006 146.594 36.8339 146.169 36.8339C145.746 36.8339 145.406 36.3256 145.406 35.6478C145.406 34.97 150.438 16.6794 150.438 16.6794H155.075L155.923 13.8523H151.147L153.52 5.28466L149.676 5.28557Z" fill="#1879BF"/>
<path fill-rule="evenodd" clip-rule="evenodd" d="M28.7445 18.3748C28.7445 24.4533 35.7744 25.9774 35.7744 25.9774C34.1153 32.9221 33.0968 38.7749 33.0968 39.4065H41.2937C41.2937 39.4065 47.0333 1.55585 47.2879 0C21.6494 3.67533 10 33.5818 10 39.4065H17.9741C17.9741 37.8506 24.9849 9.58431 43.444 4.01332C41.3563 7.19661 39.3999 12.6688 37.7616 18.3739C37.7625 18.3748 31.7104 18.3748 28.7445 18.3748ZM53.8747 39.4074C53.8747 39.4074 57.3806 14.2229 57.55 13.1745C56.2479 13.1745 50.7938 13.768 49.9157 20.4399C49.6013 22.8294 47.1194 39.4074 47.1194 39.4074H53.8747ZM52.5735 7.39324C52.5735 6.40743 52.9651 5.46199 53.6621 4.76492C54.3592 4.06784 55.3046 3.67623 56.2905 3.67623C57.2763 3.67623 58.2217 4.06784 58.9188 4.76492C59.6159 5.46199 60.0075 6.40743 60.0075 7.39324C60.0075 8.37906 59.6159 9.3245 58.9188 10.0216C58.2217 10.7186 57.2763 11.1103 56.2905 11.1103C55.3046 11.1103 54.3592 10.7186 53.6621 10.0216C52.9651 9.3245 52.5735 8.37906 52.5735 7.39324ZM67.6961 26.6579C68.035 24.3373 69.7603 19.3924 72.2486 19.3924C73.2961 19.3924 73.6051 19.986 74.3672 19.986C76.3471 19.986 77.7036 18.1211 77.7036 16.7655C77.7036 14.9858 76.8563 13.1754 74.7912 13.1754C72.2486 13.1754 69.9298 15.8023 69.252 17.9517C69.4214 17.1035 70.0086 13.4001 70.0458 13.1754C68.7436 13.1754 63.2886 13.7689 62.4106 20.4408C62.0961 22.8303 59.6142 39.4083 59.6142 39.4083H65.8313L67.6961 26.6579Z" fill="#CC2131"/>
</g>
</svg>
