<svg width="45" height="45" viewBox="0 0 45 45" fill="none" xmlns="http://www.w3.org/2000/svg">
<circle cx="22.5" cy="22.5" r="22.5" fill="#F8F8F8"/>
<g clip-path="url(#clip0_1_605)">
<path d="M30.1084 20.3927C30.1324 17.5729 27.7308 14.988 24.7548 14.6305C24.6957 14.6235 24.6312 14.6128 24.5629 14.6015C24.4156 14.5771 24.2632 14.552 24.1095 14.552C23.4996 14.552 23.3365 14.9804 23.2936 15.236C23.2519 15.4844 23.2917 15.6931 23.4117 15.8564C23.6137 16.131 23.9691 16.1798 24.2546 16.2188C24.3383 16.2304 24.4172 16.2411 24.4833 16.256C27.1571 16.8534 28.0574 17.7927 28.4974 20.4438C28.5081 20.5086 28.513 20.5884 28.5181 20.6731C28.5373 20.99 28.5773 21.6493 29.2861 21.6493H29.2862C29.3452 21.6493 29.4086 21.6442 29.4747 21.6341C30.1347 21.5338 30.114 20.9311 30.1041 20.6416C30.1013 20.56 30.0986 20.4829 30.1055 20.4316C30.1074 20.4186 30.1083 20.4057 30.1084 20.3927Z" fill="#1E1E1E"/>
<path d="M23.9365 13.5955C24.0157 13.6012 24.0906 13.6067 24.153 13.6163C28.5437 14.2915 30.5629 16.3717 31.1224 20.7967C31.1319 20.8719 31.1334 20.9637 31.135 21.0608C31.1406 21.4065 31.1521 22.1257 31.9244 22.1406L31.9484 22.1409C32.1906 22.1409 32.3833 22.0678 32.5211 21.9236C32.7616 21.6721 32.7448 21.2985 32.7312 20.9983C32.728 20.9246 32.7248 20.8552 32.7256 20.7945C32.7814 16.2689 28.864 12.1651 24.3425 12.0125C24.3237 12.0119 24.3058 12.0129 24.2878 12.0154C24.27 12.0176 24.2521 12.0186 24.2342 12.0183C24.1891 12.0183 24.1337 12.0144 24.0748 12.0104C24.0037 12.0056 23.9231 12 23.8414 12C23.1213 12 22.9844 12.5118 22.9669 12.8169C22.9265 13.522 23.6086 13.5716 23.9365 13.5955ZM30.9106 26.5157C30.8162 26.4443 30.7228 26.3716 30.6303 26.2978C30.1509 25.912 29.6409 25.5565 29.1477 25.2125C29.0453 25.1413 28.9431 25.0699 28.841 24.9983C28.2092 24.5545 27.6412 24.3389 27.1045 24.3389C26.3817 24.3389 25.7516 24.7383 25.2314 25.5258C25.001 25.8749 24.7214 26.0447 24.3769 26.0447C24.1732 26.0447 23.9417 25.9865 23.6889 25.8718C21.6496 24.947 20.1934 23.5291 19.3607 21.6575C18.9581 20.7529 19.0886 20.1616 19.7971 19.6804C20.1994 19.4073 20.9482 18.899 20.8952 17.9256C20.8351 16.8202 18.3961 13.4942 17.3684 13.1164C16.9334 12.9564 16.4762 12.9549 16.0073 13.1127C14.8259 13.5098 13.9781 14.2073 13.5554 15.1295C13.1469 16.0206 13.1653 17.067 13.6088 18.1554C14.8906 21.3024 16.6929 24.0461 18.9656 26.3102C21.1902 28.5266 23.9244 30.3422 27.0922 31.7062C27.3778 31.8291 27.6773 31.8961 27.896 31.945C27.9705 31.9617 28.0348 31.976 28.0817 31.9889C28.1075 31.9959 28.1341 31.9997 28.1607 31.9999L28.1858 32.0001H28.1859C29.6758 32.0001 31.4648 30.6386 32.0143 29.0864C32.4957 27.7273 31.6168 27.0555 30.9106 26.5157ZM24.5955 17.1903C24.3404 17.1968 23.8095 17.2099 23.6232 17.7506C23.5361 18.0033 23.5465 18.2227 23.6543 18.4027C23.8124 18.6668 24.1154 18.7477 24.391 18.7921C25.3904 18.9525 25.9037 19.5052 26.0064 20.5312C26.0541 21.0097 26.3763 21.3438 26.7899 21.3438C26.8205 21.3438 26.8518 21.342 26.8829 21.3382C27.3804 21.279 27.6216 20.9135 27.5998 20.2519C27.6078 19.5614 27.2464 18.7775 26.6318 18.153C26.0151 17.5267 25.2717 17.174 24.5955 17.1903Z" fill="#1E1E1E"/>
</g>
<defs>
<clipPath id="clip0_1_605">
<rect width="20" height="20" fill="white" transform="translate(13 12)"/>
</clipPath>
</defs>
</svg>
