<svg width="190" height="40" viewBox="0 0 190 40" fill="none" xmlns="http://www.w3.org/2000/svg">
<mask id="mask0_1_432" style="mask-type:alpha" maskUnits="userSpaceOnUse" x="0" y="0" width="190" height="40">
<rect width="190" height="40" fill="#D9D9D9"/>
</mask>
<g mask="url(#mask0_1_432)">
<path fill-rule="evenodd" clip-rule="evenodd" d="M25.5363 3.41846C24.0564 2.85372 23.2454 2.57277 21.695 2.57277C20.0741 2.57277 18.1366 3.17133 18.1366 5.32031C18.1366 9.23209 26.9101 8.31592 26.9101 15.0814C26.9101 19.4508 23.563 21.1779 19.4399 21.1779C17.9947 21.1779 16.5852 20.7907 15.2462 20.3322L15.5281 17.6194C16.5504 18.0066 18.3123 18.6061 19.7922 18.6061C21.4836 18.6061 23.8092 17.6542 23.8092 15.259C23.8092 10.6782 15 11.9467 15 5.56838C15 1.93944 17.8894 0.000939136 21.5898 0.000939136C22.9288 0.000939136 24.5497 0.24713 25.9592 0.741387L25.5363 3.41846ZM54.1149 13.2491H45.939L50.0265 3.10086L54.1149 13.2491ZM39.8425 20.8255H42.9086L44.9881 15.6809H55.0311L57.1096 20.8255H60.3166L51.6483 0.35237H48.5813L39.8425 20.8255ZM74.4452 0.35237H77.3713V18.2537H85.9334V20.8255H74.4452V0.35237ZM101.05 7.99926H104.01V20.8255H101.05V7.99926ZM122.475 10.5711C122.475 6.41313 124.695 2.53706 129.204 2.57277C133.716 2.53706 135.971 6.41313 135.971 10.5711C135.971 14.6586 133.926 18.6051 129.204 18.6051C124.483 18.6051 122.475 14.6595 122.475 10.5711ZM119.338 10.5711C119.338 16.8085 122.968 21.1779 129.204 21.1779C135.443 21.1779 139.071 16.8085 139.071 10.5711C139.071 4.51033 135.443 0 129.204 0C122.968 0 119.338 4.51033 119.338 10.5711ZM152.532 0.35237H156.513L165.57 16.8433H165.605V0.35237H168.565V20.8255H164.794L155.528 3.98224H155.456V20.8255H152.532V0.35237Z" fill="#102257"/>
<path fill-rule="evenodd" clip-rule="evenodd" d="M104.504 0.0358238L102.566 3.48905L100.628 0.0358238H104.504ZM24.6916 34.2157H22.7888V33.1933H27.8976V34.2157H25.9949V39.8188H24.6916V34.2157ZM31.8085 33.1933H33.2884L35.896 39.8188H34.4508L33.8522 38.3032H31.1742L30.5747 39.8188H29.2009L31.8085 33.1933ZM32.5489 34.4985H32.5132L31.5623 37.246H33.4999L32.5489 34.4985ZM38.5392 33.1933H39.9835C41.4286 33.1933 43.12 33.1238 43.12 34.9899C43.12 35.7661 42.5919 36.4013 41.7453 36.5056V36.5404C42.0977 36.577 42.3091 36.9294 42.45 37.2103L43.5071 39.8179H42.0272L41.252 37.7384C41.0406 37.2451 40.8639 37.0685 40.3011 37.0685H39.8782V39.8179H38.5392V33.1933ZM39.8782 36.0123H40.3358C40.9701 36.0123 41.7453 35.908 41.7453 35.0961C41.7453 34.2871 41.0049 34.2147 40.3358 34.2147H39.8782V36.0123ZM51.5769 34.4637C51.0488 34.2157 50.3788 34.1114 49.8498 34.1114C48.2994 34.1114 47.4537 35.1685 47.4537 36.5065C47.4537 37.8813 48.2994 38.9036 49.7089 38.9036C50.0612 38.9036 50.3431 38.8322 50.5902 38.7974V37.0703H49.1808V36.0132H51.8588V39.6083C51.154 39.785 50.4136 39.9259 49.7089 39.9259C47.5589 39.9259 46.0442 38.8669 46.0442 36.6137C46.0442 34.3585 47.4537 33.0552 49.7089 33.0552C50.4841 33.0552 51.0826 33.1595 51.6464 33.3362L51.5769 34.4637ZM55.1711 33.1933H59.0828V34.2157H56.4743V35.8732H58.8714V36.8937H56.4743V38.7617H59.0828V39.8188H55.1711V33.1933ZM63.5574 34.2157H61.6547V33.1933H66.8002V34.2157H64.8965V39.8188H63.5574V34.2157ZM66.8349 38.4789H68.173V39.8188H66.8349V38.4789ZM75.3971 33.1933H76.7718L78.0046 38.4789H78.0403L79.1679 33.1933H80.9654L82.1635 38.4789L83.432 33.1933H84.6996L82.9735 39.8188H81.2821L80.0841 34.4985H80.0483L78.8503 39.8188H77.1589L75.3971 33.1933ZM87.73 33.1933H89.0699V39.8188H87.73V33.1933ZM92.7346 33.1933H94.3546L96.8926 38.1631V33.1933H98.1958V39.8188H96.5402L94.0031 34.8509V39.8188H92.7346V33.1933ZM100.169 38.4789H101.509V39.8188H100.169V38.4789ZM110.671 33.1933H112.467C114.512 33.1933 116.309 33.8633 116.309 36.5056C116.309 39.1479 114.512 39.8179 112.467 39.8179H110.671V33.1933ZM111.973 38.7617H112.714C113.841 38.7617 114.933 37.9508 114.933 36.5065C114.933 35.0623 113.842 34.2157 112.714 34.2157H111.973V38.7617ZM119.408 33.1933H123.356V34.2157H120.747V35.8732H123.11V36.8937H120.747V38.7617H123.356V39.8188H119.408V33.1933ZM126.633 33.1933H127.937V38.7617H130.544V39.8188H126.633V33.1933ZM133.152 33.1933H134.49V39.8188H133.152V33.1933ZM137.168 33.1933H138.579L140.27 38.4093H140.304L141.996 33.1933H143.299L141.081 39.8188H139.423L137.168 33.1933ZM146.083 33.1933H149.994V34.2157H147.389V35.8732H149.784V36.8937H147.389V38.7617H150.031V39.8188H146.083V33.1933ZM153.165 33.1933H154.575C156.021 33.1933 157.712 33.1238 157.712 34.9899C157.712 35.7661 157.183 36.4013 156.337 36.5056V36.5404C156.726 36.577 156.902 36.9294 157.042 37.2103L158.135 39.8179H156.62L155.845 37.7384C155.632 37.2451 155.493 37.0685 154.927 37.0685H154.471V39.8179H153.165V33.1933ZM154.471 36.0123H154.927C155.563 36.0123 156.337 35.908 156.337 35.0961C156.337 34.2871 155.597 34.2147 154.927 34.2147H154.471V36.0123ZM159.58 38.4789H160.918V39.8188H159.58V38.4789ZM161.729 33.759C161.616 33.7143 161.497 33.6901 161.376 33.6876C161.27 33.6876 161.093 33.759 161.093 33.9357C161.093 34.2514 161.87 34.1123 161.87 34.7099C161.87 35.0971 161.552 35.238 161.2 35.238C161.023 35.238 160.917 35.238 160.741 35.1685L160.778 34.8509C160.908 34.9182 161.053 34.9539 161.2 34.9552C161.304 34.9552 161.517 34.8856 161.517 34.7437C161.517 34.3914 160.741 34.5323 160.741 33.9695C160.741 33.5457 161.024 33.4057 161.341 33.4057C161.482 33.4057 161.657 33.4405 161.763 33.4752L161.729 33.759ZM162.188 33.4414H162.786L163.209 34.7795L163.632 33.4414H164.195V35.238H163.843V33.759L163.349 35.238H163.034L162.54 33.759V35.238H162.188V33.4414Z" fill="#DB812E"/>
<path fill-rule="evenodd" clip-rule="evenodd" d="M172.089 0.59947H171.454V0.247101H173.181V0.59947H172.548V2.46656H172.089V0.59947ZM173.499 0.247101H174.238L174.766 1.93848L175.295 0.247101H176V2.46656H175.578V0.635179L174.978 2.46656H174.556L173.955 0.635179V2.46656H173.499V0.247101Z" fill="#102257"/>
</g>
</svg>
