<svg width="190" height="40" viewBox="0 0 190 40" fill="none" xmlns="http://www.w3.org/2000/svg">
<mask id="mask0_1_406" style="mask-type:alpha" maskUnits="userSpaceOnUse" x="0" y="0" width="190" height="40">
<rect width="190" height="40" fill="#D9D9D9"/>
</mask>
<g mask="url(#mask0_1_406)">
<path d="M29.1205 19.3782L32.0292 10.4903H33.0486L35.9076 19.3782H29.1205ZM47.5924 27.4581L40.0097 3.51216H29.8912L21.9107 26.3073C21.6124 27.1643 19.8473 27.8988 19.8473 27.8988V28.5354H27.1813V27.9478C26.4106 28.0457 26.2117 27.1888 26.2117 27.1888L28.4492 22.096H37.1009L38.5677 27.1888C38.7666 27.9478 37.797 27.8499 37.797 27.8499L37.8965 28.5354H48.6117V27.8499C48.189 27.9723 47.7912 27.8009 47.5924 27.4581ZM60.1473 23.2223C59.8738 24.7158 58.4567 25.7197 56.9402 25.5238C54.2054 25.23 54.1557 23.4426 54.1557 23.4426V16.3176C54.1557 16.3176 54.3049 14.163 57.1391 13.9671C58.581 13.7712 59.8987 14.7506 60.0975 16.1707C60.0975 16.2442 60.1224 16.3176 60.1224 16.3911L60.1473 23.2223ZM68.3266 27.0419C68.0283 26.4053 68.3266 3.53665 68.3266 3.53665H57.2634V4.09979C57.2634 4.09979 59.8987 4.54052 60.0975 5.78923C60.2964 7.03795 60.0975 12.3756 60.0975 12.3756C60.0975 12.3756 53.8325 9.53537 49.631 13.2815C45.9018 16.8318 45.7775 22.6836 49.3824 26.3808C49.9293 26.9195 50.526 27.4091 51.1724 27.8254C56.6667 31.3267 60.371 27.0174 60.371 27.0174L61.3903 28.5599H70.4398C70.4647 28.5354 68.6001 27.654 68.3266 27.0419Z" fill="#CE0B10"/>
<path d="M77.9476 13.9916C77.9476 13.9916 79.2156 11.8614 80.9559 13.9916V19.77C80.4338 20.8963 79.1658 21.4839 77.9476 21.1656V13.9916ZM86.9971 24.2506C86.9971 24.2506 84.8093 27.8989 79.5139 26.3318C79.5139 26.3318 76.3565 24.6424 77.6742 22.6347H83.2182C83.2182 22.6347 89.1601 21.5329 88.4142 16.9053C87.6684 12.2777 80.931 11.4207 78.2957 11.6166C75.6604 11.8125 68.8485 13.1591 69.6937 22.6347C69.6937 22.6347 71.8815 32.3551 83.6657 28.5599C83.6657 28.5599 88.1407 26.5767 88.7374 24.422L86.9971 24.2506Z" fill="#CE0B10"/>
<path d="M86.9975 11.5675H96.5442C96.5442 11.5675 97.7624 12.6938 97.5635 13.6977C97.3646 14.7015 103.257 9.09455 106.165 13.0366C109.074 16.9786 102.188 20.5044 100.373 16.0237C100.373 16.0237 99.8756 14.3343 98.8066 15.485L98.1353 16.4155V28.5108H89.235V13.9915C89.235 13.9915 88.0168 12.1796 86.9975 12.3755V11.5675Z" fill="#CE0B10"/>
<path d="M117.452 26.1113C115.563 26.6499 113.599 25.5971 113.027 23.7363C112.927 23.418 112.878 23.0752 112.878 22.7324C113.151 20.137 114.941 17.9334 117.452 17.101V26.1113ZM125.731 26.9438V14.628C123.145 9.33932 108.95 9.24139 107.831 14.2362C106.712 19.2311 110.864 18.2762 112.157 17.6886C113.474 17.101 112.728 16.146 112.927 14.5056C113.126 12.8651 115.413 12.204 117.253 13.2569C119.093 14.3097 113.449 17.7375 113.201 17.7865C112.952 17.8355 103.629 18.7904 105.817 25.2054C108.005 31.6203 116.731 28.2659 116.731 28.2659L117.825 27.2865C119.043 27.5804 118.496 28.5353 118.496 28.5353H127.794V27.8497C127.123 28.2414 125.731 26.9438 125.731 26.9438ZM126.452 11.5674H135.501C135.501 11.5674 136.869 11.8368 136.918 12.8896H138.485C138.485 12.8896 139.504 10.7839 144.078 10.8574C148.653 10.9553 149.15 13.2569 149.324 13.9424C149.498 14.628 149.324 27.0662 149.324 27.0662C149.324 27.0662 150.89 28.168 151.562 27.8252V28.5108H142.811C141.791 28.2659 140.946 27.5314 140.623 26.5275C140.275 24.985 140.623 15.9991 140.623 15.9991C140.648 15.1422 139.976 14.4321 139.106 14.4076H139.007C138.211 14.2362 137.416 14.7504 137.242 15.5339C137.217 15.5829 137.217 15.6564 137.217 15.7053V28.5108H128.839V13.7955C128.839 13.7955 129.062 12.1061 126.054 12.1061V11.5429L126.452 11.5674Z" fill="#CE0B10"/>
<path d="M164.887 18.1295C164.887 18.1295 169.487 19.672 168.94 15.1913C168.94 15.1913 166.603 10.8086 160.164 10.8575C153.749 10.9065 150.343 13.4529 150.443 17.1011C150.667 17.9581 151.263 18.6926 152.109 19.0844C153.575 19.8434 159.716 25.8176 159.716 25.8176C159.716 25.8176 160.76 27.8988 158.075 26.9195L154.048 21.9736C154.048 21.9736 150.567 20.2352 150.443 23.9568C150.319 27.6785 156.907 28.9517 158.846 29.3189C160.785 29.6862 167.672 28.7803 168.915 24.7648C168.915 24.7648 169.735 22.6591 165.26 19.3782L159.293 14.1875C159.293 14.1875 159.343 11.8859 161.63 13.8936L164.887 18.1295Z" fill="#CE0B10"/>
<path d="M143.194 -7.62939e-06V0.734531H139.49V3.06057H143.02V3.79511H139.49V6.95362H138.57V-7.62939e-06H143.194Z" fill="#CE0B10"/>
<path d="M144.088 6.94409V1.85129H144.71L144.884 2.51237C145.306 2.09614 145.903 1.85129 146.525 1.85129V2.61031C145.953 2.58583 145.406 2.83067 145.008 3.24691V6.94409H144.088ZM149.185 4.56908C148.389 4.56908 147.991 4.83841 147.991 5.40156C147.991 5.96471 148.315 6.23404 148.936 6.23404C149.508 6.25852 150.08 6.08713 150.552 5.74434V4.6915C150.08 4.59356 149.632 4.56908 149.185 4.56908ZM147.071 5.40156C147.071 4.34872 147.768 3.83454 149.185 3.83454C149.632 3.83454 150.08 3.85903 150.527 3.93248V3.44279C150.527 2.85516 150.055 2.56134 149.135 2.56134C148.588 2.56134 148.016 2.65928 147.494 2.80619V2.07165C148.016 1.92474 148.588 1.8268 149.135 1.8268C150.676 1.8268 151.447 2.36547 151.447 3.4183V6.94409H150.925L150.602 6.42991C150.105 6.7727 149.508 6.94409 148.911 6.94409C147.693 6.94409 147.071 6.42991 147.071 5.40156ZM152.814 6.94409V1.85129H153.436L153.61 2.51237C154.082 2.09614 154.704 1.87577 155.35 1.85129C156.295 1.72887 157.165 2.36547 157.289 3.2714C157.314 3.41831 157.314 3.5897 157.289 3.76109V6.94409H156.37V3.7366C156.444 3.19794 156.071 2.68376 155.499 2.61031C155.4 2.58583 155.301 2.58583 155.201 2.61031C154.629 2.6348 154.107 2.85516 153.709 3.24691V6.94409H152.814ZM162.56 6.79718C162.112 6.89512 161.64 6.94409 161.168 6.94409C159.328 6.94409 158.408 6.06264 158.408 4.29975C158.408 2.65928 159.328 1.85129 161.168 1.85129C161.64 1.85129 162.088 1.90026 162.56 1.9982V2.73273C162.088 2.6348 161.615 2.58583 161.118 2.58583C160.248 2.46341 159.452 3.02655 159.328 3.88351C159.303 4.03042 159.303 4.17733 159.328 4.32423C159.328 5.59743 159.925 6.23404 161.143 6.23404C161.615 6.23404 162.112 6.18507 162.585 6.08713V6.79718H162.56ZM164.3 3.908H167.11C167.209 3.24691 166.737 2.65928 166.065 2.56134C165.966 2.53686 165.867 2.53686 165.767 2.56134C165.046 2.4634 164.4 2.97758 164.3 3.66315C164.3 3.7366 164.275 3.81006 164.3 3.908ZM165.767 1.8268C166.836 1.6799 167.806 2.38995 167.98 3.44279C168.005 3.61418 168.005 3.81006 167.98 3.98145C167.98 4.20181 167.955 4.42217 167.93 4.64253H164.3C164.3 5.69537 164.922 6.20955 166.165 6.20955C166.687 6.20955 167.234 6.16058 167.731 6.01368V6.74821C167.184 6.89512 166.612 6.94409 166.065 6.94409C164.773 7.13997 163.579 6.25852 163.405 4.98532C163.38 4.76496 163.38 4.5446 163.405 4.32423C163.38 2.68376 164.176 1.85129 165.767 1.8268Z" fill="#CE0B10"/>
<path d="M25.178 32.9808V34.1071H23.1393V39.9344H21.8217V34.1071H19.7831V32.9808H25.178ZM31.3669 38.8737C32.784 38.8737 33.505 38.0657 33.505 36.4497C33.505 34.8582 32.784 34.0502 31.3669 34.0502C29.9001 34.0502 29.1791 34.8582 29.1791 36.4497C29.1791 38.0412 29.9001 38.8737 31.3669 38.8737ZM27.8118 36.4497C27.8118 34.0992 29.0051 32.8995 31.3669 32.8995C33.7039 32.8995 34.8723 34.0747 34.8723 36.4497C34.8723 38.8003 33.7039 39.9755 31.3669 39.9755C29.1045 39.9755 27.9112 38.8003 27.8118 36.4497ZM42.8543 32.9808V34.1071H40.8157V39.9344H39.498V34.1071H37.4594V32.9808H42.8543ZM45.7133 39.9344H44.3708L47.379 32.9808H48.7961L51.854 39.9344H50.4369L49.6414 38.0246H47.3044L47.7519 36.8983H49.169L48.0503 34.2784L45.7133 39.9344ZM56.155 32.9808V38.8081H58.9643V39.9344H54.8374V32.9808H56.155ZM66.6962 39.9344V32.9808H68.0138V35.8455H71.4944V32.9808H72.812V39.9344H71.4944V36.9718H68.0138V39.9344H66.6962ZM77.1379 39.9344H75.7954L78.8036 32.9808H80.2207L83.2786 39.9344H81.8615L81.0659 38.0246H78.729L79.1765 36.8983H80.5936L79.4748 34.2784L77.1379 39.9344ZM86.2868 32.9808H87.6044V39.9344H86.2868V32.9808ZM91.2083 39.9266V32.9729H94.4154C95.8574 32.9729 96.5783 33.585 96.5783 34.8338C96.5783 35.6662 96.0065 36.3763 94.8878 36.9149L97.1253 39.9266H95.4844L93.3215 36.8905V36.3028C94.5646 36.0825 95.211 35.6173 95.211 34.8582C95.211 34.3441 94.9126 34.0992 94.3408 34.0992H92.5508V39.9266H91.2083ZM104.136 39.6327V38.4575C104.907 38.7268 105.727 38.8492 106.548 38.8492C107.642 38.8492 108.164 38.482 108.164 37.7719C108.164 37.2577 107.84 36.9884 107.169 36.9884H106.05C104.609 36.9884 103.888 36.3273 103.888 35.0296C103.888 33.6095 104.907 32.8995 106.97 32.8995C107.741 32.8995 108.487 33.0219 109.208 33.2423V34.4175C108.487 34.1482 107.716 34.0258 106.97 34.0258C105.777 34.0258 105.18 34.3685 105.18 35.0541C105.18 35.5683 105.479 35.8376 106.05 35.8376H107.169C108.711 35.8376 109.481 36.4987 109.481 37.7964C109.481 39.2655 108.512 39.9755 106.548 40C105.727 40 104.907 39.8776 104.136 39.6327ZM116.02 38.8737C117.437 38.8737 118.158 38.0657 118.158 36.4497C118.158 34.8582 117.437 34.0502 116.02 34.0502C114.553 34.0502 113.832 34.8582 113.832 36.4497C113.832 38.0412 114.553 38.8737 116.02 38.8737ZM112.465 36.4742C112.465 34.1237 113.658 32.924 116.02 32.924C118.357 32.924 119.525 34.0992 119.525 36.4742C119.525 38.8247 118.357 40 116.02 40C113.757 39.9755 112.589 38.8003 112.465 36.4742ZM124.2 32.9808V38.8081H127.009V39.9344H122.882V32.9808H124.2ZM130.381 37.1973V32.9614H131.699V37.1973C131.724 38.1277 132.519 38.8867 133.464 38.8622C134.384 38.8377 135.13 38.1032 135.154 37.1973V32.9614H136.472V37.1973C136.472 39.0581 135.453 39.9885 133.439 39.9885C131.4 39.9885 130.381 39.0581 130.381 37.1973ZM144.711 32.9808V34.1071H142.672V39.9344H141.354V34.1071H139.316V32.9808H144.711ZM147.57 32.9808H148.887V39.9344H147.57V32.9808ZM155.81 38.8737C157.227 38.8737 157.948 38.0657 157.948 36.4497C157.948 34.8582 157.227 34.0502 155.81 34.0502C154.343 34.0502 153.622 34.8582 153.622 36.4497C153.622 38.0412 154.343 38.8737 155.81 38.8737ZM152.255 36.4497C152.255 34.0992 153.448 32.8995 155.81 32.8995C158.147 32.8995 159.316 34.0747 159.316 36.4497C159.316 38.8003 158.147 39.9755 155.81 39.9755C153.548 39.9755 152.379 38.8003 152.255 36.4497ZM162.685 39.9344V32.9808H164.003L167.732 38.0491V32.9808H169V39.9344H167.682L163.953 34.7437V39.9344H162.685Z" fill="#A2A2A2"/>
</g>
</svg>
