<svg width="190" height="40" viewBox="0 0 190 40" fill="none" xmlns="http://www.w3.org/2000/svg">
<mask id="mask0_1_424" style="mask-type:alpha" maskUnits="userSpaceOnUse" x="0" y="0" width="190" height="40">
<rect width="190" height="40" fill="#D9D9D9"/>
</mask>
<g mask="url(#mask0_1_424)">
<path d="M142.89 26.5477C142.947 26.0271 142.981 25.5013 142.981 24.9689C142.981 16.9083 136.316 10.3778 128.094 10.3778C119.874 10.3778 113.211 16.9083 113.211 24.9689C113.211 33.0268 119.875 39.5548 128.094 39.5548C134.347 39.5548 139.692 35.7836 141.902 30.4256L135.486 29.2988C134.064 31.9058 131.375 33.6619 128.301 33.6619C124.22 33.6619 120.841 30.5858 120.161 26.5476L142.89 26.5477ZM128.301 16.4334C131.785 16.4334 134.761 18.6824 135.976 21.866H120.617C121.828 18.6826 124.811 16.4334 128.301 16.4334ZM101.608 10.989H109.21V39.031H101.608V10.989ZM105.412 -0.444824C103.065 -0.444824 101.171 1.46445 101.171 3.80668C101.171 6.14531 103.065 8.0495 105.412 8.0495C107.749 8.0495 109.648 6.14531 109.648 3.80668C109.648 1.46445 107.749 -0.444824 105.412 -0.444824ZM55.0814 1.99816V17.0939H38.6957V1.99816H30.3862V39.0059H38.6957V23.9095H55.0814V39.0059H63.3977V1.99816H55.0814ZM89.3917 11.002V12.5066C87.1822 11.1648 84.593 10.394 81.8186 10.394C73.7598 10.394 67.2236 16.9204 67.2236 24.9746C67.2236 33.0271 73.7598 39.5552 81.8186 39.5552C84.4192 39.5582 86.9732 38.8642 89.2162 37.5452V39.0061H96.6336V11.002H89.3917ZM82.1893 33.4077C77.4861 33.4077 73.684 29.6355 73.684 24.9779C73.684 20.3163 77.4859 16.5414 82.1893 16.5414C86.8914 16.5414 90.6997 20.3163 90.6997 24.9779C90.6995 29.6355 86.8913 33.4077 82.1893 33.4077ZM158.699 8.38467C151.698 9.6087 146.376 15.7131 146.295 23.0755V39.0308H153.573L153.577 22.7755C153.577 19.0543 156.364 15.9833 159.956 15.5426L158.699 8.38467Z" fill="#005BAA"/>
</g>
</svg>
