<svg width="190" height="40" viewBox="0 0 190 40" fill="none" xmlns="http://www.w3.org/2000/svg">
<mask id="mask0_1_428" style="mask-type:alpha" maskUnits="userSpaceOnUse" x="0" y="0" width="190" height="40">
<rect width="190" height="40" fill="#D9D9D9"/>
</mask>
<g mask="url(#mask0_1_428)">
<path fill-rule="evenodd" clip-rule="evenodd" d="M91.5839 38.2143L82.8935 38.1962V0.0842117L91.5839 0.0879749V38.2143ZM153.754 2.57223H156.802V3.02111H155.532V6.32418H155.025V3.02111H153.754V2.57223ZM160.362 6.32418V4.10835C160.362 3.99857 160.372 3.52338 160.372 3.17299H160.362L159.306 6.32418H158.804L157.748 3.1775H157.738C157.738 3.52262 157.748 3.99857 157.748 4.10759V6.32343H157.257V2.57072H157.984L159.056 5.74297H159.066L160.133 2.57072H160.854V6.32343L160.362 6.32418ZM118.617 7.94677C125.516 7.94677 131.291 12.2416 133.525 18.2575L133.571 9.06032H140.702L141.508 11.9243C142.416 10.5243 145.642 8.30542 149.324 8.29264C154.86 8.27309 159.575 11.6363 159.575 18.0507V38.224H152.123V20.5184C152.123 18.38 151.614 14.7619 146.876 14.7619C143.576 14.7619 141.022 17.0642 141.022 21.5049V38.224H133.519L133.525 29.0088C131.291 35.024 125.516 39.3195 118.617 39.3195C116.219 39.327 113.851 38.7938 111.688 37.7595C109.525 36.7253 107.623 35.2166 106.124 33.3457L106.118 38.409C102.426 38.5 101.154 38.5165 101.497 38.5165H100.538C94.099 38.5165 92.9275 36.0683 92.9275 32.3953V0H100.38V9.07611H105.615V14.398H100.38V30.5863C100.38 32.2352 100.432 32.8743 103.466 32.8743C103.945 32.8743 104.09 32.8202 105.629 32.7668C103.688 30.1173 102.642 26.9175 102.645 23.6328C102.645 14.9702 109.797 7.94677 118.617 7.94677ZM118.617 13.9506C113.726 14.0574 111.147 18.2861 111.147 23.6328C111.147 28.981 113.726 33.2089 118.617 33.3164C123.116 33.4149 126.088 28.981 126.088 23.6328C126.088 18.2861 123.116 13.8521 118.617 13.9506ZM73.1986 28.1577C73.1986 31.7201 69.7451 33.9127 66.3465 33.9127C64.8661 33.9127 62.3284 33.0871 62.1788 30.4043C61.9465 26.2554 65.1405 25.908 67.9909 25.414C71.1707 24.9208 72.4316 24.4275 73.1986 23.8253V28.1577ZM80.507 32.5232V17.7439C80.507 10.5626 72.9971 8.29339 68.8849 8.29339C63.3194 8.29339 57.0396 9.3874 55.4952 16.7567C53.7132 9.925 47.6868 8.29339 42.4243 8.29339C33.3241 8.29339 30.0331 14.1785 30.0331 18.4545C30.0331 29.363 48.6349 24.6418 48.9304 30.569C49.0267 32.5089 47.3936 34.1901 43.4469 34.1901C38.6227 34.1901 36.8858 31.7758 36.8858 29.3088H30C30.2196 37.0924 36.3918 40 43.0258 40C46.6364 40 52.5952 38.7225 54.8862 33.9202C56.2418 37.4766 59.7457 38.9925 63.1826 38.9925C68.3902 38.9925 71.8655 37.5887 73.6196 35.7796C73.7843 37.4248 73.8941 36.8458 74.3324 38.2158L81.3498 38.1819C80.5513 37.0954 80.507 35.9774 80.507 32.5232ZM67.3488 13.8281C69.3225 13.8281 72.9971 14.5973 72.9971 17.8319C72.9971 19.4771 70.912 19.9703 69.706 20.135L62.7984 21.1763C59.2968 21.6876 56.4441 23.3275 55.1133 26.3223C51.9538 19.1831 37.5445 21.0575 37.5438 16.9552C37.543 14.7604 39.1002 13.9018 43.2664 13.9018C47.4327 13.9018 48.0906 16.4808 48.4199 18.4455L62.0299 18.4898C62.2487 16.7905 62.7525 13.8281 67.3488 13.8281Z" fill="black"/>
</g>
</svg>
