<svg width="23" height="20" viewBox="0 0 23 20" fill="none" xmlns="http://www.w3.org/2000/svg">
<path d="M22.5764 13.6332C22.5764 16.9522 19.8858 19.6428 16.5668 19.6428L7.55242 19.6428C6.63048 19.6428 5.88309 18.8954 5.88309 17.9735L5.88309 6.62202C5.88309 4.77813 7.37786 3.28336 9.22176 3.28336L20.9071 3.28336C21.829 3.28336 22.5764 4.03075 22.5764 4.95269L22.5764 13.6332Z" fill="#E8F5E9"/>
<path d="M9.86147 7.2934C9.75729 7.2934 9.67261 7.20885 9.67261 7.10454V6.78359C9.67261 6.67941 9.75716 6.59473 9.86147 6.59473C9.96564 6.59473 10.0503 6.67928 10.0503 6.78359V7.10454C10.0503 7.20885 9.96564 7.2934 9.86147 7.2934Z" fill="#103E13"/>
<path d="M9.06752 7.2934C8.96335 7.2934 8.87866 7.20885 8.87866 7.10454V6.78359C8.87866 6.67941 8.96321 6.59473 9.06752 6.59473C9.17169 6.59473 9.25638 6.67928 9.25638 6.78359V7.10454C9.25625 7.20885 9.17183 7.2934 9.06752 7.2934Z" fill="#103E13"/>
<path d="M8.27358 7.2934C8.1694 7.2934 8.08472 7.20885 8.08472 7.10454V6.78359C8.08472 6.67941 8.16927 6.59473 8.27358 6.59473C8.37775 6.59473 8.46244 6.67928 8.46244 6.78359V7.10454C8.46244 7.20885 8.37789 7.2934 8.27358 7.2934Z" fill="#103E13"/>
<path d="M9.86147 8.60589C9.75729 8.60589 9.67261 8.52134 9.67261 8.41703V8.09621C9.67261 7.99203 9.75716 7.90735 9.86147 7.90735C9.96564 7.90735 10.0503 7.9919 10.0503 8.09621V8.41703C10.0503 8.52134 9.96564 8.60589 9.86147 8.60589Z" fill="#103E13"/>
<path d="M9.06752 8.60589C8.96335 8.60589 8.87866 8.52134 8.87866 8.41703V8.09621C8.87866 7.99203 8.96321 7.90735 9.06752 7.90735C9.17169 7.90735 9.25638 7.9919 9.25638 8.09621V8.41703C9.25625 8.52134 9.17183 8.60589 9.06752 8.60589Z" fill="#103E13"/>
<path d="M8.27358 8.60589C8.1694 8.60589 8.08472 8.52134 8.08472 8.41703V8.09621C8.08472 7.99203 8.16927 7.90735 8.27358 7.90735C8.37775 7.90735 8.46244 7.9919 8.46244 8.09621V8.41703C8.46244 8.52134 8.37789 8.60589 8.27358 8.60589Z" fill="#103E13"/>
<path d="M9.86147 9.9184C9.75729 9.9184 9.67261 9.83385 9.67261 9.72954V9.40859C9.67261 9.30441 9.75716 9.21973 9.86147 9.21973C9.96564 9.21973 10.0503 9.30428 10.0503 9.40859V9.72954C10.0503 9.83385 9.96564 9.9184 9.86147 9.9184Z" fill="#103E13"/>
<path d="M9.06752 9.9184C8.96335 9.9184 8.87866 9.83385 8.87866 9.72954V9.40859C8.87866 9.30441 8.96321 9.21973 9.06752 9.21973C9.17169 9.21973 9.25638 9.30428 9.25638 9.40859V9.72954C9.25625 9.83385 9.17183 9.9184 9.06752 9.9184Z" fill="#103E13"/>
<path d="M8.27358 9.9184C8.1694 9.9184 8.08472 9.83385 8.08472 9.72954V9.40859C8.08472 9.30441 8.16927 9.21973 8.27358 9.21973C8.37775 9.21973 8.46244 9.30428 8.46244 9.40859V9.72954C8.46244 9.83385 8.37789 9.9184 8.27358 9.9184Z" fill="#103E13"/>
<path d="M9.86147 11.2307C9.75729 11.2307 9.67261 11.1461 9.67261 11.0418V10.7208C9.67261 10.6167 9.75716 10.532 9.86147 10.532C9.96564 10.532 10.0503 10.6165 10.0503 10.7208V11.0418C10.0503 11.1461 9.96564 11.2307 9.86147 11.2307Z" fill="#103E13"/>
<path d="M9.06752 11.2307C8.96335 11.2307 8.87866 11.1461 8.87866 11.0418V10.7208C8.87866 10.6167 8.96321 10.532 9.06752 10.532C9.17169 10.532 9.25638 10.6165 9.25638 10.7208V11.0418C9.25625 11.1461 9.17183 11.2307 9.06752 11.2307Z" fill="#103E13"/>
<path d="M8.27358 11.2307C8.1694 11.2307 8.08472 11.1461 8.08472 11.0418V10.7208C8.08472 10.6167 8.16927 10.532 8.27358 10.532C8.37775 10.532 8.46244 10.6165 8.46244 10.7208V11.0418C8.46244 11.1461 8.37789 11.2307 8.27358 11.2307Z" fill="#103E13"/>
<path d="M9.86147 12.5431C9.75729 12.5431 9.67261 12.4586 9.67261 12.3543V12.0335C9.67261 11.9293 9.75716 11.8446 9.86147 11.8446C9.96564 11.8446 10.0503 11.9292 10.0503 12.0335V12.3543C10.0503 12.4585 9.96564 12.5431 9.86147 12.5431Z" fill="#103E13"/>
<path d="M9.06752 12.5431C8.96335 12.5431 8.87866 12.4586 8.87866 12.3543V12.0335C8.87866 11.9293 8.96321 11.8446 9.06752 11.8446C9.17169 11.8446 9.25638 11.9292 9.25638 12.0335V12.3543C9.25625 12.4585 9.17183 12.5431 9.06752 12.5431Z" fill="#103E13"/>
<path d="M8.27358 12.5431C8.1694 12.5431 8.08472 12.4586 8.08472 12.3543L8.08485 12.0335C8.08485 11.9293 8.1694 11.8446 8.27371 11.8446C8.37788 11.8446 8.46257 11.9292 8.46257 12.0335V12.3543C8.46244 12.4585 8.37789 12.5431 8.27358 12.5431Z" fill="#103E13"/>
<path d="M2.87833 13.8492C2.87833 13.9534 2.96288 14.0381 3.06719 14.0381H14.5681C14.6723 14.0381 14.757 13.9535 14.757 13.8492C14.757 13.7451 14.6725 13.6604 14.5681 13.6604H14.219V8.23795C14.219 8.13378 14.1345 8.04909 14.0302 8.04909L10.9467 8.04922V4.13994C10.9467 4.07383 10.9122 4.01272 10.8558 3.97847C10.7996 3.9441 10.7292 3.94199 10.6708 3.97242L7.16504 5.79766C7.10248 5.83019 7.0635 5.89472 7.0635 5.96518V9.37986H3.67073C3.56656 9.37986 3.48187 9.46442 3.48187 9.56873V13.6604H3.06677C2.9626 13.6603 2.87817 13.7448 2.87817 13.8491L2.87833 13.8492ZM10.9467 10.9096H13.8415V13.6605L10.9467 13.6604V10.9096ZM10.9467 9.59717H13.8415V10.532L10.9467 10.5319V9.59717ZM10.9467 8.42674H13.8415V9.21973H10.9467V8.42674ZM7.44102 6.07986L10.5689 4.45124V13.6602H7.44102V6.07986ZM4.79319 12.152C4.79319 11.76 5.10374 11.4411 5.48553 11.4411C5.86733 11.4411 6.17801 11.7599 6.17801 12.152V13.6605H4.79319V12.152ZM3.85958 9.75752H7.06344V13.6604H6.55572V12.1519C6.55572 11.5517 6.07582 11.0634 5.48553 11.0634C4.89552 11.0634 4.41561 11.5516 4.41561 12.1519V13.6604H3.85958V9.75752Z" fill="#103E13"/>
</svg>
