<svg width="23" height="20" viewBox="0 0 23 20" fill="none" xmlns="http://www.w3.org/2000/svg">
<path d="M22.6287 13.6332C22.6287 16.9522 19.9381 19.6428 16.6191 19.6428L7.60467 19.6428C6.68272 19.6428 5.93534 18.8954 5.93534 17.9735L5.93534 6.62202C5.93534 4.77813 7.43011 3.28336 9.274 3.28336L20.9593 3.28336C21.8813 3.28336 22.6287 4.03075 22.6287 4.95269L22.6287 13.6332Z" fill="#E8F5E9"/>
<path d="M10.3797 8.84043C10.2993 8.84043 10.2246 8.81832 10.1583 8.78277V8.78372C10.1583 8.9102 10.1092 9.02898 10.02 9.11794C9.93078 9.20714 9.81209 9.2563 9.68575 9.2563C9.60419 9.2563 9.5286 9.23365 9.46157 9.19715C9.45481 9.31286 9.40856 9.42101 9.32605 9.50361C9.23685 9.59281 9.11816 9.64197 8.99174 9.64197C8.74058 9.64197 8.53661 9.44454 8.52191 9.19707C8.4442 9.23907 8.35634 9.2611 8.26572 9.25528C8.01864 9.23907 7.82515 9.0256 7.82515 8.76916V6.64355L7.58311 7.06288C7.49092 7.22326 7.31836 7.32284 7.13256 7.32284C7.04202 7.32284 6.95259 7.29908 6.87338 7.2537C6.77474 7.19651 6.70419 7.10472 6.67484 6.9949C6.64535 6.88502 6.66061 6.7701 6.71763 6.67161C6.71771 6.67161 7.50956 5.30035 7.55787 5.21612C7.56361 5.20346 7.57998 5.16673 7.5939 5.13542C7.60719 5.10553 7.6186 5.07485 7.62953 5.04402C7.86833 4.36985 8.45962 3.95107 9.17273 3.95107C10.0988 3.95107 10.8522 4.76801 10.8522 5.77218L10.8522 8.36777C10.8522 8.4941 10.8032 8.61279 10.714 8.70208C10.6248 8.79128 10.5061 8.84044 10.3797 8.84044L10.3797 8.84043ZM9.17274 4.20218C8.55998 4.20218 8.07159 4.54829 7.86622 5.128C7.85309 5.16481 7.8394 5.20162 7.82343 5.23749C7.7771 5.3414 7.7771 5.3414 7.76404 5.35634L7.76231 5.35485C7.69766 5.47685 7.50557 5.80949 6.93507 6.79729C6.91163 6.8378 6.90541 6.88484 6.91737 6.92983C6.92948 6.97482 6.95851 7.01273 6.9987 7.03594C7.12345 7.10759 7.2943 7.06134 7.36541 6.93746L7.842 6.11232C7.87047 6.06316 7.92805 6.03901 7.98327 6.05396C8.03817 6.06867 8.07632 6.11846 8.07632 6.17525V8.76924C8.07632 8.89163 8.16866 8.99726 8.28218 9.00473C8.34762 9.00819 8.40866 8.98625 8.45452 8.94047C8.49621 8.89878 8.51917 8.84325 8.51917 8.78386V7.08736C8.51917 7.01798 8.57541 6.96174 8.64479 6.96174C8.71417 6.96174 8.77041 7.0179 8.77041 7.08736L8.77033 9.16947C8.77033 9.29155 8.86967 9.3909 8.99175 9.3909C9.05106 9.3909 9.10675 9.36793 9.14852 9.32624C9.19021 9.28447 9.21317 9.22878 9.21317 9.16947V7.08736C9.21317 7.01798 9.26934 6.96174 9.33879 6.96174C9.40817 6.96174 9.46441 7.0179 9.46441 7.08736L9.46433 8.76435V8.78385C9.46433 8.90585 9.56368 9.00519 9.68583 9.00519C9.74506 9.00519 9.80059 8.98215 9.8426 8.9403C9.88429 8.89869 9.90725 8.84316 9.90725 8.78377V7.08727C9.90725 7.01789 9.96342 6.96165 10.0329 6.96165C10.1022 6.96165 10.1585 7.01781 10.1585 7.08727L10.1583 8.36783C10.1583 8.48999 10.2577 8.58933 10.3797 8.58933C10.4391 8.58933 10.4946 8.56629 10.5363 8.52468C10.5781 8.48283 10.601 8.42714 10.601 8.36783L10.6011 5.77223C10.6011 4.90661 9.96035 4.20221 9.17273 4.20221L9.17274 4.20218Z" fill="#103E13"/>
<path d="M5.44427 10.6444L7.26708 9.55089C7.48685 9.4189 7.76963 9.47499 7.91058 9.67863C7.96203 9.75281 7.9883 9.83925 7.99239 9.92728C8.06035 9.8918 8.13429 9.87253 8.20956 9.87253C8.2481 9.87253 8.2868 9.87733 8.32503 9.88685C8.4475 9.91745 8.5507 9.99398 8.6156 10.1022C8.68057 10.2106 8.69953 10.3376 8.66893 10.46C8.64069 10.5731 8.57187 10.6684 8.47614 10.7338C8.54308 10.7733 8.60081 10.8271 8.64187 10.8957C8.70685 11.0041 8.7258 11.1311 8.69528 11.2536C8.66468 11.3759 8.58815 11.4791 8.47976 11.5441L8.47913 11.5445C8.54489 11.5839 8.6016 11.6373 8.64219 11.7048C8.70724 11.8132 8.7262 11.9402 8.6956 12.0627C8.66492 12.1851 8.58839 12.2883 8.48016 12.3533L6.25447 13.6885C5.83907 13.9376 5.35886 14.0236 4.90249 13.9304C4.44202 13.8363 4.06068 13.5716 3.82881 13.1851C3.46186 12.5735 3.51685 11.851 3.97204 11.2995C3.99289 11.2743 4.01342 11.2487 4.03206 11.2221C4.0518 11.194 4.07485 11.161 4.08272 11.1496C4.12983 11.0655 4.89865 9.68031 4.89857 9.68047C4.9762 9.54038 5.12172 9.46108 5.2718 9.46116C5.3418 9.46116 5.41283 9.47839 5.47836 9.51473C5.55749 9.55893 5.62395 9.62335 5.67044 9.70099C5.76601 9.86027 5.76939 10.0596 5.67941 10.2209L5.44427 10.6444ZM5.4552 9.83012C5.43082 9.78946 5.39731 9.75705 5.35632 9.73408C5.27161 9.6872 5.16495 9.71772 5.11831 9.80212C4.56818 10.7932 4.38065 11.131 4.30828 11.2512L4.30993 11.2516C4.30387 11.2717 4.30387 11.2717 4.23765 11.3663C4.21515 11.3983 4.19069 11.4291 4.16575 11.4594C3.77434 11.9336 3.72889 12.5304 4.04407 13.0559C4.2393 13.3814 4.56196 13.6045 4.95265 13.6843C5.34758 13.7646 5.76385 13.6899 6.12513 13.4731L8.35102 12.1378C8.40184 12.1074 8.43771 12.059 8.45202 12.0017C8.46634 11.9444 8.45745 11.8848 8.42693 11.834C8.36416 11.7294 8.22785 11.695 8.12323 11.7581L7.02517 12.4168C6.9657 12.4525 6.88846 12.4333 6.85283 12.3738C6.81712 12.3143 6.83639 12.2372 6.89585 12.2015L7.994 11.5427L8.35063 11.3287C8.40145 11.2982 8.43739 11.2498 8.45171 11.1927C8.46602 11.1353 8.45714 11.0757 8.42662 11.025C8.36377 10.9203 8.22745 10.8862 8.12292 10.949L6.66814 11.8217C6.60851 11.8575 6.53151 11.8381 6.4958 11.7787C6.46009 11.7192 6.47943 11.642 6.53882 11.6063L8.32429 10.5352C8.3751 10.5047 8.41097 10.4564 8.42528 10.3991C8.4396 10.3418 8.43071 10.2823 8.40027 10.2315C8.36983 10.1807 8.32145 10.1449 8.26411 10.1305C8.20645 10.1162 8.14715 10.1251 8.09649 10.1555L7.76597 10.3538C7.76589 10.3538 7.76589 10.3539 7.76581 10.3539H7.76573L6.31103 11.2266C6.25141 11.2624 6.17432 11.2431 6.13869 11.1836C6.10298 11.1241 6.12233 11.0469 6.18172 11.0112L7.6365 10.1385C7.68731 10.108 7.72326 10.0596 7.73758 10.0024C7.75331 9.93965 7.74135 9.87546 7.70407 9.82166C7.63941 9.72814 7.50113 9.70328 7.39628 9.76628L5.172 11.1007C5.12331 11.1298 5.06094 11.1227 5.02011 11.0833C4.97921 11.0438 4.97001 10.9817 4.99754 10.9321L5.46005 10.0988C5.50646 10.0155 5.50465 9.91259 5.45517 9.83016L5.4552 9.83012Z" fill="#103E13"/>
<path d="M14.1547 13.185C13.9229 13.5716 13.5416 13.8363 13.0811 13.9303C12.6246 14.0234 12.1446 13.9376 11.7291 13.6885L9.50319 12.3532C9.39488 12.2882 9.31827 12.185 9.28759 12.0624C9.25715 11.9401 9.27619 11.8131 9.34108 11.7048C9.38159 11.6372 9.43838 11.5839 9.50422 11.5445L9.50359 11.5441C9.39527 11.4791 9.31866 11.3759 9.28815 11.2535C9.25747 11.1311 9.2765 11.004 9.34148 10.8956C9.38332 10.826 9.44066 10.7716 9.50611 10.7329C9.41109 10.6676 9.34266 10.5726 9.3145 10.46C9.28382 10.3375 9.30286 10.2105 9.36783 10.1023C9.43272 9.99394 9.536 9.91741 9.6584 9.88681C9.69662 9.87722 9.7354 9.8725 9.77379 9.8725C9.84914 9.87258 9.92308 9.89169 9.99104 9.92724C9.99521 9.83923 10.0214 9.75278 10.0728 9.6786C10.2139 9.47512 10.4964 9.4188 10.7165 9.55086L12.5393 10.6442L12.3043 10.221C12.2142 10.0595 12.2175 9.86013 12.313 9.70077C12.3596 9.62321 12.4262 9.55879 12.5057 9.5142C12.571 9.47801 12.6418 9.46087 12.7117 9.46087C12.8617 9.46094 13.0074 9.54008 13.0849 9.68017C13.3552 10.1672 13.8652 11.0856 13.9011 11.1497C13.9087 11.1608 13.9317 11.1938 13.9515 11.2219C13.9703 11.2485 13.9906 11.274 14.0116 11.2994C14.4667 11.8511 14.5216 12.5735 14.1547 13.185L14.1547 13.185ZM13.8178 11.4594C13.7928 11.4292 13.7682 11.3982 13.7459 11.3664C13.6779 11.27 13.6762 11.2674 13.6711 11.2422C13.5916 11.1108 13.3978 10.7618 12.8651 9.80202C12.8184 9.71778 12.7122 9.68703 12.6276 9.73375C12.586 9.75703 12.5526 9.78952 12.5282 9.83019C12.4788 9.91254 12.4769 10.0154 12.5235 10.099L12.9859 10.932C13.0135 10.9817 13.0043 11.0437 12.9635 11.0832C12.9227 11.1228 12.8604 11.1297 12.8115 11.1006L10.5872 9.76623C10.4824 9.70339 10.3442 9.72801 10.2794 9.82161C10.2421 9.87541 10.2302 9.9396 10.2458 10.0023C10.2601 10.0596 10.296 10.1078 10.3469 10.1384C10.3471 10.1384 10.3472 10.1386 10.3473 10.1387L11.8016 11.0112C11.8611 11.0469 11.8804 11.124 11.8447 11.1835C11.809 11.2429 11.732 11.2623 11.6723 11.2265L9.88687 10.1554C9.83621 10.1251 9.77659 10.1161 9.71933 10.1305C9.66191 10.1448 9.61361 10.1807 9.58317 10.2316C9.55265 10.2823 9.54384 10.3419 9.558 10.3991C9.57232 10.4564 9.60826 10.5048 9.65907 10.5353L10.0065 10.7437L11.4445 11.6064C11.5039 11.6421 11.5232 11.7192 11.4875 11.7787C11.4518 11.8381 11.3748 11.8575 11.3151 11.8217L9.86052 10.949C9.75591 10.8861 9.61967 10.9202 9.55674 11.025C9.52622 11.0758 9.51741 11.1354 9.53157 11.1926C9.54589 11.2499 9.58184 11.2982 9.63273 11.3288L9.98936 11.5427L11.0873 12.2015C11.1468 12.2372 11.1661 12.3143 11.1304 12.3738C11.0947 12.4332 11.0177 12.4527 10.958 12.4169L9.86005 11.7581C9.80939 11.7277 9.75001 11.7188 9.69243 11.7332C9.63516 11.7475 9.58671 11.7834 9.55627 11.8341C9.52583 11.8849 9.51694 11.9445 9.5311 12.0017C9.54542 12.059 9.58136 12.1073 9.63226 12.1379L11.8581 13.4732C12.2194 13.6899 12.6359 13.7649 13.0306 13.6844C13.4212 13.6046 13.7439 13.3814 13.9391 13.056C14.2546 12.5303 14.2092 11.9335 13.8179 11.4594L13.8178 11.4594Z" fill="#103E13"/>
</svg>
