<svg width="14" height="15" viewBox="0 0 14 15" fill="none" xmlns="http://www.w3.org/2000/svg">
<g clip-path="url(#clip0_212_1122)">
<path fill-rule="evenodd" clip-rule="evenodd" d="M3.56181 0.678722C5.40569 0.679739 6.89965 2.17533 6.89863 4.01923L6.90047 0.680564L10.2391 0.682406C12.083 0.683423 13.577 2.17902 13.576 4.02291C13.5749 5.86679 12.0793 7.36075 10.2355 7.35974C12.0793 7.36075 13.5733 8.85636 13.5723 10.7002C13.5718 11.6158 13.2028 12.4451 12.6056 13.0479L12.5931 13.0605L12.582 13.0715C11.9784 13.6689 11.1481 14.0376 10.2318 14.0371C9.32168 14.0366 8.49683 13.672 7.8949 13.0811C7.88709 13.0734 7.87928 13.0657 7.87151 13.0579C7.8642 13.0506 7.85693 13.0432 7.84968 13.0359C7.25871 12.4332 6.89445 11.6073 6.89495 10.6966C6.89393 12.5404 5.39832 14.0344 3.55444 14.0334C1.71055 14.0324 0.216601 12.5368 0.217618 10.6929L0.21946 7.35421L3.55813 7.35605C1.71423 7.35503 0.220285 5.85942 0.221302 4.01554C0.22232 2.17165 1.71791 0.677705 3.56181 0.678722ZM6.2309 4.01886C6.23009 5.49398 5.03362 6.68913 3.55849 6.68832L3.56144 1.34645C5.03656 1.34727 6.23171 2.54374 6.2309 4.01886ZM12.9045 10.6999C12.9054 9.22475 11.7102 8.02828 10.2351 8.02747C8.75996 8.02665 7.56349 9.2218 7.56268 10.6969L12.9045 10.6999ZM0.886825 8.02231L0.885351 10.6932C0.884538 12.1684 2.07969 13.3648 3.55481 13.3656C5.02993 13.3665 6.2264 12.1713 6.22722 10.6962L6.22869 8.02526L0.886825 8.02231ZM7.56489 6.69053L7.56784 1.34867L10.2388 1.35014C11.7139 1.35095 12.909 2.54743 12.9082 4.02254C12.9074 5.49767 11.7109 6.69282 10.2358 6.692L7.56489 6.69053Z" fill="#263238"/>
</g>
<defs>
<clipPath id="clip0_212_1122">
<rect width="13.3547" height="13.3547" fill="white" transform="translate(0.223145 0.67688) rotate(0.0316117)"/>
</clipPath>
</defs>
</svg>
