<svg width="15" height="11" viewBox="0 0 15 11" fill="none" xmlns="http://www.w3.org/2000/svg">
<g clip-path="url(#clip0_212_1125)">
<path fill-rule="evenodd" clip-rule="evenodd" d="M4.05093 2.03854L0.715195 5.33709C1.38168 5.99762 2.14313 6.55439 2.97344 6.99011C3.20267 7.59307 3.5622 8.1586 4.05204 8.64405C5.89494 10.4704 8.88448 10.4721 10.7294 8.64773C11.2197 8.16283 11.5799 7.59769 11.8098 6.99495C12.6406 6.56018 13.4027 6.00425 14.0699 5.34446L10.7405 2.04491C10.738 2.04244 10.7355 2.03997 10.733 2.03751C8.89014 0.211133 5.9006 0.209484 4.05568 2.03382C4.0541 2.0354 4.05252 2.03696 4.05093 2.03854ZM10.4109 7.58967C9.43921 7.91372 8.41922 8.07938 7.39101 8.07882C6.3628 8.07825 5.34303 7.91146 4.37166 7.58633C4.47685 7.72465 4.593 7.85739 4.72013 7.98339C6.19445 9.44451 8.58607 9.44583 10.062 7.98634C10.1893 7.86048 10.3056 7.72786 10.4109 7.58967ZM4.79156 2.62915C5.04197 2.79312 5.30825 2.93346 5.5869 3.04791C6.15962 3.28312 6.77354 3.40436 7.39359 3.4047C8.01365 3.40504 8.6277 3.28448 9.20067 3.0499C9.47945 2.93576 9.74589 2.79571 9.99651 2.63201C8.54054 1.25907 6.24901 1.25781 4.79156 2.62915Z" fill="#3B4158"/>
</g>
<defs>
<clipPath id="clip0_212_1125">
<rect width="13.3547" height="9.34826" fill="white" transform="translate(0.717773 0.662964) rotate(0.0316117)"/>
</clipPath>
</defs>
</svg>
