<svg width="89" height="89" viewBox="0 0 89 89" fill="none" xmlns="http://www.w3.org/2000/svg">
<path d="M69.0031 73H15V17" stroke="#2F3339" stroke-width="1.3" stroke-linecap="round" stroke-linejoin="round"/>
<path d="M64 24H52V65H64V24Z" stroke="#2F3339" stroke-width="1.13" stroke-linecap="round" stroke-linejoin="round"/>
<path d="M47 45H35V65H47V45Z" stroke="#2F3339" stroke-width="1.13" stroke-linecap="round" stroke-linejoin="round"/>
<path d="M53.2598 17.4951L23.2518 31.4607" stroke="#0055FF" stroke-width="1.13" stroke-linecap="round" stroke-linejoin="round"/>
<path d="M22.3411 34.6726L24.4718 60.4886" stroke="#0055FF" stroke-width="1.13" stroke-linecap="round" stroke-linejoin="round"/>
<path d="M51.6308 16.0825C50.6416 17.0717 50.6416 18.6754 51.6307 19.6646C52.6199 20.6538 54.2237 20.6537 55.2128 19.6646C56.202 18.6754 56.2021 17.0717 55.2129 16.0825C54.2237 15.0933 52.6199 15.0933 51.6308 16.0825Z" stroke="#0055FF" stroke-width="1.13" stroke-linecap="round" stroke-linejoin="round"/>
<path d="M23.0028 58.5517C22.0137 59.5409 22.0136 61.1446 23.0028 62.1338C23.992 63.123 25.5958 63.123 26.5849 62.1338C27.5741 61.1447 27.5741 59.5409 26.5849 58.5517C25.5957 57.5625 23.992 57.5626 23.0028 58.5517Z" stroke="#0055FF" stroke-width="1.13" stroke-linecap="round" stroke-linejoin="round"/>
<path d="M21.0057 30.1249C20.0165 31.1141 20.0165 32.7179 21.0057 33.7071C21.9949 34.6963 23.5987 34.6963 24.5879 33.7071C25.577 32.7179 25.577 31.1141 24.5879 30.125C23.5987 29.1358 21.9949 29.1358 21.0057 30.1249Z" stroke="#0055FF" stroke-width="1.13" stroke-linecap="round" stroke-linejoin="round"/>
</svg>
