<svg width="76" height="76" viewBox="0 0 76 76" fill="none" xmlns="http://www.w3.org/2000/svg">
<circle cx="38" cy="38" r="38" fill="black"/>
<path d="M42.485 40.7456L42.5 33.501L35.2558 33.5164" stroke="white" stroke-linecap="round" stroke-linejoin="round"/>
<path d="M42.5 33.5007L33.5 42.4999" stroke="white" stroke-linecap="round" stroke-linejoin="round"/>
<path d="M37.8336 16.1502C37.6949 16.1509 37.5774 16.1034 37.4809 16.0079C37.3844 15.9124 37.3359 15.7953 37.3352 15.6566C37.3345 15.518 37.3819 15.4004 37.4775 15.3039C37.573 15.2075 37.6901 15.1589 37.8288 15.1582C37.9621 15.1576 38.0743 15.205 38.1655 15.3006C38.2619 15.3961 38.3105 15.5132 38.3112 15.6519C38.3119 15.7905 38.2644 15.9081 38.1689 16.0046C38.0787 16.101 37.9669 16.1495 37.8336 16.1502Z" fill="white"/>
<path d="M35.9956 16.1517L33.3541 13.968L33.7239 16.485L33.0036 16.5906L32.1931 11.0738L32.9134 10.9682L33.289 13.5247L35.193 10.6337L36.1033 10.5002L34.0079 13.6295L36.9375 16.0135L35.9956 16.1517Z" fill="white"/>
<path d="M31.3711 17.0772L29.331 15.403L28.5061 15.7096L29.3014 17.8464L28.619 18.1L26.6741 12.8742L28.3613 12.2471C28.7562 12.1003 29.1138 12.0443 29.434 12.0789C29.7592 12.1116 30.032 12.2179 30.2526 12.3977C30.4731 12.5774 30.6383 12.8147 30.7481 13.1096C30.882 13.4695 30.8951 13.8259 30.7875 14.1789C30.6848 14.53 30.4428 14.8276 30.0613 15.0718L32.1884 16.7734L31.3711 17.0772ZM28.3024 15.1623L29.3073 14.7888C29.6772 14.6513 29.9212 14.4582 30.0392 14.2095C30.1553 13.9558 30.1566 13.6765 30.0432 13.3716C29.9278 13.0617 29.746 12.8562 29.4978 12.755C29.2546 12.6519 28.9455 12.6701 28.5706 12.8094L27.5657 13.1829L28.3024 15.1623Z" fill="white"/>
<path d="M25.6496 19.9412C25.2223 20.2328 24.7647 20.3998 24.2769 20.4421C23.7861 20.48 23.3153 20.3913 22.8645 20.1759C22.4151 19.9531 22.0369 19.6172 21.73 19.168C21.4231 18.7189 21.2491 18.2468 21.208 17.7518C21.1683 17.2495 21.257 16.779 21.474 16.3403C21.688 15.8973 22.0087 15.5299 22.436 15.2383C22.8677 14.9437 23.329 14.7774 23.8198 14.7395C24.3077 14.6971 24.7748 14.7852 25.2212 15.0036C25.6675 15.222 26.0457 15.5579 26.3556 16.0115C26.6656 16.465 26.8411 16.9393 26.8821 17.4343C26.9232 17.9292 26.8368 18.3982 26.6228 18.8413C26.4057 19.2799 26.0814 19.6466 25.6496 19.9412ZM25.2931 19.4194C25.6147 19.1999 25.8521 18.9282 26.0053 18.6041C26.1629 18.277 26.2196 17.9251 26.1754 17.5485C26.1356 17.1689 25.9908 16.7963 25.7411 16.4308C25.4883 16.061 25.1938 15.7906 24.8574 15.6198C24.5225 15.4416 24.1761 15.3648 23.8183 15.3895C23.4605 15.4141 23.1186 15.5377 22.7926 15.7601C22.4666 15.9826 22.227 16.2559 22.0738 16.5799C21.9206 16.904 21.8639 17.2559 21.9036 17.6355C21.9448 18.0077 22.0918 18.3788 22.3446 18.7486C22.5943 19.1141 22.8867 19.386 23.2216 19.5642C23.561 19.7394 23.9095 19.8147 24.2674 19.79C24.6296 19.7624 24.9715 19.6388 25.2931 19.4194Z" fill="white"/>
<path d="M18.6319 18.0986L22.0282 22.8057L21.5251 23.4482L17.1906 21.704L19.8975 25.5268L19.4057 26.1679L14.0451 23.9565L14.5235 23.3455L18.9977 25.3004L16.1018 21.3299L16.6048 20.6874L21.1059 22.5821L18.1486 18.7159L18.6319 18.0986Z" fill="white"/>
<path d="M12.0728 28.0453L17.1336 30.8887L16.9475 31.6832L12.2819 31.9228L16.3455 34.2536L16.169 35.0422L10.376 35.2892L10.5529 34.5337L15.434 34.4266L11.1368 32.0411L11.3229 31.2466L16.203 31.0736L11.894 28.8086L12.0728 28.0453Z" fill="white"/>
<path d="M11.1241 39.4354L12.9873 39.3798L12.9261 37.3488L13.5258 37.3309L13.587 39.362L15.5062 39.3047L15.4377 37.0338L16.0375 37.0159L16.1278 40.0145L10.5463 40.1809L10.456 37.1823L11.0557 37.1644L11.1241 39.4354Z" fill="white"/>
<path d="M10.7969 41.9984L16.2999 41.0991L16.4175 41.8175L10.9145 42.7168L10.7969 41.9984Z" fill="white"/>
<path d="M11.1111 44.2244L17.0673 44.4523L17.3339 45.2489L12.7131 49.0115L12.4668 48.2756L16.4709 45.0902L11.3548 44.9527L11.1111 44.2244Z" fill="white"/>
<path d="M19.5655 49.6821C19.6404 49.7988 19.6633 49.9235 19.6343 50.0561C19.6053 50.1887 19.5324 50.2924 19.4156 50.3671C19.2989 50.4419 19.1741 50.4648 19.0415 50.4358C18.9088 50.4068 18.805 50.3339 18.7302 50.2172C18.6582 50.1049 18.6381 49.9848 18.67 49.8567C18.699 49.7241 18.7719 49.6204 18.8887 49.5456C19.0055 49.4708 19.1302 49.4479 19.2629 49.477C19.3926 49.5015 19.4935 49.5699 19.5655 49.6821Z" fill="white"/>
<path d="M20.5495 51.2316L20.1199 54.6303L22.0482 52.9709L22.5234 53.5224L18.2968 57.1594L17.8216 56.6079L19.7803 54.9225L16.3176 54.8625L15.7171 54.1655L19.4836 54.2595L19.928 50.5104L20.5495 51.2316Z" fill="white"/>
<path d="M23.8084 54.6375L23.4864 57.2556L24.1874 57.7876L25.5671 55.9725L26.147 56.4126L22.7727 60.8518L21.339 59.7635C21.0034 59.5088 20.7645 59.237 20.6222 58.9483C20.4757 58.6563 20.4193 58.3691 20.4531 58.0867C20.4868 57.8043 20.5989 57.5379 20.7893 57.2874C21.0217 56.9817 21.3159 56.7797 21.6718 56.6816C22.0235 56.5803 22.4047 56.6253 22.8153 56.8165L23.1138 54.1103L23.8084 54.6375ZM23.834 58.2526L22.9801 57.6044C22.6658 57.3658 22.3719 57.2633 22.0985 57.2968C21.8219 57.3346 21.5852 57.483 21.3883 57.742C21.1882 58.0053 21.1119 58.2687 21.1594 58.5324C21.2026 58.7929 21.3835 59.044 21.7021 59.2859L22.5559 59.934L23.834 58.2526Z" fill="white"/>
<path d="M29.2947 57.9307C29.7699 58.1352 30.156 58.4319 30.453 58.8209C30.7478 59.2149 30.9249 59.6598 30.9843 60.1556C31.0366 60.6542 30.9551 61.1533 30.7399 61.6529C30.5247 62.1525 30.2189 62.5522 29.8226 62.852C29.4193 63.1546 28.9742 63.3317 28.4873 63.3835C27.9983 63.4402 27.5162 63.3663 27.041 63.1619C26.5609 62.9553 26.1734 62.6551 25.8785 62.2611C25.5816 61.8721 25.4058 61.4307 25.3514 60.937C25.297 60.4433 25.3784 59.9442 25.5958 59.4397C25.8131 58.9352 26.12 58.5331 26.5163 58.2333C26.9125 57.9335 27.3552 57.7552 27.8442 57.6986C28.3311 57.6468 28.8146 57.7241 29.2947 57.9307ZM29.0446 58.5111C28.687 58.3573 28.3302 58.3025 27.9743 58.3468C27.6135 58.3889 27.2858 58.5295 26.9912 58.7686C26.6917 59.0055 26.4544 59.3272 26.2792 59.7337C26.102 60.1452 26.0312 60.5386 26.0669 60.9139C26.0957 61.2921 26.2162 61.6255 26.4286 61.9143C26.641 62.2031 26.9285 62.4255 27.2911 62.5815C27.6536 62.7374 28.0128 62.7933 28.3687 62.749C28.7246 62.7047 29.0523 62.5641 29.3518 62.3272C29.6443 62.0931 29.8792 61.7703 30.0565 61.3589C30.2316 60.9523 30.3048 60.56 30.2761 60.1818C30.2425 59.8016 30.1195 59.4671 29.9071 59.1783C29.6897 58.8874 29.4023 58.665 29.0446 58.5111Z" fill="white"/>
<path d="M31.5013 64.8408L33.6601 59.4515L34.4721 59.5319L35.3186 64.1258L37.0993 59.7923L37.9041 59.864L38.9051 65.5746L38.1328 65.4981L37.3897 60.6732L35.5853 65.2456L34.7733 65.1651L33.9649 60.3499L32.2815 64.9181L31.5013 64.8408Z" fill="white"/>
<path d="M43.4189 65.0475L43.1098 59.2509L43.8804 58.9827L46.5816 62.7946L46.3737 58.1148L47.1341 57.8416L50.4454 62.6017L49.7125 62.8568L47.0079 58.792L47.2948 63.6983L46.5241 63.9666L43.7644 59.9379L44.1593 64.7898L43.4189 65.0475Z" fill="white"/>
<path d="M53.5505 59.7513L52.5051 58.2081L50.822 59.3466L50.4855 58.8499L52.1686 57.7113L51.0918 56.1217L49.2099 57.3947L48.8734 56.898L51.3583 55.2171L54.49 59.8402L52.0051 61.5211L51.6686 61.0244L53.5505 59.7513Z" fill="white"/>
<path d="M55.8885 58.6535L52.1802 54.4893L52.7242 54.0055L56.4325 58.1697L55.8885 58.6535Z" fill="white"/>
<path d="M57.6056 57.1979L54.6074 52.0488L55.1378 51.3973L60.7927 53.2832L60.3027 53.885L55.466 52.2106L58.0905 56.6023L57.6056 57.1979Z" fill="white"/>
<path d="M57.6901 47.142C57.7487 47.0163 57.8417 46.9302 57.9693 46.8837C58.0969 46.8371 58.2236 46.8431 58.3493 46.9016C58.475 46.9601 58.5611 47.0531 58.6076 47.1806C58.6541 47.3081 58.6481 47.4347 58.5896 47.5604C58.5333 47.6813 58.4424 47.7626 58.3171 47.8043C58.1895 47.8508 58.0629 47.8448 57.9372 47.7863C57.8114 47.7278 57.7253 47.6348 57.6788 47.5073C57.63 47.3846 57.6338 47.2629 57.6901 47.142Z" fill="white"/>
<path d="M58.4721 45.4821L61.574 44.0239L59.1396 43.2853L59.3512 42.5887L64.687 44.2078L64.4754 44.9043L62.0027 44.154L63.8055 47.1088L63.5381 47.9891L61.6013 44.7596L58.1953 46.393L58.4721 45.4821Z" fill="white"/>
<path d="M59.6091 40.9073L61.9931 39.7763L62.0674 38.8994L59.7955 38.7072L59.857 37.9818L65.4131 38.452L65.2611 40.2456C65.2255 40.6654 65.1239 41.0127 64.956 41.2876C64.7878 41.5677 64.5753 41.7692 64.3187 41.892C64.0621 42.0148 63.777 42.0629 63.4635 42.0363C63.0808 42.004 62.7528 41.8638 62.4795 41.6159C62.2057 41.3732 62.0396 41.0273 61.9813 40.5782L59.5354 41.7762L59.6091 40.9073ZM62.6493 38.9487L62.5588 40.0169C62.5255 40.4101 62.5961 40.7132 62.7708 40.926C62.9507 41.1392 63.2028 41.2596 63.527 41.287C63.8565 41.3149 64.1199 41.2382 64.3172 41.0569C64.5141 40.8808 64.6295 40.5935 64.6633 40.195L64.7538 39.1268L62.6493 38.9487Z" fill="white"/>
<path d="M59.4547 34.5121C59.3729 34.0012 59.4168 33.5162 59.5864 33.0571C59.7612 32.597 60.0421 32.2092 60.4291 31.8935C60.8222 31.5822 61.2873 31.3837 61.8245 31.2978C62.3617 31.212 62.863 31.2561 63.3283 31.4302C63.7998 31.6087 64.1877 31.8897 64.4921 32.2731C64.8018 32.6557 64.9975 33.1024 65.0793 33.6132C65.1619 34.1293 65.1157 34.6174 64.9409 35.0774C64.7713 35.5366 64.4926 35.9214 64.1048 36.2318C63.717 36.5422 63.2519 36.7408 62.7094 36.8275C62.167 36.9142 61.6631 36.8705 61.1977 36.6964C60.7323 36.5223 60.3448 36.244 60.0352 35.8614C59.7307 35.4779 59.5372 35.0282 59.4547 34.5121ZM60.0787 34.4123C60.1403 34.7968 60.285 35.1274 60.5129 35.4043C60.7417 35.6864 61.0359 35.8878 61.3955 36.0086C61.7559 36.1346 62.1547 36.1627 62.5918 36.0928C63.0342 36.0221 63.4044 35.8712 63.7022 35.6399C64.0062 35.4131 64.2233 35.1327 64.3535 34.7986C64.4837 34.4646 64.5176 34.1027 64.4552 33.713C64.3928 33.3233 64.2477 32.99 64.0197 32.7132C63.7918 32.4363 63.4976 32.2349 63.1372 32.1089C62.7828 31.9872 62.3845 31.9618 61.9421 32.0325C61.505 32.1023 61.1344 32.2507 60.8304 32.4775C60.5273 32.7096 60.3106 32.9926 60.1805 33.3267C60.0511 33.666 60.0172 34.0279 60.0787 34.4123Z" fill="white"/>
<path d="M64.1105 28.9531L58.4022 30.0152L58.0352 29.2864L61.4617 26.1124L56.8477 26.9285L56.4771 26.2104L60.7641 22.3082L61.1131 23.0013L57.4362 26.2117L62.2646 25.2877L62.6316 26.0165L58.9978 29.2768L63.7579 28.2529L64.1105 28.9531Z" fill="white"/>
<path d="M57.9032 18.7819L53.1704 22.1459L52.5309 21.6391L54.3052 17.3186L50.4619 19.9993L49.8237 19.5037L52.0723 14.1608L52.6805 14.6428L50.6944 19.1015L54.6868 16.2329L55.3263 16.7397L53.4003 21.2257L57.2888 18.295L57.9032 18.7819Z" fill="white"/>
<path d="M47.9976 13.0685L47.2531 14.7774L49.1165 15.5881L48.8768 16.1381L47.0135 15.3275L46.2467 17.0877L48.3301 17.9941L48.0904 18.5442L45.3395 17.3474L47.5697 12.2281L50.3206 13.4248L50.081 13.9749L47.9976 13.0685Z" fill="white"/>
<path d="M45.8173 11.6826L44.2836 17.0435L43.5836 16.8436L45.1173 11.4826L45.8173 11.6826Z" fill="white"/>
<path d="M43.6659 11.014L40.9205 16.3041L40.0863 16.2054L38.6528 10.4209L39.4235 10.5121L40.5977 15.4925L42.9032 10.9237L43.6659 11.014Z" fill="white"/>
</svg>
