<svg width="90" height="90" viewBox="0 0 90 90" fill="none" xmlns="http://www.w3.org/2000/svg">
<g opacity="0.2">
<path d="M2.83779 51.344L22.789 82.3859C24.2052 84.5895 26.3046 86.2681 28.7659 87.1646C31.2271 88.0611 33.9143 88.1262 36.416 87.3498L68.4038 77.4225C70.6228 76.734 72.4862 75.2082 73.5989 73.1686L87.3608 47.9385C88.1971 46.4052 88.5986 44.6725 88.5216 42.9277C88.4447 41.1828 87.8924 39.4921 86.9243 38.0384L65.5935 6.00435C64.5583 4.44974 63.052 3.26794 61.2958 2.63243C59.5395 1.99693 57.6258 1.9412 55.8355 2.47343L24.634 11.7496C22.2088 12.4705 19.9562 13.6786 18.014 15.3C16.0718 16.9214 14.4808 18.922 13.3383 21.1794L2.39851 42.7945C1.72045 44.1343 1.40427 45.628 1.48132 47.1276C1.55838 48.6273 2.02598 50.0807 2.83779 51.344Z" fill="#FFC107"/>
<path d="M88.5181 42.8886L45.1195 54.8821L18.225 15.1274C16.1876 16.7778 14.5223 18.8403 13.3383 21.1796L2.39763 42.7937C1.72027 44.1337 1.40451 45.6275 1.48159 47.127C1.55866 48.6266 2.0259 50.0801 2.83709 51.3437L22.7883 82.3849C24.2052 84.5875 26.3047 86.2653 28.7655 87.1618C31.2264 88.0583 33.9131 88.124 36.4148 87.3489L68.4035 77.4226C70.622 76.7335 72.485 75.2078 73.5978 73.1687L87.3597 47.9388C88.2034 46.3941 88.6043 44.6465 88.5181 42.8886Z" fill="#FFA000"/>
<path d="M45.1195 54.8821L28.3095 86.9851C26.0402 86.0553 24.1124 84.4491 22.7883 82.3849L2.83709 51.3437C2.0259 50.0801 1.55866 48.6266 1.48159 47.127C1.40451 45.6275 1.72027 44.1337 2.39763 42.7937L13.3383 21.1796C14.5223 18.8403 16.1876 16.7778 18.225 15.1274L45.1195 54.8821Z" fill="#FF8F00"/>
<path d="M58.8141 62.0953C58.8953 62.2085 58.9981 62.3045 59.1165 62.3777C59.235 62.451 59.3668 62.5 59.5043 62.522C59.6419 62.5441 59.7824 62.5386 59.9178 62.5061C60.0532 62.4735 60.1809 62.4144 60.2933 62.3322C60.4058 62.2501 60.5009 62.1464 60.5731 62.0273C60.6452 61.9082 60.6931 61.776 60.714 61.6383C60.7348 61.5006 60.7281 61.3601 60.6944 61.225C60.6606 61.0898 60.6004 60.9627 60.5172 60.851L57.4059 56.5929C57.3247 56.4797 57.2219 56.3837 57.1035 56.3105C56.985 56.2372 56.8532 56.1882 56.7157 56.1662C56.5781 56.1441 56.4376 56.1496 56.3022 56.1822C56.1668 56.2147 56.0392 56.2738 55.9267 56.356C55.8142 56.4382 55.7192 56.5418 55.647 56.6609C55.5748 56.78 55.5269 56.9122 55.5061 57.0499C55.4852 57.1877 55.4919 57.3281 55.5257 57.4633C55.5594 57.5984 55.6196 57.7255 55.7028 57.8372L58.8141 62.0953ZM43.4883 39.3312C43.2624 39.4962 43.1114 39.7441 43.0684 40.0205C43.0253 40.2969 43.0939 40.579 43.2589 40.8049L46.3702 45.063C46.5362 45.2861 46.7837 45.4347 47.0587 45.4762C47.3337 45.5178 47.614 45.4491 47.8385 45.285C48.0631 45.1209 48.2138 44.8748 48.2577 44.6002C48.3017 44.3255 48.2354 44.0447 48.0733 43.8187L44.962 39.5605C44.797 39.3347 44.549 39.1837 44.2726 39.1406C43.9963 39.0976 43.7141 39.1662 43.4883 39.3312ZM65.0357 70.6111C65.2007 70.8369 65.4487 70.988 65.7251 71.0311C66.0015 71.0741 66.2837 71.0056 66.5095 70.8406C66.7354 70.6755 66.8865 70.4276 66.9295 70.1512C66.9726 69.8748 66.904 69.5926 66.739 69.3667L63.6277 65.1086C63.4627 64.8827 63.2147 64.7316 62.9383 64.6886C62.6619 64.6456 62.3797 64.7141 62.1539 64.8791C61.928 65.0441 61.7769 65.2921 61.7339 65.5685C61.6908 65.8449 61.7594 66.1271 61.9244 66.3529L65.0357 70.6111ZM15.889 39.0655L10.9722 40.9719C10.7138 41.0747 10.5063 41.2754 10.3951 41.5303C10.2839 41.7853 10.278 42.0739 10.3785 42.3333C10.4791 42.5926 10.678 42.8017 10.932 42.9151C11.1861 43.0285 11.4746 43.0369 11.7348 42.9385L16.6516 41.0322C16.9101 40.9294 17.1175 40.7287 17.2287 40.4737C17.3399 40.2188 17.3458 39.9302 17.2453 39.6708C17.1447 39.4115 16.9458 39.2023 16.6918 39.089C16.4377 38.9756 16.1492 38.9672 15.889 39.0655ZM25.7226 35.2527L20.8058 37.1599C20.5473 37.2627 20.3399 37.4634 20.2287 37.7184C20.1175 37.9733 20.1115 38.2619 20.2121 38.5213C20.3126 38.7806 20.5116 38.9897 20.7656 39.1031C21.0196 39.2165 21.3081 39.2249 21.5683 39.1265L26.4851 37.2202C26.7459 37.1191 26.9559 36.9185 27.0688 36.6626C27.1817 36.4066 27.1884 36.1163 27.0873 35.8555C26.9861 35.5947 26.7856 35.3847 26.5296 35.2718C26.2737 35.1589 25.9834 35.1523 25.7226 35.2534V35.2527ZM43.1661 24.3746C43.2783 24.4558 43.4054 24.5141 43.5401 24.5462C43.6749 24.5783 43.8147 24.5835 43.9514 24.5616C44.0882 24.5396 44.2193 24.491 44.3373 24.4184C44.4552 24.3458 44.5577 24.2506 44.6389 24.1384L47.7304 19.8669C47.8944 19.6403 47.9616 19.3578 47.9173 19.0816C47.873 18.8054 47.7209 18.5581 47.4942 18.3941C47.2676 18.2301 46.9851 18.1629 46.7089 18.2072C46.4327 18.2515 46.1854 18.4037 46.0214 18.6303L42.93 22.9018C42.8488 23.014 42.7904 23.1411 42.7583 23.2758C42.7263 23.4106 42.721 23.5503 42.7429 23.6871C42.7649 23.8239 42.8135 23.955 42.8861 24.0729C42.9587 24.1909 43.0538 24.2934 43.1661 24.3746ZM49.3492 15.8303C49.4614 15.9115 49.5885 15.9698 49.7232 16.0019C49.858 16.0339 49.9978 16.0392 50.1345 16.0172C50.2713 15.9953 50.4024 15.9466 50.5204 15.874C50.6383 15.8014 50.7408 15.7062 50.822 15.594L53.9135 11.3225C54.0775 11.0959 54.1447 10.8134 54.1004 10.5372C54.0561 10.2609 53.9039 10.0136 53.6772 9.84965C53.4506 9.68566 53.1681 9.61843 52.8919 9.66273C52.6157 9.70704 52.3684 9.85925 52.2044 10.0859L49.1133 14.3574C49.032 14.4696 48.9737 14.5967 48.9416 14.7314C48.9095 14.8662 48.9042 15.0059 48.9261 15.1427C48.9481 15.2794 48.9967 15.4106 49.0693 15.5285C49.1418 15.6465 49.237 15.749 49.3492 15.8303Z" fill="black"/>
<path d="M66.4713 5.41978C65.3165 3.6716 63.6288 2.3424 61.6586 1.6295C59.6885 0.916597 57.541 0.858003 55.5349 1.46241L24.3337 10.7386C21.7732 11.5048 19.395 12.7831 17.3433 14.496C15.2917 16.2089 13.6093 18.3207 12.3982 20.7033L1.45739 42.3184C0.700762 43.8234 0.348399 45.4993 0.434871 47.1816C0.521343 48.8638 1.04368 50.4948 1.95063 51.9143L21.9018 82.956C23.4486 85.3472 25.7334 87.1685 28.4093 88.1432C31.0853 89.118 34.0061 89.1931 36.7286 88.3571L68.7155 78.43C71.1991 77.6648 73.2842 75.9572 74.524 73.6732L88.2858 48.4431C89.2172 46.742 89.6645 44.8181 89.5791 42.8805C89.4937 40.9429 88.8788 39.0659 87.8013 37.4533L66.4713 5.41978ZM24.9342 12.7606L56.1354 3.48442C56.4666 3.38602 56.8039 3.30968 57.1452 3.25591L55.296 5.81317C55.132 6.03982 55.0648 6.32232 55.1091 6.59854C55.1534 6.87476 55.3056 7.12206 55.5323 7.28605C55.7589 7.45003 56.0414 7.51727 56.3176 7.47296C56.5938 7.42866 56.8411 7.27644 57.0051 7.0498L59.7275 3.28808C60.7381 3.4748 61.7007 3.86338 62.5578 4.43058C63.4148 4.99779 64.1487 5.73197 64.7156 6.58925L86.0449 38.6226C86.7428 39.6712 87.1996 40.8614 87.3826 42.1076L53.6373 51.4335L51.1845 48.0761C51.0195 47.8502 50.7715 47.6991 50.4951 47.6561C50.2187 47.6131 49.9365 47.6816 49.7107 47.8466C49.4848 48.0116 49.3337 48.2596 49.2907 48.536C49.2476 48.8124 49.3162 49.0946 49.4812 49.3204L51.4638 52.034L45.5692 53.6633L32.7899 34.7738L37.5593 33.0032L40.1484 36.5469C40.2301 36.6588 40.3331 36.7534 40.4513 36.8255C40.5696 36.8976 40.701 36.9456 40.8378 36.9669C40.9747 36.9882 41.1144 36.9824 41.249 36.9497C41.3836 36.917 41.5104 36.8581 41.6223 36.7764C41.7341 36.6947 41.8288 36.5918 41.9008 36.4735C41.9729 36.3552 42.0209 36.2239 42.0422 36.087C42.0635 35.9502 42.0577 35.8105 42.025 35.6759C41.9923 35.5413 41.9334 35.4144 41.8517 35.3026L39.1932 31.6639L41.5471 28.4109C41.6307 28.2989 41.6912 28.1713 41.7251 28.0357C41.7589 27.9001 41.7655 27.7591 41.7444 27.6209C41.7233 27.4827 41.6749 27.3501 41.6021 27.2307C41.5292 27.1114 41.4334 27.0078 41.3202 26.9258C41.2069 26.8438 41.0785 26.7852 40.9424 26.7533C40.8063 26.7214 40.6652 26.7169 40.5274 26.74C40.3895 26.7632 40.2576 26.8134 40.1393 26.888C40.0211 26.9625 39.9188 27.0599 39.8385 27.1743L37.1761 30.8319L31.5782 32.9826L19.6602 15.3648C21.259 14.2056 23.0423 13.3251 24.9347 12.7606H24.9342ZM23.6756 81.8155L3.72514 50.7738C2.91122 49.502 2.49606 48.016 2.53299 46.5065L6.81784 44.8452C6.94698 44.7952 7.065 44.7201 7.16515 44.6245C7.2653 44.5288 7.34562 44.4143 7.40154 44.2876C7.45745 44.1609 7.48786 44.0244 7.49102 43.8859C7.49418 43.7474 7.47004 43.6097 7.41997 43.4805C7.3699 43.3514 7.29489 43.2334 7.19921 43.1332C7.10353 43.0331 6.98906 42.9528 6.86234 42.8968C6.73562 42.8409 6.59913 42.8105 6.46065 42.8074C6.32218 42.8042 6.18444 42.8283 6.0553 42.8784L2.9967 44.0641C3.09571 43.7933 3.21027 43.5285 3.33983 43.2709L14.2794 21.6562C15.2223 19.797 16.4893 18.121 18.0207 16.7067L43.8926 54.9514L27.8437 85.6017C26.1461 84.7273 24.7086 83.4215 23.6756 81.8155ZM86.4339 47.4327L72.6722 72.6631C72.1994 73.5316 71.5673 74.3032 70.8089 74.9376L69.8503 73.6255C69.7692 73.5124 69.6664 73.4164 69.5479 73.3431C69.4294 73.2699 69.2976 73.2209 69.1601 73.1988C69.0226 73.1768 68.882 73.1823 68.7466 73.2148C68.6112 73.2474 68.4836 73.3065 68.3711 73.3887C68.2587 73.4708 68.1636 73.5744 68.0914 73.6936C68.0192 73.8127 67.9713 73.9449 67.9505 74.0826C67.9297 74.2203 67.9363 74.3608 67.9701 74.4959C68.0039 74.6311 68.0641 74.7582 68.1472 74.8699L69.0173 76.061C68.7161 76.1982 68.4066 76.3166 68.0906 76.4154L36.1026 86.3424C34.0564 86.9757 31.8688 86.9918 29.8135 86.3885L45.842 55.7772L87.423 44.285C87.3013 45.3887 86.9653 46.4581 86.4339 47.4331V47.4327Z" fill="black"/>
</g>
</svg>
