<svg width="198" height="44" viewBox="0 0 198 44" fill="none" xmlns="http://www.w3.org/2000/svg">
<path d="M11.0414 10.6533C11.0414 10.5485 11.0857 10.4483 11.1638 10.3767L22.3647 0.102897C22.6115 -0.123458 23.0148 0.0481161 23.0148 0.379453V21.4944C23.0148 21.6004 22.9696 21.7015 22.89 21.7732L11.6891 31.8699C11.4415 32.0931 11.0414 31.9209 11.0414 31.5911V10.6533Z" fill="#0C5ADB"/>
<path d="M22.2424 21.6356C22.2424 21.5308 22.2867 21.4307 22.3647 21.3591L33.5657 11.0853C33.8125 10.8589 34.2158 11.0305 34.2158 11.3618V32.4768C34.2158 32.5827 34.1705 32.6839 34.091 32.7556L22.89 42.8523C22.6424 43.0755 22.2424 42.9032 22.2424 42.5735V21.6356Z" fill="#0C5ADB"/>
<path d="M33.6514 22.1067C33.4945 21.9649 33.4845 21.7253 33.6291 21.5715L38.7835 16.0869C38.928 15.933 39.1724 15.9232 39.3293 16.065L44.9231 21.1188C45.08 21.2605 45.09 21.5001 44.9454 21.6539L39.791 27.1386C39.6465 27.2924 39.4021 27.3022 39.2452 27.1605L33.6514 22.1067Z" fill="#0C5ADB"/>
<path d="M0.124514 22.1067C-0.0323581 21.9649 -0.042348 21.7253 0.1022 21.5715L5.2566 16.0869C5.40115 15.933 5.6455 15.9232 5.80237 16.065L11.3962 21.1188C11.5531 21.2605 11.5631 21.5001 11.4185 21.6539L6.26413 27.1386C6.11958 27.2924 5.87523 27.3022 5.71836 27.1605L0.124514 22.1067Z" fill="#0C5ADB"/>
<path d="M60.4862 35.5766V12.3519H52.3809V7.44529H74.3752V12.3519H66.2699V35.5766H60.4862Z" fill="white"/>
<path d="M84.1078 35.9038C82.2613 35.9038 80.7272 35.7811 79.5053 35.5358C78.2834 35.2904 77.3058 34.9088 76.5727 34.3909C75.8667 33.8457 75.3236 33.1642 74.9435 32.3464C74.5905 31.5014 74.3597 30.4928 74.2511 29.3207C74.1696 28.1213 74.1289 26.7447 74.1289 25.1909C74.1289 23.3373 74.2239 21.729 74.414 20.3661C74.6041 19.0031 74.9978 17.8855 75.5952 17.0132C76.2197 16.1137 77.1701 15.4595 78.4463 15.0506C79.7496 14.6144 81.4739 14.3964 83.619 14.3964C85.3568 14.3964 86.7688 14.5326 87.8549 14.8052C88.9411 15.0778 89.7964 15.4867 90.4209 16.0319C91.0726 16.5771 91.5342 17.2858 91.8058 18.1581C92.1044 19.0031 92.2945 20.0117 92.376 21.1839C92.4574 22.356 92.4982 23.6917 92.4982 25.1909V26.7856H79.5053C79.5053 27.8214 79.546 28.6665 79.6275 29.3207C79.7361 29.9476 79.9669 30.4247 80.3199 30.7518C80.7 31.0789 81.2838 31.297 82.0713 31.406C82.8859 31.515 83.9856 31.5696 85.3704 31.5696C85.9406 31.5696 86.5787 31.5559 87.2847 31.5287C88.0179 31.5014 88.7646 31.4605 89.5249 31.406C90.3123 31.3515 91.0319 31.297 91.6836 31.2425V35.2495C91.0862 35.3858 90.3531 35.4949 89.4841 35.5766C88.6424 35.6857 87.7463 35.7675 86.796 35.822C85.8727 35.8765 84.9767 35.9038 84.1078 35.9038ZM87.3662 24.0869V23.4327C87.3662 22.3696 87.2983 21.5246 87.1625 20.8976C87.0539 20.2434 86.8503 19.7528 86.5516 19.4256C86.28 19.0985 85.8999 18.8941 85.4111 18.8123C84.9224 18.7033 84.2978 18.6488 83.5375 18.6488C82.6415 18.6488 81.9355 18.7169 81.4196 18.8532C80.9037 18.9622 80.5099 19.1939 80.2384 19.5483C79.9669 19.8754 79.7768 20.3661 79.6682 21.0203C79.5596 21.6473 79.5053 22.4514 79.5053 23.4327H88.0993L87.3662 24.0869Z" fill="white"/>
<path d="M105.558 35.9038C103.902 35.9038 102.53 35.7538 101.444 35.454C100.385 35.1541 99.5298 34.718 98.8782 34.1455C98.2536 33.5731 97.792 32.8644 97.4933 32.0193C97.1946 31.147 97.0046 30.1385 96.9231 28.9936C96.8417 27.8214 96.8009 26.5266 96.8009 25.1092C96.8009 23.7462 96.8417 22.5059 96.9231 21.3883C97.0317 20.2434 97.249 19.2348 97.5748 18.3625C97.9006 17.4903 98.3758 16.7679 99.0003 16.1954C99.6249 15.5957 100.467 15.146 101.526 14.8461C102.585 14.5463 103.915 14.3964 105.517 14.3964C106.549 14.3964 107.608 14.4509 108.694 14.5599C109.78 14.6689 110.703 14.8189 111.464 15.0097V19.0985C110.894 18.9895 110.174 18.9077 109.305 18.8532C108.436 18.7987 107.635 18.7714 106.902 18.7714C105.843 18.7714 105.001 18.8532 104.377 19.0168C103.779 19.1803 103.318 19.4938 102.992 19.9572C102.693 20.3933 102.49 21.0339 102.381 21.879C102.272 22.724 102.218 23.8144 102.218 25.1501C102.218 26.513 102.272 27.617 102.381 28.462C102.49 29.3071 102.707 29.9613 103.033 30.4247C103.358 30.8608 103.834 31.1607 104.458 31.3242C105.11 31.4605 105.952 31.5287 106.983 31.5287C107.635 31.5287 108.368 31.5014 109.183 31.4469C110.025 31.3924 110.839 31.3242 111.627 31.2425V35.2904C110.866 35.4812 109.93 35.6312 108.816 35.7402C107.703 35.8492 106.617 35.9038 105.558 35.9038Z" fill="white"/>
<path d="M116.348 35.5766V14.7235H121.398L121.561 17.3403H121.887C122.267 16.6589 122.729 16.1 123.272 15.6639C123.842 15.2278 124.535 14.9143 125.349 14.7235C126.191 14.5054 127.141 14.3964 128.2 14.3964C129.612 14.3964 130.739 14.5735 131.581 14.9279C132.45 15.2823 133.115 15.8002 133.577 16.4817C134.038 17.1631 134.337 18.0082 134.473 19.0168C134.636 20.0253 134.717 21.1975 134.717 22.5332V35.5766H129.341V24.5367C129.341 23.2828 129.3 22.2878 129.219 21.5519C129.137 20.8159 128.974 20.2707 128.73 19.9163C128.485 19.5619 128.119 19.3439 127.63 19.2621C127.141 19.1531 126.49 19.0985 125.675 19.0985C124.806 19.0985 124.1 19.2076 123.557 19.4256C123.041 19.6165 122.647 19.9436 122.376 20.407C122.132 20.8431 121.955 21.4292 121.846 22.1652C121.765 22.8739 121.724 23.7462 121.724 24.7821V35.5766H116.348Z" fill="white"/>
<path d="M149.737 35.9038C147.891 35.9038 146.357 35.7811 145.135 35.5358C143.913 35.2904 142.935 34.9088 142.202 34.3909C141.496 33.8457 140.953 33.1642 140.573 32.3464C140.22 31.5014 139.989 30.4928 139.881 29.3207C139.799 28.1213 139.758 26.7447 139.758 25.1909C139.758 23.3373 139.854 21.729 140.044 20.3661C140.234 19.0031 140.627 17.8855 141.225 17.0132C141.849 16.1137 142.8 15.4595 144.076 15.0506C145.379 14.6144 147.103 14.3964 149.249 14.3964C150.986 14.3964 152.398 14.5326 153.485 14.8052C154.571 15.0778 155.426 15.4867 156.051 16.0319C156.702 16.5771 157.164 17.2858 157.435 18.1581C157.734 19.0031 157.924 20.0117 158.006 21.1839C158.087 22.356 158.128 23.6917 158.128 25.1909V26.7856H145.135C145.135 27.8214 145.176 28.6665 145.257 29.3207C145.366 29.9476 145.596 30.4247 145.949 30.7518C146.33 31.0789 146.913 31.297 147.701 31.406C148.515 31.515 149.615 31.5696 151 31.5696C151.57 31.5696 152.208 31.5559 152.914 31.5287C153.647 31.5014 154.394 31.4605 155.154 31.406C155.942 31.3515 156.661 31.297 157.313 31.2425V35.2495C156.716 35.3858 155.983 35.4949 155.114 35.5766C154.272 35.6857 153.376 35.7675 152.426 35.822C151.502 35.8765 150.606 35.9038 149.737 35.9038ZM152.996 24.0869V23.4327C152.996 22.3696 152.928 21.5246 152.792 20.8976C152.683 20.2434 152.48 19.7528 152.181 19.4256C151.91 19.0985 151.529 18.8941 151.041 18.8123C150.552 18.7033 149.927 18.6488 149.167 18.6488C148.271 18.6488 147.565 18.7169 147.049 18.8532C146.533 18.9622 146.14 19.1939 145.868 19.5483C145.596 19.8754 145.406 20.3661 145.298 21.0203C145.189 21.6473 145.135 22.4514 145.135 23.4327H153.729L152.996 24.0869Z" fill="white"/>
<path d="M165.159 35.5766V19.0985H161.168V14.7235H165.159V12.8017C165.159 11.3297 165.254 10.1303 165.445 9.2035C165.635 8.24943 165.96 7.51344 166.422 6.99551C166.911 6.45033 167.549 6.05508 168.336 5.80974C169.151 5.56441 170.156 5.41449 171.35 5.35997C172.572 5.27819 174.025 5.2373 175.709 5.2373V9.16261C174.568 9.16261 173.658 9.18987 172.98 9.24439C172.301 9.29891 171.785 9.42157 171.432 9.61238C171.106 9.8032 170.875 10.0894 170.739 10.471C170.631 10.8254 170.577 11.3161 170.577 11.943V14.7235H175.709V19.0985H170.577V35.5766H165.159Z" fill="white"/>
<path d="M188.143 43.9997C187.329 43.9997 186.487 43.9724 185.618 43.9179C184.749 43.8907 183.921 43.8361 183.133 43.7544C182.346 43.6998 181.654 43.6317 181.056 43.5499V39.5428C182.034 39.5701 182.862 39.5837 183.541 39.5837C184.247 39.611 184.858 39.6246 185.374 39.6246C185.917 39.6246 186.405 39.6246 186.84 39.6246C188.225 39.6246 189.297 39.5565 190.058 39.4202C190.845 39.2839 191.415 39.0249 191.768 38.6433C192.148 38.2617 192.379 37.7165 192.461 37.0077C192.569 36.3263 192.624 35.4267 192.624 34.3091V32.9189H192.298C191.999 33.5186 191.565 34.0229 190.994 34.4318C190.451 34.8407 189.786 35.1541 188.999 35.3722C188.211 35.563 187.274 35.6584 186.188 35.6584C184.776 35.6584 183.636 35.4812 182.767 35.1269C181.898 34.7725 181.233 34.2546 180.771 33.5731C180.337 32.8916 180.038 32.0602 179.875 31.0789C179.712 30.0703 179.631 28.8982 179.631 27.5625V14.7235H185.007V25.5589C185.007 26.8401 185.048 27.8487 185.129 28.5847C185.211 29.3207 185.374 29.8659 185.618 30.2202C185.862 30.5473 186.229 30.7654 186.718 30.8745C187.206 30.9562 187.858 30.9971 188.673 30.9971C189.542 30.9971 190.248 30.9017 190.791 30.7109C191.334 30.4928 191.728 30.1657 191.972 29.7296C192.243 29.2662 192.42 28.6801 192.501 27.9714C192.583 27.2354 192.624 26.3495 192.624 25.3136V14.7235H198V33.2051C198 35.086 197.905 36.7079 197.715 38.0708C197.525 39.4338 197.104 40.5514 196.452 41.4237C195.828 42.296 194.85 42.9366 193.52 43.3455C192.189 43.7816 190.397 43.9997 188.143 43.9997Z" fill="white"/>
</svg>
