<svg width="126" height="42" viewBox="0 0 126 42" fill="none" xmlns="http://www.w3.org/2000/svg">
<path d="M9.35899 7.76392H17.2707V2.28609H9.35899V7.76392ZM18.2356 9.64617H8.41826C7.8876 9.64617 7.47754 9.23594 7.47754 8.70505V1.34496C7.47754 0.838205 7.8876 0.403839 8.41826 0.403839H18.2356C18.7421 0.403839 19.1763 0.838205 19.1763 1.34496V8.70505C19.1763 9.23594 18.7421 9.64617 18.2356 9.64617Z" fill="#4DA627"/>
<path d="M4.92046 7.76392H21.7088C22.2394 7.76392 22.6495 8.17415 22.6495 8.70504C22.6495 10.3701 21.9741 11.8904 20.8887 12.9763C19.7791 14.0863 18.2836 14.762 16.6192 14.762H10.0341C8.36978 14.762 6.85015 14.0863 5.7647 12.9763C4.65513 11.8904 3.97974 10.3701 3.97974 8.70504C3.97974 8.17415 4.41392 7.76392 4.92046 7.76392Z" fill="#4DA627"/>
<path d="M6.39214 0.403839C5.8856 0.403839 5.45142 0.838205 5.45142 1.34496C5.45142 1.87586 5.8856 2.28609 6.39214 2.28609H20.2377C20.7683 2.28609 21.2025 1.87586 21.2025 1.34496C21.2025 0.838205 20.7683 0.403839 20.2377 0.403839H6.39214Z" fill="#4DA627"/>
<path d="M8.6836 38.0971V39.0623C8.6836 40.4378 7.54991 41.5961 6.15088 41.5961C4.75186 41.5961 3.61816 40.4378 3.61816 39.0623V38.0971H3.8835H8.6836Z" fill="#4DA627"/>
<path d="M23.0365 38.0971V39.0623C23.0365 40.4378 21.8787 41.5961 20.5038 41.5961C19.1048 41.5961 17.9711 40.4378 17.9711 39.0623V38.0971H22.7712H23.0365Z" fill="#4DA627"/>
<path fill-rule="evenodd" clip-rule="evenodd" d="M4.34193 28.2032V22.653C4.34193 22.1221 4.77611 21.7119 5.30677 21.7119H21.3473C21.878 21.7119 22.2881 22.1221 22.2881 22.653V28.2032C22.2881 29.265 21.8539 30.2544 21.1544 30.9542C20.4307 31.654 19.4659 32.0884 18.4046 32.0884H8.24955C7.18822 32.0884 6.19926 31.654 5.49974 30.9542C4.80023 30.2544 4.34193 29.265 4.34193 28.2032ZM16.6196 15.7032H10.0345C8.17719 15.7032 6.41635 14.9551 5.08968 13.652C3.78714 12.3489 3.03939 10.5632 3.03939 8.70506C3.03939 8.39135 3.11175 8.07764 3.25648 7.81219C2.43636 7.93285 1.6886 8.34309 1.13382 8.89811C0.434303 9.62205 0.00012207 10.5873 0.00012207 11.6491V33.2467C0.00012207 34.3326 0.434303 35.2979 1.13382 35.9977C1.78509 36.6492 2.65345 37.0836 3.61829 37.1319C3.71478 37.156 3.78714 37.156 3.88363 37.156H5.49974H6.77816H8.68373H17.9704H19.8518H21.1302H22.7705C22.8428 37.156 22.9393 37.156 23.0358 37.1319C24.0007 37.0836 24.869 36.6492 25.5203 35.9977C26.2198 35.2979 26.654 34.3326 26.654 33.2467V11.6491C26.654 10.5873 26.2198 9.62205 25.5203 8.89811C24.9414 8.34309 24.2177 7.93285 23.3735 7.81219C23.5182 8.07764 23.6147 8.39135 23.6147 8.70506C23.6147 10.5632 22.867 12.3489 21.5644 13.652C20.2378 14.9551 18.4769 15.7032 16.6196 15.7032Z" fill="#4DA627"/>
<path d="M118.333 20.5697L116.822 18.8728L122.602 12.636H125.603L118.333 20.5697ZM115.955 23.655V8.22835H118.445V23.655H115.955ZM123.024 23.655L119.111 17.9472L120.734 16.2282L125.981 23.655H123.024Z" fill="black"/>
<path d="M111.076 23.655L110.965 21.5834V17.9912C110.965 17.2419 110.883 16.6175 110.72 16.118C110.572 15.6037 110.32 15.2144 109.965 14.9499C109.624 14.6708 109.164 14.5312 108.586 14.5312C108.053 14.5312 107.586 14.6414 107.186 14.8618C106.786 15.0822 106.445 15.4274 106.163 15.8976L103.985 15.1042C104.222 14.6194 104.533 14.1713 104.918 13.7599C105.318 13.3338 105.815 12.9959 106.408 12.7461C107.015 12.4964 107.742 12.3715 108.586 12.3715C109.668 12.3715 110.572 12.5845 111.298 13.0106C112.025 13.422 112.558 14.017 112.899 14.7957C113.255 15.5743 113.433 16.5146 113.433 17.6165L113.366 23.655H111.076ZM107.875 23.9194C106.541 23.9194 105.504 23.6256 104.763 23.0379C104.036 22.4502 103.673 21.6201 103.673 20.5476C103.673 19.4016 104.059 18.5275 104.829 17.9251C105.615 17.3227 106.704 17.0215 108.097 17.0215H111.076V18.9168H108.898C107.905 18.9168 107.208 19.0564 106.808 19.3355C106.408 19.6 106.208 19.982 106.208 20.4815C106.208 20.9076 106.378 21.2455 106.719 21.4952C107.075 21.7303 107.564 21.8479 108.186 21.8479C108.749 21.8479 109.238 21.723 109.653 21.4732C110.068 21.2234 110.387 20.8929 110.609 20.4815C110.846 20.0701 110.965 19.6073 110.965 19.0931H111.699C111.699 20.5917 111.395 21.7744 110.787 22.6412C110.179 23.4934 109.209 23.9194 107.875 23.9194Z" fill="black"/>
<path d="M97.0091 23.9194C95.9272 23.9194 94.9639 23.677 94.1191 23.1922C93.2892 22.6927 92.6297 22.0095 92.1406 21.1426C91.6663 20.2758 91.4292 19.2767 91.4292 18.1455C91.4292 17.0142 91.6737 16.0151 92.1628 15.1483C92.6519 14.2814 93.3188 13.6056 94.1636 13.1208C95.0231 12.6212 96.0013 12.3715 97.098 12.3715C98.091 12.3715 98.9876 12.6286 99.7879 13.1428C100.588 13.6423 101.218 14.3696 101.677 15.3246C102.152 16.2796 102.389 17.4182 102.389 18.7405H93.6523L93.9857 18.432C93.9857 19.1078 94.1339 19.6955 94.4303 20.195C94.7267 20.6798 95.1195 21.0545 95.6086 21.3189C96.0976 21.5834 96.6386 21.7156 97.2314 21.7156C97.9131 21.7156 98.4763 21.5687 98.9209 21.2749C99.3655 20.9663 99.7138 20.5696 99.9657 20.0848L102.167 21.0104C101.855 21.5981 101.455 22.1123 100.966 22.5531C100.492 22.9938 99.9213 23.3318 99.2544 23.5668C98.6023 23.8019 97.8538 23.9194 97.0091 23.9194ZM94.1413 17.1537L93.7856 16.8452H100.055L99.7212 17.1537C99.7212 16.5514 99.5878 16.0592 99.3211 15.6772C99.0543 15.2805 98.7134 14.9867 98.2984 14.7957C97.8983 14.59 97.4759 14.4871 97.0313 14.4871C96.5867 14.4871 96.1421 14.59 95.6975 14.7957C95.2529 14.9867 94.8823 15.2805 94.5859 15.6772C94.2895 16.0592 94.1413 16.5514 94.1413 17.1537Z" fill="black"/>
<path d="M78.8983 28.0626V12.6359H81.2325L81.3881 14.6634V28.0626H78.8983ZM84.9006 23.9194C83.9669 23.9194 83.1592 23.6844 82.4774 23.2142C81.8105 22.7294 81.2992 22.0535 80.9435 21.1867C80.5878 20.3199 80.41 19.3061 80.41 18.1455C80.41 16.9701 80.5878 15.9563 80.9435 15.1042C81.2992 14.2374 81.8105 13.5689 82.4774 13.0987C83.1592 12.6139 83.9669 12.3715 84.9006 12.3715C85.9084 12.3715 86.7828 12.6139 87.5238 13.0987C88.2796 13.5689 88.865 14.2374 89.28 15.1042C89.7098 15.9563 89.9247 16.9701 89.9247 18.1455C89.9247 19.3061 89.7098 20.3199 89.28 21.1867C88.865 22.0535 88.2796 22.7294 87.5238 23.2142C86.7828 23.6844 85.9084 23.9194 84.9006 23.9194ZM84.2781 21.6716C84.8709 21.6716 85.3971 21.5246 85.8565 21.2308C86.3159 20.9223 86.679 20.5035 86.9458 19.9746C87.2274 19.4457 87.3682 18.836 87.3682 18.1455C87.3682 17.4549 87.2348 16.8452 86.968 16.3163C86.7161 15.7874 86.3604 15.376 85.9009 15.0822C85.4415 14.7883 84.908 14.6414 84.3003 14.6414C83.7372 14.6414 83.2333 14.7883 82.7887 15.0822C82.3441 15.376 81.9958 15.7874 81.7438 16.3163C81.5067 16.8452 81.3881 17.4549 81.3881 18.1455C81.3881 18.836 81.5067 19.4457 81.7438 19.9746C81.9958 20.5035 82.3366 20.9223 82.7664 21.2308C83.211 21.5246 83.7149 21.6716 84.2781 21.6716Z" fill="black"/>
<path d="M72.3567 17.7929C72.3567 16.6028 72.5864 15.6258 73.0459 14.8618C73.5053 14.0978 74.0981 13.5322 74.8243 13.1649C75.5653 12.7829 76.336 12.5919 77.1363 12.5919V14.95C76.4546 14.95 75.8099 15.0454 75.2022 15.2364C74.6094 15.4128 74.1278 15.7066 73.7573 16.118C73.3867 16.5293 73.2015 17.073 73.2015 17.7488L72.3567 17.7929ZM70.7117 23.655V12.636H73.2015V23.655H70.7117Z" fill="black"/>
<path d="M65.6111 23.655L65.4777 21.6275V12.636H67.9453V23.655H65.6111ZM57.9193 18.2777V12.636H60.4091V18.2777H57.9193ZM60.4091 18.2777C60.4091 19.1446 60.5129 19.8204 60.7204 20.3052C60.9279 20.7901 61.2094 21.128 61.5651 21.319C61.9356 21.51 62.358 21.6055 62.8323 21.6055C63.677 21.6202 64.3291 21.3484 64.7886 20.7901C65.248 20.2318 65.4777 19.4311 65.4777 18.3879H66.4114C66.4114 19.5486 66.2335 20.5477 65.8779 21.3851C65.537 22.2079 65.0479 22.8396 64.4106 23.2804C63.7882 23.7065 63.0323 23.9195 62.1431 23.9195C61.2687 23.9195 60.5129 23.7432 59.8756 23.3906C59.2531 23.038 58.7715 22.487 58.4306 21.7377C58.0897 20.9884 57.9193 20.0261 57.9193 18.8507V18.2777H60.4091Z" fill="black"/>
<path d="M50.359 23.9194C49.2475 23.9194 48.2545 23.677 47.3801 23.1922C46.5205 22.6927 45.8462 22.0095 45.3571 21.1426C44.8681 20.2758 44.6235 19.2767 44.6235 18.1455C44.6235 17.0142 44.8607 16.0151 45.3349 15.1483C45.824 14.2814 46.4983 13.6056 47.3579 13.1208C48.2175 12.6212 49.203 12.3715 50.3146 12.3715C51.4261 12.3715 52.4116 12.6212 53.2712 13.1208C54.1308 13.6056 54.7977 14.2814 55.272 15.1483C55.7611 16.0151 56.0056 17.0142 56.0056 18.1455C56.0056 19.2767 55.7685 20.2758 55.2942 21.1426C54.82 22.0095 54.153 22.6927 53.2935 23.1922C52.4339 23.677 51.4557 23.9194 50.359 23.9194ZM50.359 21.6495C50.9667 21.6495 51.5076 21.5026 51.9819 21.2088C52.4561 20.9002 52.8266 20.4888 53.0934 19.9746C53.3601 19.4457 53.4935 18.836 53.4935 18.1455C53.4935 17.4549 53.3527 16.8526 53.0712 16.3383C52.8044 15.8094 52.4339 15.398 51.9596 15.1042C51.4854 14.7957 50.937 14.6414 50.3146 14.6414C49.6921 14.6414 49.1438 14.7883 48.6695 15.0822C48.1952 15.376 47.8247 15.7874 47.558 16.3163C47.2912 16.8452 47.1578 17.4549 47.1578 18.1455C47.1578 18.836 47.2912 19.4457 47.558 19.9746C47.8396 20.4888 48.2175 20.9002 48.6917 21.2088C49.1808 21.5026 49.7366 21.6495 50.359 21.6495Z" fill="black"/>
<path d="M37.6474 23.655V10.5644H32.8678V8.22835H45.0057V10.5644H40.2261V23.655H37.6474Z" fill="black"/>
<rect x="78.5226" y="8.96297" width="2.96408" height="2.93841" fill="#F38035"/>
<g opacity="0.6">
<path d="M124.114 37.3053C123.708 37.3053 123.35 37.2143 123.038 37.0323C122.726 36.8448 122.482 36.5884 122.304 36.263C122.131 35.9376 122.045 35.5626 122.045 35.138C122.045 34.7134 122.131 34.3383 122.304 34.013C122.482 33.6876 122.724 33.4339 123.03 33.2519C123.341 33.0644 123.697 32.9707 124.098 32.9707C124.487 32.9707 124.824 33.0672 125.107 33.2602C125.391 33.4477 125.611 33.7124 125.767 34.0543C125.922 34.3963 126 34.7988 126 35.2621H122.554L122.721 35.1214C122.721 35.4523 122.779 35.7363 122.896 35.9735C123.019 36.2106 123.188 36.3926 123.405 36.5194C123.622 36.6408 123.87 36.7014 124.148 36.7014C124.443 36.7014 124.69 36.6325 124.89 36.4946C125.096 36.3567 125.255 36.1748 125.366 35.9487L125.942 36.2382C125.836 36.4533 125.694 36.6408 125.516 36.8007C125.344 36.9606 125.138 37.0847 124.899 37.1729C124.665 37.2612 124.404 37.3053 124.114 37.3053ZM122.763 34.8402L122.587 34.7078H125.466L125.291 34.8485C125.291 34.5838 125.238 34.3549 125.132 34.1619C125.027 33.9689 124.885 33.82 124.707 33.7152C124.529 33.6104 124.323 33.558 124.089 33.558C123.861 33.558 123.644 33.6104 123.439 33.7152C123.238 33.82 123.074 33.9689 122.946 34.1619C122.824 34.3494 122.763 34.5755 122.763 34.8402Z" fill="black"/>
<path d="M119.834 34.9643C119.834 34.5176 119.921 34.1564 120.093 33.8806C120.266 33.5994 120.485 33.3926 120.752 33.2602C121.025 33.1224 121.311 33.0534 121.612 33.0534V33.6738C121.367 33.6738 121.131 33.7152 120.903 33.7979C120.68 33.8751 120.496 34.0047 120.352 34.1867C120.207 34.3687 120.135 34.6169 120.135 34.9312L119.834 34.9643ZM119.467 37.206V33.07H120.135V37.206H119.467Z" fill="black"/>
<path d="M117.676 37.206L117.635 36.445V33.0699H118.302V37.206H117.676ZM114.706 35.1876V33.0699H115.373V35.1876H114.706ZM115.373 35.1876C115.373 35.5957 115.421 35.9073 115.515 36.1224C115.61 36.3374 115.741 36.4863 115.907 36.5691C116.08 36.6463 116.272 36.6849 116.483 36.6849C116.845 36.6849 117.126 36.5553 117.326 36.2961C117.532 36.0369 117.635 35.6757 117.635 35.2124H117.96C117.96 35.6481 117.896 36.0231 117.768 36.3374C117.64 36.6518 117.454 36.8917 117.209 37.0571C116.97 37.2226 116.675 37.3053 116.325 37.3053C116.002 37.3053 115.718 37.2419 115.473 37.115C115.229 36.9827 115.04 36.7759 114.906 36.4946C114.773 36.2078 114.706 35.8384 114.706 35.3861V35.1876H115.373Z" fill="black"/>
<path d="M113.229 37.3053C112.823 37.3053 112.509 37.2005 112.286 36.9909C112.064 36.7814 111.953 36.4863 111.953 36.1058V31.7795H112.62V36.0396C112.62 36.2492 112.676 36.4119 112.787 36.5277C112.904 36.638 113.065 36.6931 113.271 36.6931C113.338 36.6931 113.402 36.6849 113.463 36.6683C113.53 36.6462 113.616 36.5966 113.722 36.5194L113.98 37.0571C113.836 37.1508 113.705 37.2143 113.588 37.2474C113.471 37.286 113.352 37.3053 113.229 37.3053ZM111.227 33.6573V33.0699H113.872V33.6573H111.227Z" fill="black"/>
<path d="M107.008 37.206V33.07H107.633L107.675 33.831V37.206H107.008ZM109.936 37.206V35.0884H110.604V37.206H109.936ZM109.936 35.0884C109.936 34.6803 109.889 34.3687 109.795 34.1536C109.7 33.9385 109.569 33.7924 109.402 33.7152C109.236 33.6325 109.046 33.5911 108.835 33.5911C108.468 33.5911 108.181 33.7207 107.976 33.9799C107.775 34.2336 107.675 34.5948 107.675 35.0635H107.35C107.35 34.6279 107.414 34.2529 107.542 33.9385C107.67 33.6242 107.856 33.3843 108.101 33.2189C108.345 33.0534 108.64 32.9707 108.985 32.9707C109.313 32.9707 109.597 33.0369 109.836 33.1692C110.081 33.2961 110.27 33.5001 110.404 33.7814C110.543 34.0626 110.61 34.4321 110.604 34.8898V35.0884H109.936Z" fill="black"/>
<path d="M104.28 37.3053C103.874 37.3053 103.516 37.2143 103.204 37.0323C102.893 36.8448 102.648 36.5884 102.47 36.263C102.297 35.9376 102.211 35.5626 102.211 35.138C102.211 34.7134 102.297 34.3383 102.47 34.013C102.648 33.6876 102.89 33.4339 103.196 33.2519C103.507 33.0644 103.863 32.9707 104.264 32.9707C104.653 32.9707 104.99 33.0672 105.273 33.2602C105.557 33.4477 105.777 33.7124 105.933 34.0543C106.088 34.3963 106.166 34.7988 106.166 35.2621H102.72L102.887 35.1214C102.887 35.4523 102.945 35.7363 103.062 35.9735C103.185 36.2106 103.354 36.3926 103.571 36.5194C103.788 36.6408 104.036 36.7014 104.314 36.7014C104.609 36.7014 104.856 36.6325 105.056 36.4946C105.262 36.3567 105.421 36.1748 105.532 35.9487L106.108 36.2382C106.002 36.4533 105.86 36.6408 105.682 36.8007C105.51 36.9606 105.304 37.0847 105.065 37.1729C104.831 37.2612 104.57 37.3053 104.28 37.3053ZM102.929 34.8402L102.753 34.7078H105.632L105.457 34.8485C105.457 34.5838 105.404 34.3549 105.298 34.1619C105.193 33.9689 105.051 33.82 104.873 33.7152C104.695 33.6104 104.489 33.558 104.255 33.558C104.027 33.558 103.81 33.6104 103.605 33.7152C103.404 33.82 103.24 33.9689 103.112 34.1619C102.99 34.3494 102.929 34.5755 102.929 34.8402Z" fill="black"/>
<path d="M99.4922 37.206L101.194 33.0699H101.895L100.151 37.206H99.4922ZM99.4505 37.206L97.7065 33.0699H98.3991L100.101 37.206H99.4505Z" fill="black"/>
<path d="M96.4134 37.206L96.38 36.4367V31.4155H97.0476V37.206H96.4134ZM94.9698 37.3053C94.5971 37.3053 94.2689 37.2143 93.9852 37.0323C93.7015 36.8503 93.479 36.5966 93.3176 36.2713C93.1619 35.9404 93.084 35.5626 93.084 35.138C93.084 34.7078 93.1619 34.3301 93.3176 34.0047C93.479 33.6793 93.7015 33.4256 93.9852 33.2437C94.2689 33.0617 94.5971 32.9707 94.9698 32.9707C95.3203 32.9707 95.6262 33.0617 95.8877 33.2437C96.1547 33.4256 96.3605 33.6793 96.5052 34.0047C96.6498 34.3301 96.7221 34.7078 96.7221 35.138C96.7221 35.5626 96.6498 35.9404 96.5052 36.2713C96.3605 36.5966 96.1547 36.8503 95.8877 37.0323C95.6262 37.2143 95.3203 37.3053 94.9698 37.3053ZM95.12 36.7014C95.3648 36.7014 95.5817 36.6352 95.7709 36.5029C95.96 36.3705 96.1074 36.1858 96.2131 35.9486C96.3244 35.7115 96.38 35.4413 96.38 35.138C96.38 34.8347 96.3244 34.5644 96.2131 34.3273C96.1074 34.0902 95.96 33.9054 95.7709 33.7731C95.5817 33.6407 95.362 33.5745 95.1117 33.5745C94.8502 33.5745 94.6166 33.6407 94.4107 33.7731C94.2105 33.9054 94.0519 34.0902 93.9351 34.3273C93.8183 34.5644 93.7599 34.8347 93.7599 35.138C93.7599 35.4413 93.8183 35.7115 93.9351 35.9486C94.0519 36.1858 94.2133 36.3705 94.4191 36.5029C94.6249 36.6352 94.8586 36.7014 95.12 36.7014Z" fill="black"/>
<path d="M91.9755 37.206L89.6307 31.4155H90.34L92.7181 37.206H91.9755ZM87.2275 37.206L89.6057 31.4155H90.3233L87.9785 37.206H87.2275ZM88.354 35.5598V34.9312H91.6V35.5598H88.354Z" fill="black"/>
<path d="M83.7185 34.0212L82.9258 32.8218L83.2929 32.5653L84.1941 33.6821L83.7185 34.0212ZM82.4752 34.046L81.9912 33.6986L82.9008 32.5819L83.2679 32.8466L82.4752 34.046ZM83.0092 32.921L81.6157 32.5405L81.7993 31.9863L83.1511 32.4991L83.0092 32.921ZM82.859 32.7142L82.7839 31.2831H83.368L83.3013 32.7142H82.859ZM83.1427 32.9293L83.0176 32.5074L84.3694 32.0028L84.5446 32.5488L83.1427 32.9293Z" fill="black"/>
<path d="M77.762 37.206V31.4155H78.4289V37.206H77.762Z" fill="black"/>
<path d="M75.0341 37.3053C74.628 37.3053 74.2692 37.2143 73.9577 37.0323C73.6462 36.8448 73.4014 36.5884 73.2234 36.263C73.0509 35.9376 72.9647 35.5626 72.9647 35.138C72.9647 34.7134 73.0509 34.3383 73.2234 34.013C73.4014 33.6876 73.6434 33.4339 73.9494 33.2519C74.2609 33.0644 74.6169 32.9707 75.0174 32.9707C75.4068 32.9707 75.7434 33.0672 76.0271 33.2602C76.3108 33.4477 76.5306 33.7124 76.6863 34.0543C76.8421 34.3963 76.92 34.7988 76.92 35.2621H73.4737L73.6406 35.1214C73.6406 35.4523 73.699 35.7363 73.8158 35.9735C73.9382 36.2106 74.1079 36.3926 74.3249 36.5194C74.5418 36.6408 74.7894 36.7014 75.0675 36.7014C75.3623 36.7014 75.6099 36.6325 75.8102 36.4946C76.016 36.3567 76.1745 36.1748 76.2858 35.9487L76.8615 36.2382C76.7558 36.4533 76.614 36.6408 76.436 36.8007C76.2635 36.9606 76.0577 37.0847 75.8185 37.1729C75.5849 37.2612 75.3234 37.3053 75.0341 37.3053ZM73.6823 34.8402L73.5071 34.7078H76.3859L76.2107 34.8485C76.2107 34.5838 76.1578 34.3549 76.0521 34.1619C75.9464 33.9689 75.8046 33.82 75.6266 33.7152C75.4486 33.6104 75.2427 33.558 75.0091 33.558C74.781 33.558 74.5641 33.6104 74.3582 33.7152C74.158 33.82 73.9939 33.9689 73.8659 34.1619C73.7435 34.3494 73.6823 34.5755 73.6823 34.8402Z" fill="black"/>
<path d="M70.246 37.206L71.9483 33.0699H72.6492L70.9052 37.206H70.246ZM70.2043 37.206L68.4603 33.0699H69.1529L70.8552 37.206H70.2043Z" fill="black"/>
<path d="M67.3509 37.206L67.3175 36.5277V35.0222C67.3175 34.6968 67.2813 34.4293 67.209 34.2198C67.1367 34.0047 67.0227 33.842 66.8669 33.7317C66.7111 33.6214 66.5081 33.5663 66.2578 33.5663C66.0297 33.5663 65.8322 33.6132 65.6653 33.7069C65.504 33.7951 65.3705 33.9385 65.2648 34.1371L64.664 33.9054C64.7697 33.7124 64.8976 33.547 65.0478 33.4091C65.198 33.2657 65.3733 33.1582 65.5735 33.0865C65.7738 33.0093 66.0019 32.9707 66.2578 32.9707C66.6472 32.9707 66.967 33.0479 67.2174 33.2023C67.4733 33.3512 67.6652 33.5746 67.7931 33.8723C67.9211 34.1646 67.9823 34.5286 67.9767 34.9643L67.9684 37.206H67.3509ZM66.0992 37.3053C65.6097 37.3053 65.2258 37.195 64.9477 36.9744C64.6751 36.7483 64.5388 36.4367 64.5388 36.0396C64.5388 35.6205 64.6779 35.3007 64.956 35.0801C65.2397 34.854 65.6347 34.7409 66.1409 34.7409H67.3342V35.2952H66.2911C65.9017 35.2952 65.6236 35.3586 65.4567 35.4854C65.2954 35.6123 65.2147 35.7942 65.2147 36.0314C65.2147 36.2465 65.2954 36.4174 65.4567 36.5442C65.618 36.6656 65.8433 36.7262 66.1326 36.7262C66.3718 36.7262 66.5804 36.6766 66.7584 36.5773C66.9364 36.4726 67.0727 36.3264 67.1673 36.1389C67.2674 35.9459 67.3175 35.7198 67.3175 35.4606H67.6012C67.6012 36.0231 67.4733 36.4726 67.2174 36.809C66.9615 37.1398 66.5888 37.3053 66.0992 37.3053Z" fill="black"/>
<path d="M62.3281 34.9643C62.3281 34.5176 62.4143 34.1564 62.5868 33.8806C62.7592 33.5994 62.979 33.3926 63.246 33.2602C63.5186 33.1224 63.805 33.0534 64.1054 33.0534V33.6738C63.8607 33.6738 63.6242 33.7152 63.3962 33.7979C63.1737 33.8751 62.9901 34.0047 62.8454 34.1867C62.7008 34.3687 62.6285 34.6169 62.6285 34.9312L62.3281 34.9643ZM61.9609 37.206V33.07H62.6285V37.206H61.9609Z" fill="black"/>
<path d="M59.1167 37.206V32.0525H57.2559V31.4155H61.6784V32.0525H59.8176V37.206H59.1167Z" fill="black"/>
<path d="M53.731 34.0212L52.9382 32.8218L53.3054 32.5653L54.2066 33.6821L53.731 34.0212ZM52.4876 34.046L52.0037 33.6986L52.9132 32.5819L53.2804 32.8466L52.4876 34.046ZM53.0217 32.921L51.6282 32.5405L51.8117 31.9863L53.1635 32.4991L53.0217 32.921ZM52.8715 32.7142L52.7964 31.2831H53.3805L53.3137 32.7142H52.8715ZM53.1552 32.9293L53.03 32.5074L54.3818 32.0028L54.557 32.5488L53.1552 32.9293Z" fill="black"/>
<path d="M47.1555 34.9643C47.1555 34.5176 47.2417 34.1564 47.4142 33.8806C47.5866 33.5994 47.8063 33.3926 48.0734 33.2602C48.3459 33.1224 48.6324 33.0534 48.9328 33.0534V33.6738C48.6881 33.6738 48.4516 33.7152 48.2236 33.7979C48.001 33.8751 47.8175 34.0047 47.6728 34.1867C47.5282 34.3687 47.4559 34.6169 47.4559 34.9312L47.1555 34.9643ZM46.7883 37.206V33.07H47.4559V37.206H46.7883Z" fill="black"/>
<path d="M44.997 37.206L44.9552 36.445V33.0699H45.6228V37.206H44.997ZM42.0264 35.1876V33.0699H42.6939V35.1876H42.0264ZM42.6939 35.1876C42.6939 35.5957 42.7412 35.9073 42.8358 36.1224C42.9303 36.3374 43.0611 36.4863 43.228 36.5691C43.4004 36.6463 43.5923 36.6849 43.8037 36.6849C44.1653 36.6849 44.4462 36.5553 44.6465 36.2961C44.8523 36.0369 44.9552 35.6757 44.9552 35.2124H45.2807C45.2807 35.6481 45.2167 36.0231 45.0888 36.3374C44.9608 36.6518 44.7744 36.8917 44.5297 37.0571C44.2905 37.2226 43.9956 37.3053 43.6452 37.3053C43.3225 37.3053 43.0388 37.2419 42.794 37.115C42.5493 36.9827 42.3601 36.7759 42.2266 36.4946C42.0931 36.2078 42.0264 35.8384 42.0264 35.3861V35.1876H42.6939Z" fill="black"/>
<path d="M39.1391 37.3053C38.733 37.3053 38.3714 37.2143 38.0543 37.0323C37.7428 36.8448 37.498 36.5884 37.32 36.263C37.142 35.9376 37.053 35.5626 37.053 35.138C37.053 34.7134 37.1392 34.3383 37.3117 34.013C37.4897 33.6876 37.7344 33.4339 38.046 33.2519C38.363 33.0644 38.7219 32.9707 39.1224 32.9707C39.534 32.9707 39.8956 33.0644 40.2072 33.2519C40.5242 33.4339 40.769 33.6876 40.9415 34.013C41.1195 34.3383 41.2085 34.7134 41.2085 35.138C41.2085 35.5626 41.1195 35.9376 40.9415 36.263C40.769 36.5884 40.527 36.8448 40.2155 37.0323C39.904 37.2143 39.5452 37.3053 39.1391 37.3053ZM39.1391 36.6931C39.4172 36.6931 39.6592 36.627 39.865 36.4946C40.0709 36.3623 40.2322 36.1803 40.349 35.9487C40.4714 35.717 40.5326 35.4468 40.5326 35.138C40.5326 34.8292 40.4714 34.5589 40.349 34.3273C40.2322 34.0957 40.0681 33.9137 39.8567 33.7814C39.6453 33.649 39.4005 33.5828 39.1224 33.5828C38.8498 33.5828 38.6078 33.649 38.3964 33.7814C38.1906 33.9137 38.0265 34.0957 37.9041 34.3273C37.7873 34.5589 37.7289 34.8292 37.7289 35.138C37.7289 35.4413 37.7873 35.7115 37.9041 35.9487C38.0265 36.1803 38.1934 36.3623 38.4048 36.4946C38.6217 36.627 38.8665 36.6931 39.1391 36.6931Z" fill="black"/>
<path d="M34.5726 37.206V32.0525H32.7118V31.4155H37.1343V32.0525H35.2735V37.206H34.5726Z" fill="black"/>
</g>
</svg>
